<?xml version="1.0" encoding="iso-8859-1"?>
<!-- Generator: Adobe Illustrator 18.1.1, SVG Export Plug-In . SVG Version: 6.00 Build 0)  -->
<svg version="1.1" id="Layer_1" xmlns="http://www.w3.org/2000/svg" xmlns:xlink="http://www.w3.org/1999/xlink" x="0px" y="0px"
	 viewBox="0 0 1039.4 216.6" style="enable-background:new 0 0 1039.4 216.6;" xml:space="preserve">
<style type="text/css">
	.st0{fill:#ED1C25;}
	.st1{fill:#8B9698;}
	.st2{fill:#33414F;}
	.st3{fill:none;}
	.st4{fill:none;stroke:#333479;stroke-width:2;}
	.st5{fill:url(#SVGID_1_);}
	.st6{fill:url(#SVGID_2_);}
	.st7{fill:url(#SVGID_3_);}
	.st8{fill:url(#SVGID_4_);}
	.st9{fill:url(#SVGID_5_);}
	.st10{fill:url(#SVGID_6_);}
	.st11{fill:none;stroke:#BBCCE0;stroke-width:2;}
	.st12{fill:none;stroke:#7EA6CF;stroke-width:2;}
</style>
<g>
	<rect x="9.2" y="0" class="st0" width="390.1" height="70"/>
	<g>
		
			<rect x="411.6" y="80.2" transform="matrix(0.7071 -0.7071 0.7071 0.7071 52.0482 342.9749)" class="st1" width="56.9" height="56.9"/>
	</g>
	<rect x="475.1" y="146.6" class="st2" width="542.3" height="70"/>
	<line class="st3" x1="399.3" y1="35.7" x2="440.1" y2="35.7"/>
	<line class="st4" x1="440.1" y1="70.7" x2="440.1" y2="35.7"/>
	<line class="st3" x1="399.3" y1="35.7" x2="440.1" y2="35.7"/>
	<line class="st3" x1="440.1" y1="146.6" x2="440.1" y2="181.6"/>
	<line class="st4" x1="440.1" y1="181.6" x2="475.1" y2="181.6"/>
	<line class="st3" x1="440.1" y1="181.6" x2="440.1" y2="146.6"/>
	<line class="st4" x1="399.3" y1="35.7" x2="440.1" y2="35.7"/>
	<line class="st4" x1="440.1" y1="181.6" x2="440.1" y2="146.6"/>
	<g>
		<g>
			
				<radialGradient id="SVGID_1_" cx="3416.9375" cy="-481.6539" r="2831.4519" gradientTransform="matrix(0.2147 0 0 -0.2147 -248.7957 -129.4257)" gradientUnits="userSpaceOnUse">
				<stop  offset="0" style="stop-color:#BCD9E7"/>
				<stop  offset="1.101335e-02" style="stop-color:#B0D5E6"/>
				<stop  offset="6.426676e-02" style="stop-color:#7BC4E1"/>
				<stop  offset="0.1164" style="stop-color:#4FB6DE"/>
				<stop  offset="0.1663" style="stop-color:#2DABDB"/>
				<stop  offset="0.2134" style="stop-color:#14A3D9"/>
				<stop  offset="0.2566" style="stop-color:#059FD7"/>
				<stop  offset="0.2921" style="stop-color:#009DD7"/>
				<stop  offset="0.6461" style="stop-color:#007299"/>
				<stop  offset="0.8959" style="stop-color:#1E426E"/>
				<stop  offset="1" style="stop-color:#2C2C5B"/>
			</radialGradient>
			<path class="st5" d="M21.5,192.3V1.4h76.7c41.5,0,62.1,29.2,62.1,63c0,33.5-20.6,62.4-62.1,62.4H67.8v65.5H21.5z M113.3,64.1
				c0-14-8.6-22.3-20.9-22.3H67.8v44.7h24.6C104.7,86.4,113.3,78.1,113.3,64.1z"/>
			
				<radialGradient id="SVGID_2_" cx="3416.9375" cy="-481.6539" r="2831.4519" gradientTransform="matrix(0.2147 0 0 -0.2147 -248.7957 -129.4257)" gradientUnits="userSpaceOnUse">
				<stop  offset="0" style="stop-color:#BCD9E7"/>
				<stop  offset="1.101335e-02" style="stop-color:#B0D5E6"/>
				<stop  offset="6.426676e-02" style="stop-color:#7BC4E1"/>
				<stop  offset="0.1164" style="stop-color:#4FB6DE"/>
				<stop  offset="0.1663" style="stop-color:#2DABDB"/>
				<stop  offset="0.2134" style="stop-color:#14A3D9"/>
				<stop  offset="0.2566" style="stop-color:#059FD7"/>
				<stop  offset="0.2921" style="stop-color:#009DD7"/>
				<stop  offset="0.6461" style="stop-color:#007299"/>
				<stop  offset="0.8959" style="stop-color:#1E426E"/>
				<stop  offset="1" style="stop-color:#2C2C5B"/>
			</radialGradient>
			<path class="st6" d="M179.2,192.3V54.1h41.5v17.5c7.2-11.4,23.2-21.2,36.9-21.2v40.1c-2.3-0.6-5.4-1.1-8.9-1.1
				c-10,0-22.3,5.4-28,13.7v89.3H179.2z"/>
			
				<radialGradient id="SVGID_3_" cx="3416.9375" cy="-481.6539" r="2831.4519" gradientTransform="matrix(0.2147 0 0 -0.2147 -248.7957 -129.4257)" gradientUnits="userSpaceOnUse">
				<stop  offset="0" style="stop-color:#BCD9E7"/>
				<stop  offset="1.101335e-02" style="stop-color:#B0D5E6"/>
				<stop  offset="6.426676e-02" style="stop-color:#7BC4E1"/>
				<stop  offset="0.1164" style="stop-color:#4FB6DE"/>
				<stop  offset="0.1663" style="stop-color:#2DABDB"/>
				<stop  offset="0.2134" style="stop-color:#14A3D9"/>
				<stop  offset="0.2566" style="stop-color:#059FD7"/>
				<stop  offset="0.2921" style="stop-color:#009DD7"/>
				<stop  offset="0.6461" style="stop-color:#007299"/>
				<stop  offset="0.8959" style="stop-color:#1E426E"/>
				<stop  offset="1" style="stop-color:#2C2C5B"/>
			</radialGradient>
			<path class="st7" d="M267.9,123.1c0-38.6,22.6-72.4,65.5-72.4s65.8,33.8,65.8,72.4s-22.9,72.7-65.8,72.7S267.9,161.7,267.9,123.1
				z M356.6,123.1c0-20-7.2-35.8-23.2-35.8c-15.7,0-22.9,15.7-22.9,35.8c0,20.3,7.2,36.1,22.9,36.1
				C349.5,159.1,356.6,143.4,356.6,123.1z"/>
			
				<radialGradient id="SVGID_4_" cx="3416.9375" cy="-481.6539" r="2831.4519" gradientTransform="matrix(0.2147 0 0 -0.2147 -248.7957 -129.4257)" gradientUnits="userSpaceOnUse">
				<stop  offset="0" style="stop-color:#BCD9E7"/>
				<stop  offset="1.101335e-02" style="stop-color:#B0D5E6"/>
				<stop  offset="6.426676e-02" style="stop-color:#7BC4E1"/>
				<stop  offset="0.1164" style="stop-color:#4FB6DE"/>
				<stop  offset="0.1663" style="stop-color:#2DABDB"/>
				<stop  offset="0.2134" style="stop-color:#14A3D9"/>
				<stop  offset="0.2566" style="stop-color:#059FD7"/>
				<stop  offset="0.2921" style="stop-color:#009DD7"/>
				<stop  offset="0.6461" style="stop-color:#007299"/>
				<stop  offset="0.8959" style="stop-color:#1E426E"/>
				<stop  offset="1" style="stop-color:#2C2C5B"/>
			</radialGradient>
			<path class="st8" d="M464.8,192.3l1-4.6l4.4-20L506.9,1.4h73c31.8,0,53,23.5,53,53c0,32.6-21.2,72.4-77.3,72.4h-30.1l-9.6,44.1
				l-2.1,9.9l-2.5,11.5h-3.9H464.8z M558.7,86.4c15.5,0,26-12.9,26-27.2c0-10.9-6.9-17.5-17.2-17.5h-23.2l-9.7,44.7H558.7z"/>
			
				<radialGradient id="SVGID_5_" cx="3416.9375" cy="-481.6539" r="2831.4519" gradientTransform="matrix(0.2147 0 0 -0.2147 -248.7957 -129.4257)" gradientUnits="userSpaceOnUse">
				<stop  offset="0" style="stop-color:#BCD9E7"/>
				<stop  offset="1.101335e-02" style="stop-color:#B0D5E6"/>
				<stop  offset="6.426676e-02" style="stop-color:#7BC4E1"/>
				<stop  offset="0.1164" style="stop-color:#4FB6DE"/>
				<stop  offset="0.1663" style="stop-color:#2DABDB"/>
				<stop  offset="0.2134" style="stop-color:#14A3D9"/>
				<stop  offset="0.2566" style="stop-color:#059FD7"/>
				<stop  offset="0.2921" style="stop-color:#009DD7"/>
				<stop  offset="0.6461" style="stop-color:#007299"/>
				<stop  offset="0.8959" style="stop-color:#1E426E"/>
				<stop  offset="1" style="stop-color:#2C2C5B"/>
			</radialGradient>
			<path class="st9" d="M624,192.3L666,1.4h73c31.8,0,53,23.5,53,53c0,32.6-21.2,72.4-77.3,72.4h-30.1l-14.3,65.5H624z M717.8,86.4
				c15.5,0,26-12.9,26-27.2c0-10.9-6.9-17.5-17.2-17.5h-23.2l-9.7,44.7H717.8z"/>
			
				<radialGradient id="SVGID_6_" cx="3416.9375" cy="-481.6539" r="2831.4519" gradientTransform="matrix(0.2147 0 0 -0.2147 -248.7957 -129.4257)" gradientUnits="userSpaceOnUse">
				<stop  offset="0" style="stop-color:#BCD9E7"/>
				<stop  offset="1.101335e-02" style="stop-color:#B0D5E6"/>
				<stop  offset="6.426676e-02" style="stop-color:#7BC4E1"/>
				<stop  offset="0.1164" style="stop-color:#4FB6DE"/>
				<stop  offset="0.1663" style="stop-color:#2DABDB"/>
				<stop  offset="0.2134" style="stop-color:#14A3D9"/>
				<stop  offset="0.2566" style="stop-color:#059FD7"/>
				<stop  offset="0.2921" style="stop-color:#009DD7"/>
				<stop  offset="0.6461" style="stop-color:#007299"/>
				<stop  offset="0.8959" style="stop-color:#1E426E"/>
				<stop  offset="1" style="stop-color:#2C2C5B"/>
			</radialGradient>
			<path class="st10" d="M924.5,192.3L950,77l-64.1,115.3h-18L854.9,77l-25.5,115.3h-46.4L825.2,1.4h60.1l10.6,97.3l54.7-97.3h62.1
				l-42.1,190.9H924.5z"/>
		</g>
		<g>
			<path class="st4" d="M22.2,193.1V2.1h76.7c41.5,0,62.1,29.2,62.1,63c0,33.5-20.6,62.4-62.1,62.4H68.5v65.5H22.2z M114,64.8
				c0-14-8.6-22.3-20.9-22.3H68.5v44.7h24.6C105.5,87.2,114,78.9,114,64.8z"/>
			<path class="st4" d="M179.9,193.1V54.8h41.5v17.5c7.2-11.4,23.2-21.2,36.9-21.2v40.1c-2.3-0.6-5.4-1.1-8.9-1.1
				c-10,0-22.3,5.4-28,13.7v89.3H179.9z"/>
			<path class="st4" d="M268.6,123.8c0-38.6,22.6-72.4,65.5-72.4S400,85.2,400,123.8s-22.9,72.7-65.8,72.7S268.6,162.4,268.6,123.8z
				 M357.3,123.8c0-20-7.2-35.8-23.2-35.8c-15.7,0-22.9,15.7-22.9,35.8c0,20.3,7.2,36.1,22.9,36.1
				C350.2,159.9,357.3,144.1,357.3,123.8z"/>
			<path class="st4" d="M465.5,193.1l1-4.6l4.4-20L507.6,2.1h73c31.8,0,53,23.5,53,53c0,32.6-21.2,72.4-77.3,72.4h-30.1l-9.6,44.1
				l-2.1,9.9l-2.5,11.5h-3.9H465.5z M559.4,87.2c15.5,0,26-12.9,26-27.2c0-10.9-6.9-17.5-17.2-17.5h-23.2l-9.7,44.7H559.4z"/>
			<path class="st4" d="M624.7,193.1L666.7,2.1h73c31.8,0,53,23.5,53,53c0,32.6-21.2,72.4-77.3,72.4h-30.1L671,193.1H624.7z
				 M718.6,87.2c15.5,0,26-12.9,26-27.2c0-10.9-6.9-17.5-17.2-17.5h-23.2l-9.7,44.7H718.6z"/>
			<path class="st4" d="M925.2,193.1l25.5-115.3l-64.1,115.3h-18L855.7,77.7l-25.5,115.3h-46.4L825.9,2.1H886l10.6,97.3l54.7-97.3
				h62.1l-42.1,190.9H925.2z"/>
		</g>
		<g>
			<path class="st11" d="M20.7,191.6V0.7h76.7c41.5,0,62.1,29.2,62.1,63c0,33.5-20.6,62.4-62.1,62.4H67.1v65.5H20.7z M112.6,63.4
				c0-14-8.6-22.3-20.9-22.3H67.1v44.7h24.6C104,85.7,112.6,77.4,112.6,63.4z"/>
			<path class="st11" d="M178.4,191.6V53.4H220v17.5c7.2-11.4,23.2-21.2,36.9-21.2v40.1c-2.3-0.6-5.4-1.1-8.9-1.1
				c-10,0-22.3,5.4-28,13.7v89.3H178.4z"/>
			<path class="st11" d="M267.2,122.4c0-38.6,22.6-72.4,65.5-72.4s65.8,33.8,65.8,72.4s-22.9,72.7-65.8,72.7S267.2,161,267.2,122.4z
				 M355.9,122.4c0-20-7.2-35.8-23.2-35.8c-15.7,0-22.9,15.7-22.9,35.8c0,20.3,7.2,36.1,22.9,36.1
				C348.8,158.4,355.9,142.7,355.9,122.4z"/>
			<path class="st11" d="M464.1,191.6l1-4.6l4.4-20L506.2,0.7h73c31.8,0,53,23.5,53,53c0,32.6-21.2,72.4-77.3,72.4h-30.1l-9.6,44.1
				l-2.1,9.9l-2.5,11.5h-3.9H464.1z M558,85.7c15.5,0,26-12.9,26-27.2c0-10.9-6.9-17.5-17.2-17.5h-23.2l-9.7,44.7H558z"/>
			<path class="st11" d="M623.2,191.6L665.3,0.7h73c31.8,0,53,23.5,53,53c0,32.6-21.2,72.4-77.3,72.4h-30.1l-14.3,65.5H623.2z
				 M717.1,85.7c15.5,0,26-12.9,26-27.2c0-10.9-6.9-17.5-17.2-17.5h-23.2l-9.7,44.7H717.1z"/>
			<path class="st11" d="M923.8,191.6l25.5-115.3l-64.1,115.3h-18L854.2,76.3l-25.5,115.3h-46.4L824.5,0.7h60.1L895.2,98l54.7-97.3
				h62.1l-42.1,190.9H923.8z"/>
		</g>
		<g>
			<path class="st12" d="M21.5,192.3V1.4h76.7c41.5,0,62.1,29.2,62.1,63c0,33.5-20.6,62.4-62.1,62.4H67.8v65.5H21.5z M113.3,64.1
				c0-14-8.6-22.3-20.9-22.3H67.8v44.7h24.6C104.7,86.4,113.3,78.1,113.3,64.1z"/>
			<path class="st12" d="M179.2,192.3V54.1h41.5v17.5c7.2-11.4,23.2-21.2,36.9-21.2v40.1c-2.3-0.6-5.4-1.1-8.9-1.1
				c-10,0-22.3,5.4-28,13.7v89.3H179.2z"/>
			<path class="st12" d="M267.9,123.1c0-38.6,22.6-72.4,65.5-72.4s65.8,33.8,65.8,72.4s-22.9,72.7-65.8,72.7
				S267.9,161.7,267.9,123.1z M356.6,123.1c0-20-7.2-35.8-23.2-35.8c-15.7,0-22.9,15.7-22.9,35.8c0,20.3,7.2,36.1,22.9,36.1
				C349.5,159.1,356.6,143.4,356.6,123.1z"/>
			<path class="st12" d="M464.8,192.3l1-4.6l4.4-20L506.9,1.4h73c31.8,0,53,23.5,53,53c0,32.6-21.2,72.4-77.3,72.4h-30.1l-9.6,44.1
				l-2.1,9.9l-2.5,11.5h-3.9H464.8z M558.7,86.4c15.5,0,26-12.9,26-27.2c0-10.9-6.9-17.5-17.2-17.5h-23.2l-9.7,44.7H558.7z"/>
			<path class="st12" d="M624,192.3L666,1.4h73c31.8,0,53,23.5,53,53c0,32.6-21.2,72.4-77.3,72.4h-30.1l-14.3,65.5H624z M717.8,86.4
				c15.5,0,26-12.9,26-27.2c0-10.9-6.9-17.5-17.2-17.5h-23.2l-9.7,44.7H717.8z"/>
			<path class="st12" d="M924.5,192.3L950,77l-64.1,115.3h-18L854.9,77l-25.5,115.3h-46.4L825.2,1.4h60.1l10.6,97.3l54.7-97.3h62.1
				l-42.1,190.9H924.5z"/>
		</g>
	</g>
</g>
</svg>
