<?xml version="1.0" encoding="iso-8859-1"?>
<!-- Generator: Adobe Illustrator 18.1.1, SVG Export Plug-In . SVG Version: 6.00 Build 0)  -->
<svg version="1.1" id="Layer_1" xmlns="http://www.w3.org/2000/svg" xmlns:xlink="http://www.w3.org/1999/xlink" x="0px" y="0px"
	 viewBox="0 0 575.333 375.333" style="enable-background:new 0 0 575.333 375.333;" xml:space="preserve">
<g>
	<g>
		<linearGradient id="SVGID_1_" gradientUnits="userSpaceOnUse" x1="251.0997" y1="82.2528" x2="332.4464" y2="82.2528">
			<stop  offset="0" style="stop-color:#CF8D5D"/>
			<stop  offset="0.4888" style="stop-color:#AD6830"/>
			<stop  offset="1" style="stop-color:#6E3F12"/>
		</linearGradient>
		<rect x="251.1" y="67.035" style="fill:url(#SVGID_1_);" width="81.347" height="30.435"/>
	</g>
</g>
<g>
	<g>
		<g>
			<path style="fill:#6D6E70;" d="M71.208,137.641c-5.157,0.445-9.008,5.548-8.614,11.396c0.394,5.836,4.892,10.217,10.049,9.769
				c5.154-0.454,9.015-5.556,8.621-11.393C80.866,141.574,76.365,137.193,71.208,137.641z M72.378,155.008
				c-3.293,0.28-6.176-2.517-6.435-6.269c-0.256-3.735,2.222-7.015,5.53-7.304c3.293-0.273,6.182,2.532,6.431,6.266
				C78.16,151.445,75.685,154.714,72.378,155.008z"/>
			<path style="fill:#404041;" d="M72.588,158.036c-4.775,0.415-8.945-3.647-9.312-9.068c-0.373-5.41,3.211-10.139,7.983-10.566
				c4.781-0.4,8.951,3.663,9.324,9.069C80.944,152.88,77.36,157.616,72.588,158.036L72.588,158.036z M71.412,140.681
				c-3.665,0.31-6.431,3.956-6.152,8.115c0.289,4.168,3.509,7.298,7.18,6.97c3.668-0.304,6.423-3.966,6.146-8.125
				C78.304,143.48,75.087,140.356,71.412,140.681L71.412,140.681z"/>
			<path style="fill:#F1F1F2;" d="M63.733,149.341c-0.325-4.895,3.081-9.198,7.625-9.58c4.535-0.409,8.48,3.254,8.813,8.152
				c0.042,0.661,0.012,1.326-0.075,1.966c0.294-1.055,0.43-2.177,0.352-3.349c-0.352-5.118-4.468-8.927-9.213-8.521
				c-4.739,0.415-8.298,4.898-7.956,10.018c0.075,1.161,0.364,2.246,0.8,3.251C63.898,150.649,63.784,150.008,63.733,149.341z"/>
			<path style="fill:#F1F1F2;" d="M72.507,156.852c3.157-0.276,5.547-3.262,5.55-6.792c-0.61,2.932-2.838,5.241-5.631,5.481
				c-2.806,0.238-5.316-1.644-6.306-4.441C66.596,154.576,69.35,157.126,72.507,156.852z"/>
		</g>
		<polygon style="fill:#6D6E70;" points="74.81,167.262 71.641,167.544 71.006,158.178 74.173,157.886 		"/>
		<polygon style="fill:#404041;" points="74.386,167.3 72.068,167.505 71.431,158.139 73.752,157.928 		"/>
		<polygon style="fill:#F1F1F2;" points="73.186,166.84 72.747,165.475 71.418,157.573 72.555,157.48 		"/>
	</g>
	<g>
		<polygon style="fill:#E8B800;" points="46.705,368.853 33.328,175.78 37.375,167.361 537.95,123.47 		"/>
		<polygon style="fill:#BA8A00;" points="555.449,318.135 551.108,325.375 46.705,368.853 50.536,362.028 37.375,167.361 
			542.28,123.47 		"/>
		<polygon style="fill:#FFCB05;" points="555.449,318.135 50.536,362.028 37.375,167.361 542.28,123.47 		"/>
		<polygon style="fill:#FFCB05;" points="555.449,318.135 50.536,362.028 37.375,167.361 542.28,123.47 		"/>
		<path style="fill:#231F20;" d="M37.375,167.361l3.641,53.858l43.86-57.986L37.375,167.361z M146.76,157.853L45.767,291.368
			l4.285,63.407L202.69,152.991L146.76,157.853z M264.561,147.615l-158.549,209.59l55.924-4.865l158.543-209.584L264.561,147.615z
			 M515.351,321.623l37.002-48.951l-4.275-63.389l-88.659,117.2L515.351,321.623z M382.359,137.376L223.816,346.964l55.927-4.853
			l158.531-209.593L382.359,137.376z M500.154,127.138L341.611,336.716l55.92-4.847l145.806-192.722l-1.058-15.678L500.154,127.138z
			"/>
		<polygon style="fill:#231F20;" points="78.65,324.863 70.152,199.233 514.166,160.628 522.657,286.268 		"/>
		<polygon style="fill:#FFCB05;" points="81.049,321.797 73.238,206.148 508.417,168.323 516.241,283.965 		"/>
		<path style="fill:#FFFFFF;" d="M270.62,198.776l-7.835,0.68l1.455,21.517l-13.531-20.476l-10.217,0.896l2.541,37.556l7.832-0.686
			l-1.747-25.768l15.801,24.547l8.236-0.709L270.62,198.776z M310.172,223.714c1.22-2.886,1.714-6.085,1.479-9.579
			c-0.246-3.633-1.124-6.741-2.604-9.303c-1.498-2.562-3.452-4.528-5.84-5.917c-1.389-0.83-3.085-1.407-5.082-1.75
			c-1.993-0.337-4.339-0.397-7.048-0.162l-12.006,1.04l2.535,37.543l11.693-0.998c2.637-0.241,4.898-0.644,6.796-1.251
			c1.903-0.613,3.623-1.533,5.157-2.778C307.315,228.88,308.957,226.613,310.172,223.714z M302.144,221.189
			c-0.62,1.756-1.66,3.211-3.154,4.36c-0.863,0.631-1.768,1.089-2.703,1.383c-0.923,0.283-2.408,0.523-4.447,0.698l-2.165,0.18
			l-1.582-23.507l2.156-0.174c1.843-0.163,3.218-0.193,4.138-0.102c0.938,0.102,1.849,0.355,2.758,0.764
			c1.786,0.842,3.136,2.111,4.05,3.801c0.914,1.684,1.449,3.753,1.618,6.23C302.979,217.322,302.763,219.445,302.144,221.189z
			 M232.509,202.083l-8.593,0.752l1.584,23.435c0.18,2.706-0.174,4.721-1.086,6.032c-0.899,1.305-2.423,2.068-4.552,2.243
			c-2.165,0.193-3.777-0.318-4.823-1.503c-1.052-1.191-1.666-3.091-1.849-5.707l-1.576-23.441l-8.587,0.764l1.621,23.988
			c0.312,4.625,1.789,8.071,4.447,10.302c2.649,2.255,6.402,3.193,11.249,2.772c4.853-0.421,8.44-1.991,10.761-4.679
			c2.325-2.67,3.338-6.356,3.019-10.993L232.509,202.083z M358.131,215.091l3.951-0.337l9.953,12.977l10.44-0.902l-12.16-15.13
			c2.038-1.335,3.56-2.935,4.57-4.787c1.016-1.852,1.437-4.155,1.245-6.933c-0.126-2.015-0.607-3.657-1.431-4.931
			c-0.836-1.281-1.894-2.274-3.194-3.013c-1.293-0.733-2.64-1.172-4.065-1.299c-1.45-0.121-3.139-0.102-5.094,0.054l-14.312,1.251
			l2.532,37.555l8.497-0.746L358.131,215.091z M357,198.223l3.085-0.276c1.016-0.084,1.912-0.132,2.7-0.145
			c0.77,0,1.456,0.102,2.057,0.319c0.854,0.325,1.474,0.794,1.858,1.431c0.397,0.65,0.62,1.443,0.673,2.376
			c0.078,1.064-0.006,1.93-0.234,2.573c-0.235,0.661-0.613,1.275-1.185,1.841c-0.589,0.583-1.329,1.022-2.237,1.238
			c-0.92,0.235-2.051,0.409-3.41,0.53l-2.64,0.222L357,198.223z M342.916,222.957l-15.492,1.359l-0.607-9.291l14.349-1.233
			l-0.481-7.27l-14.361,1.232l-0.439-6.476l15.468-1.335l-0.487-7.271l-23.97,2.075l2.549,37.556l23.946-2.075L342.916,222.957z
			 M224.489,273.207c-1.317-0.349-2.552-0.619-3.692-0.788c-1.131-0.168-2.318-0.349-3.551-0.523
			c-1.892-0.295-3.182-0.662-3.882-1.125c-0.707-0.487-1.089-1.208-1.158-2.201c-0.045-0.661,0.12-1.263,0.502-1.81
			c0.379-0.559,0.854-0.962,1.413-1.275c0.635-0.349,1.296-0.613,1.994-0.794c0.703-0.18,1.401-0.283,2.107-0.349
			c2.027-0.174,4.027,0.066,6.023,0.709c1.987,0.638,3.689,1.522,5.109,2.61l0.914-0.073l-0.586-8.665
			c-1.608-0.577-3.497-1.028-5.653-1.317c-2.162-0.301-4.327-0.355-6.513-0.151c-4.348,0.379-7.83,1.798-10.437,4.24
			c-2.628,2.454-3.813,5.43-3.575,8.919c0.174,2.61,0.932,4.745,2.276,6.386c1.347,1.653,3.446,2.875,6.3,3.662
			c1.248,0.337,2.576,0.601,3.978,0.764c1.41,0.187,2.745,0.385,4.014,0.602c1.212,0.228,2.147,0.613,2.806,1.148
			c0.65,0.541,1.004,1.233,1.059,2.057c0.063,0.896-0.108,1.575-0.499,2.068c-0.391,0.493-0.899,0.926-1.527,1.293
			c-0.52,0.276-1.197,0.493-2.042,0.668c-0.833,0.174-1.518,0.289-2.035,0.331c-2.015,0.18-4.147-0.078-6.396-0.728
			c-2.24-0.679-4.306-1.738-6.173-3.193l-0.935,0.09l0.604,9.015c1.844,0.679,3.798,1.209,5.878,1.581
			c2.069,0.367,4.484,0.433,7.22,0.198c4.751-0.421,8.434-1.906,11.041-4.45c2.61-2.556,3.791-5.689,3.536-9.375
			c-0.174-2.586-0.92-4.649-2.234-6.158C229.051,275.041,227.087,273.928,224.489,273.207z M115.947,267.193
			c-0.972-0.193-2.018-0.349-3.152-0.421c-1.131-0.078-2.399-0.06-3.785,0.054c-2.529,0.223-4.82,0.884-6.894,1.961
			c-2.063,1.107-3.762,2.544-5.082,4.342c-1.381,1.864-2.384,4.041-3.013,6.524c-0.613,2.478-0.827,5.22-0.628,8.209
			c0.216,3.181,0.821,5.96,1.804,8.341c0.99,2.352,2.282,4.3,3.903,5.803c1.6,1.485,3.476,2.568,5.614,3.194
			c2.144,0.649,4.453,0.866,6.91,0.649c1.654-0.138,2.953-0.342,3.894-0.607c0.938-0.27,1.934-0.631,3.001-1.07
			c0.806-0.349,1.576-0.746,2.309-1.179c0.734-0.433,1.501-0.89,2.306-1.389l-0.61-8.972l-0.893,0.072
			c-0.37,0.427-0.851,0.944-1.437,1.563c-0.586,0.607-1.224,1.179-1.924,1.732c-0.812,0.68-1.72,1.245-2.715,1.678
			c-0.99,0.445-2.006,0.703-3.049,0.794c-1.073,0.108-2.189-0.006-3.331-0.307c-1.134-0.295-2.189-0.872-3.154-1.708
			c-0.953-0.836-1.771-2.02-2.472-3.536c-0.692-1.521-1.116-3.464-1.272-5.821c-0.159-2.237-0.006-4.173,0.418-5.791
			c0.439-1.636,1.065-2.971,1.873-3.993c0.851-1.076,1.807-1.864,2.863-2.381c1.049-0.523,2.177-0.848,3.376-0.95
			c1.091-0.096,2.114,0.012,3.082,0.295c0.977,0.289,1.894,0.655,2.745,1.118c0.836,0.463,1.588,0.956,2.252,1.456
			c0.671,0.487,1.23,0.92,1.672,1.281l0.98-0.091l-0.613-9.111c-0.635-0.27-1.368-0.577-2.204-0.902
			C117.883,267.71,116.96,267.428,115.947,267.193z M142.106,263.916c-5.322,0.457-9.378,2.573-12.163,6.332
			c-2.796,3.764-3.984,8.672-3.575,14.703c0.406,5.989,2.237,10.614,5.506,13.897c3.259,3.235,7.553,4.636,12.881,4.174
			c5.34-0.463,9.402-2.586,12.195-6.363c2.778-3.795,3.969-8.69,3.569-14.655c-0.406-6.05-2.252-10.687-5.529-13.94
			C151.713,264.829,147.419,263.446,142.106,263.916z M151.412,288.277c-0.294,1.594-0.824,2.989-1.572,4.203
			c-0.674,1.071-1.495,1.906-2.454,2.454c-0.959,0.577-1.996,0.902-3.091,0.992c-1.104,0.096-2.162-0.048-3.181-0.427
			c-1.025-0.385-1.945-1.041-2.754-1.961c-0.806-0.938-1.491-2.165-2.048-3.705c-0.562-1.527-0.917-3.415-1.068-5.641
			c-0.153-2.189-0.036-4.143,0.307-5.815c0.352-1.708,0.881-3.061,1.555-4.071c0.736-1.076,1.56-1.876,2.487-2.4
			c0.932-0.523,1.934-0.829,3.013-0.914c1.067-0.102,2.12,0.036,3.139,0.403c1.017,0.385,1.927,1.035,2.751,1.972
			c0.815,0.914,1.498,2.141,2.068,3.681c0.562,1.551,0.921,3.428,1.076,5.695C151.779,284.837,151.7,286.695,151.412,288.277z
			 M189.514,282.215l-13.54-20.464l-10.208,0.872l2.541,37.561l7.83-0.679l-1.744-25.775l15.809,24.56l8.23-0.722l-2.541-37.561
			l-7.833,0.692L189.514,282.215z M233.898,264.018l10.34-0.896l2.056,30.303l8.537-0.752l-2.045-30.291l10.337-0.902l-0.484-7.277
			l-29.238,2.544L233.898,264.018z M370.573,252.141l10.349-0.902l2.057,30.303l8.534-0.752l-2.039-30.29l10.331-0.89l-0.493-7.282
			l-29.232,2.544L370.573,252.141z M444.408,237.63c-5.316,0.463-9.381,2.58-12.16,6.338c-2.802,3.777-3.987,8.684-3.578,14.716
			c0.403,5.983,2.237,10.602,5.497,13.873c3.272,3.247,7.565,4.66,12.894,4.191c5.34-0.451,9.405-2.591,12.177-6.38
			c2.79-3.795,3.981-8.672,3.578-14.661c-0.403-6.026-2.237-10.674-5.521-13.922C454.012,238.544,449.712,237.179,444.408,237.63z
			 M453.705,262.003c-0.289,1.594-0.806,2.995-1.564,4.198c-0.674,1.082-1.498,1.9-2.454,2.459
			c-0.962,0.571-1.984,0.902-3.091,0.998c-1.1,0.078-2.153-0.048-3.181-0.445c-1.028-0.379-1.943-1.028-2.754-1.948
			c-0.805-0.938-1.485-2.165-2.057-3.71c-0.553-1.522-0.908-3.41-1.07-5.635c-0.139-2.189-0.024-4.137,0.331-5.827
			c0.343-1.701,0.854-3.055,1.533-4.053c0.74-1.088,1.576-1.888,2.502-2.405c0.926-0.517,1.936-0.83,3.019-0.92
			c1.065-0.102,2.105,0.042,3.121,0.409c1.016,0.361,1.93,1.028,2.766,1.966c0.8,0.914,1.491,2.135,2.057,3.681
			c0.577,1.546,0.926,3.434,1.082,5.689C454.084,258.557,454,260.415,453.705,262.003z M490.358,234.418l1.456,21.511
			l-13.537-20.452l-10.199,0.878l2.525,37.567l7.836-0.692l-1.744-25.769l15.81,24.554l8.233-0.709l-2.544-37.567L490.358,234.418z
			 M403.413,248.665l5.442-0.463l1.629,24.235l-5.43,0.481l0.451,6.651l19.4-1.684l-0.451-6.651l-5.431,0.469l-1.629-24.241
			l5.418-0.475l-0.439-6.657l-19.4,1.696L403.413,248.665z M294.651,268.63c1.016-1.858,1.419-4.162,1.23-6.934
			c-0.126-2.02-0.608-3.662-1.437-4.925c-0.824-1.281-1.876-2.279-3.181-3.025c-1.293-0.728-2.649-1.167-4.08-1.293
			c-1.428-0.126-3.118-0.096-5.078,0.066l-14.322,1.245l2.538,37.561l8.504-0.746l-0.935-13.765l3.963-0.343l9.94,12.983
			l10.431-0.908l-12.132-15.131C292.107,272.07,293.634,270.476,294.651,268.63z M286.899,266.219
			c-0.238,0.655-0.634,1.269-1.188,1.846c-0.586,0.595-1.338,0.992-2.249,1.233c-0.899,0.235-2.036,0.397-3.413,0.529l-2.616,0.228
			l-0.683-10.109l3.097-0.283c1.01-0.084,1.912-0.138,2.688-0.138c0.776,0,1.455,0.102,2.065,0.313
			c0.851,0.312,1.464,0.799,1.862,1.443c0.379,0.65,0.613,1.437,0.674,2.376C287.203,264.727,287.137,265.563,286.899,266.219z
			 M362.31,245.79c-0.974-0.228-2.027-0.361-3.151-0.433c-1.131-0.078-2.376-0.066-3.789,0.066c-2.52,0.211-4.811,0.872-6.874,1.948
			c-2.081,1.107-3.771,2.544-5.106,4.342c-1.377,1.858-2.387,4.035-3.001,6.525c-0.619,2.483-0.848,5.219-0.619,8.196
			c0.199,3.187,0.812,5.984,1.792,8.341c0.998,2.37,2.298,4.312,3.897,5.803c1.612,1.509,3.482,2.58,5.622,3.211
			c2.141,0.643,4.444,0.86,6.898,0.643c1.66-0.132,2.964-0.349,3.897-0.602c0.944-0.283,1.936-0.637,3.001-1.088
			c0.818-0.331,1.588-0.734,2.327-1.167c0.722-0.433,1.491-0.902,2.297-1.389l-0.613-8.978l-0.89,0.073
			c-0.379,0.445-0.86,0.968-1.443,1.569c-0.577,0.608-1.214,1.185-1.912,1.726c-0.83,0.68-1.726,1.251-2.712,1.684
			c-1.004,0.451-2.015,0.71-3.055,0.794c-1.083,0.102-2.201-0.006-3.332-0.307c-1.136-0.288-2.201-0.866-3.163-1.714
			c-0.956-0.829-1.768-2.008-2.459-3.53c-0.704-1.528-1.113-3.47-1.299-5.815c-0.126-2.243,0-4.192,0.445-5.809
			c0.433-1.618,1.052-2.947,1.864-3.987c0.854-1.064,1.816-1.858,2.868-2.381c1.047-0.523,2.183-0.836,3.368-0.938
			c1.083-0.097,2.117,0,3.097,0.27c0.962,0.295,1.882,0.674,2.737,1.143c0.83,0.457,1.594,0.95,2.261,1.437
			c0.655,0.487,1.203,0.932,1.653,1.293l0.98-0.072l-0.613-9.117c-0.631-0.283-1.365-0.595-2.183-0.914
			C364.246,246.295,363.326,246.025,362.31,245.79z M325.434,272.316c0.187,2.718-0.193,4.733-1.083,6.056
			c-0.908,1.299-2.423,2.045-4.552,2.231c-2.165,0.187-3.783-0.325-4.829-1.509c-1.052-1.191-1.666-3.091-1.84-5.707l-1.582-23.424
			l-8.593,0.734l1.624,23.995c0.313,4.636,1.792,8.07,4.45,10.313c2.646,2.267,6.399,3.181,11.246,2.772
			c4.853-0.439,8.449-1.985,10.752-4.673c2.333-2.688,3.331-6.357,3.031-11.005l-1.636-23.953l-8.582,0.74L325.434,272.316z"/>
		<path style="fill:#231F20;" d="M270.68,199.702l-7.827,0.692l1.447,21.511l-13.537-20.464l-10.205,0.896l2.538,37.543l7.83-0.668
			l-1.738-25.786l15.801,24.554l8.229-0.716L270.68,199.702z M310.232,224.653c1.227-2.892,1.714-6.086,1.48-9.574
			c-0.253-3.65-1.107-6.741-2.61-9.303c-1.498-2.574-3.434-4.553-5.827-5.924c-1.402-0.823-3.097-1.407-5.091-1.762
			c-1.982-0.331-4.336-0.385-7.033-0.174l-12.012,1.064l2.532,37.549l11.69-1.016c2.637-0.223,4.898-0.638,6.805-1.245
			c1.9-0.595,3.62-1.527,5.166-2.784C307.375,229.806,309.011,227.539,310.232,224.653z M302.203,222.121
			c-0.613,1.762-1.66,3.199-3.148,4.348c-0.872,0.637-1.765,1.1-2.709,1.395c-0.932,0.294-2.415,0.535-4.444,0.703l-2.162,0.18
			l-1.587-23.501l2.174-0.192c1.825-0.163,3.208-0.174,4.128-0.097c0.923,0.097,1.838,0.361,2.754,0.758
			c1.78,0.86,3.13,2.111,4.044,3.812c0.926,1.684,1.461,3.765,1.624,6.236C303.046,218.248,302.811,220.371,302.203,222.121z
			 M232.569,203.033l-8.593,0.734l1.588,23.435c0.177,2.712-0.177,4.721-1.079,6.026c-0.902,1.317-2.417,2.062-4.555,2.255
			c-2.165,0.187-3.78-0.307-4.832-1.515c-1.049-1.179-1.666-3.085-1.837-5.689l-1.591-23.448l-8.582,0.746l1.624,23.988
			c0.301,4.642,1.798,8.071,4.441,10.326c2.658,2.261,6.404,3.175,11.257,2.76c4.847-0.421,8.44-1.984,10.759-4.672
			c2.33-2.689,3.331-6.345,3.022-10.993L232.569,203.033z M358.185,216.041l3.963-0.355l9.946,12.983l10.44-0.908l-12.148-15.118
			c2.027-1.359,3.548-2.94,4.558-4.793c1.023-1.858,1.45-4.162,1.251-6.934c-0.132-2.015-0.619-3.662-1.432-4.943
			c-0.842-1.257-1.912-2.267-3.193-3.007c-1.293-0.728-2.658-1.155-4.077-1.293c-1.431-0.12-3.127-0.114-5.094,0.072l-14.319,1.239
			l2.55,37.555l8.504-0.746L358.185,216.041z M357.054,199.16l3.097-0.276c1.011-0.09,1.912-0.132,2.694-0.132
			c0.77-0.024,1.455,0.084,2.068,0.301c0.842,0.318,1.467,0.799,1.858,1.437c0.385,0.637,0.601,1.431,0.674,2.375
			c0.078,1.07-0.006,1.924-0.235,2.574c-0.241,0.655-0.637,1.262-1.197,1.846c-0.583,0.583-1.329,0.998-2.249,1.227
			c-0.908,0.235-2.033,0.409-3.404,0.523l-2.622,0.24L357.054,199.16z M342.97,223.901l-15.468,1.335l-0.631-9.285l14.36-1.233
			l-0.487-7.271l-14.36,1.251l-0.433-6.477l15.455-1.353l-0.469-7.271l-23.97,2.087l2.532,37.561l23.964-2.087L342.97,223.901z
			 M224.556,274.145c-1.32-0.367-2.55-0.637-3.69-0.794c-1.139-0.174-2.33-0.343-3.557-0.529c-1.891-0.283-3.184-0.656-3.888-1.119
			c-0.704-0.469-1.086-1.209-1.158-2.201c-0.039-0.656,0.12-1.251,0.508-1.792c0.385-0.565,0.851-0.987,1.416-1.287
			c0.628-0.355,1.293-0.626,1.979-0.8c0.709-0.168,1.416-0.289,2.123-0.355c2.02-0.169,4.023,0.066,6.016,0.733
			c1.988,0.626,3.695,1.504,5.115,2.592l0.908-0.072l-0.587-8.659c-1.602-0.589-3.488-1.023-5.652-1.317
			c-2.156-0.295-4.321-0.349-6.507-0.15c-4.348,0.367-7.832,1.786-10.446,4.227c-2.618,2.466-3.809,5.436-3.572,8.93
			c0.186,2.61,0.938,4.745,2.279,6.393c1.344,1.653,3.443,2.875,6.299,3.644c1.248,0.349,2.571,0.601,3.984,0.781
			c1.41,0.175,2.745,0.385,4.017,0.602c1.206,0.222,2.134,0.595,2.79,1.148c0.652,0.547,1.013,1.227,1.064,2.044
			c0.06,0.89-0.105,1.576-0.496,2.069c-0.385,0.487-0.905,0.932-1.539,1.281c-0.509,0.289-1.191,0.511-2.03,0.679
			c-0.839,0.187-1.519,0.289-2.033,0.331c-2.023,0.18-4.155-0.066-6.404-0.734c-2.243-0.668-4.297-1.72-6.173-3.169l-0.935,0.084
			l0.604,9.003c1.84,0.692,3.798,1.22,5.881,1.581c2.065,0.379,4.48,0.445,7.222,0.192c4.745-0.414,8.428-1.876,11.038-4.444
			c2.601-2.544,3.788-5.683,3.539-9.382c-0.174-2.592-0.92-4.63-2.24-6.152C229.117,275.997,227.156,274.873,224.556,274.145z
			 M116.003,268.137c-0.965-0.204-2.014-0.361-3.145-0.427c-1.134-0.066-2.402-0.066-3.788,0.054
			c-2.523,0.216-4.82,0.884-6.889,1.972c-2.065,1.1-3.761,2.538-5.093,4.342c-1.374,1.846-2.373,4.029-3.001,6.513
			c-0.619,2.483-0.83,5.226-0.626,8.202c0.211,3.187,0.818,5.978,1.804,8.335c0.977,2.363,2.288,4.312,3.891,5.803
			c1.612,1.491,3.482,2.574,5.629,3.211c2.137,0.644,4.438,0.854,6.906,0.644c1.654-0.145,2.956-0.343,3.888-0.62
			c0.935-0.265,1.936-0.613,3.001-1.07c0.803-0.337,1.578-0.722,2.312-1.173c0.727-0.433,1.495-0.89,2.306-1.389l-0.616-8.978
			l-0.887,0.084c-0.373,0.439-0.853,0.95-1.44,1.564c-0.587,0.608-1.227,1.185-1.921,1.732c-0.818,0.661-1.726,1.238-2.721,1.672
			c-0.993,0.451-2.003,0.709-3.04,0.794c-1.086,0.096-2.195-0.012-3.341-0.301c-1.136-0.301-2.186-0.878-3.148-1.714
			c-0.953-0.824-1.774-2.009-2.469-3.53c-0.692-1.534-1.121-3.47-1.281-5.816c-0.153-2.249-0.015-4.186,0.421-5.815
			c0.433-1.612,1.061-2.953,1.873-3.981c0.853-1.064,1.807-1.864,2.862-2.387c1.049-0.535,2.177-0.824,3.379-0.938
			c1.086-0.102,2.111,0.006,3.079,0.283c0.983,0.288,1.895,0.655,2.748,1.118c0.836,0.475,1.588,0.962,2.258,1.45
			c0.661,0.493,1.218,0.926,1.663,1.293l0.983-0.09l-0.619-9.093c-0.637-0.294-1.368-0.595-2.201-0.908
			C117.946,268.63,117.02,268.372,116.003,268.137z M142.163,264.847c-5.316,0.458-9.376,2.58-12.156,6.345
			c-2.796,3.759-3.99,8.672-3.578,14.697c0.4,5.996,2.243,10.62,5.505,13.874c3.259,3.259,7.563,4.654,12.881,4.197
			c5.337-0.469,9.403-2.598,12.196-6.38c2.785-3.765,3.978-8.66,3.578-14.655c-0.415-6.044-2.258-10.674-5.542-13.91
			C151.775,265.762,147.485,264.379,142.163,264.847z M151.475,289.203c-0.292,1.612-0.824,3.007-1.579,4.222
			c-0.673,1.064-1.488,1.906-2.447,2.453c-0.962,0.571-1.994,0.908-3.088,0.992c-1.104,0.097-2.162-0.042-3.187-0.427
			c-1.016-0.391-1.942-1.041-2.754-1.979c-0.809-0.92-1.491-2.153-2.051-3.686c-0.56-1.539-0.914-3.422-1.068-5.653
			c-0.138-2.195-0.036-4.131,0.316-5.827c0.349-1.69,0.866-3.049,1.546-4.047c0.74-1.089,1.567-1.883,2.498-2.4
			c0.926-0.517,1.924-0.836,3.013-0.926c1.059-0.102,2.111,0.036,3.13,0.41c1.019,0.373,1.931,1.028,2.757,1.972
			c0.812,0.914,1.491,2.134,2.063,3.668c0.565,1.545,0.92,3.445,1.076,5.713C151.836,285.781,151.769,287.621,151.475,289.203z
			 M189.584,283.141l-13.546-20.464l-10.211,0.896l2.543,37.549l7.833-0.68l-1.741-25.769l15.798,24.548l8.233-0.722l-2.543-37.556
			l-7.824,0.692L189.584,283.141z M233.961,264.956l10.347-0.908l2.044,30.297l8.548-0.74l-2.054-30.297l10.35-0.878l-0.496-7.295
			l-29.232,2.549L233.961,264.956z M370.632,253.085l10.362-0.908l2.038,30.291l8.545-0.74l-2.051-30.297l10.344-0.896l-0.499-7.276
			l-29.226,2.562L370.632,253.085z M444.462,238.568c-5.322,0.445-9.363,2.573-12.16,6.338c-2.796,3.776-3.969,8.677-3.572,14.709
			c0.415,5.99,2.237,10.62,5.503,13.874c3.253,3.259,7.559,4.654,12.881,4.197c5.34-0.469,9.405-2.598,12.201-6.38
			c2.778-3.789,3.975-8.66,3.572-14.661c-0.421-6.032-2.255-10.668-5.521-13.903C454.084,239.482,449.79,238.105,444.462,238.568z
			 M453.783,262.941c-0.301,1.588-0.818,2.982-1.582,4.203c-0.679,1.076-1.491,1.894-2.453,2.466
			c-0.956,0.553-1.99,0.884-3.079,0.98c-1.107,0.097-2.171-0.042-3.194-0.438c-1.022-0.373-1.948-1.023-2.754-1.961
			c-0.806-0.92-1.491-2.159-2.051-3.705c-0.547-1.521-0.908-3.404-1.065-5.641c-0.144-2.189-0.036-4.138,0.313-5.827
			c0.355-1.69,0.878-3.031,1.546-4.053c0.74-1.083,1.564-1.876,2.49-2.405c0.932-0.517,1.942-0.824,3.031-0.914
			c1.058-0.091,2.099,0.042,3.121,0.415c1.016,0.366,1.931,1.028,2.76,1.978c0.812,0.896,1.498,2.123,2.063,3.663
			c0.559,1.545,0.926,3.434,1.07,5.7C454.156,259.502,454.066,261.342,453.783,262.941z M490.424,235.357l1.449,21.505
			l-13.53-20.465l-10.211,0.89l2.532,37.562l7.842-0.686l-1.744-25.762l15.816,24.542l8.233-0.716l-2.562-37.561L490.424,235.357z
			 M403.479,249.609l5.425-0.469l1.642,24.241l-5.43,0.475l0.457,6.664l19.394-1.696l-0.439-6.657l-5.43,0.469l-1.642-24.235
			l5.43-0.469l-0.457-6.669l-19.394,1.677L403.479,249.609z M294.71,269.568c1.017-1.846,1.422-4.161,1.239-6.946
			c-0.138-2.014-0.619-3.644-1.443-4.913c-0.824-1.287-1.885-2.285-3.19-3.013c-1.284-0.74-2.637-1.179-4.062-1.287
			c-1.437-0.139-3.118-0.139-5.088,0.048l-14.322,1.239l2.538,37.561l8.494-0.733l-0.921-13.777l3.951-0.331l9.947,12.972
			l10.44-0.89l-12.156-15.142C292.173,273.014,293.694,271.42,294.71,269.568z M286.959,267.145
			c-0.232,0.674-0.629,1.293-1.176,1.846c-0.595,0.595-1.344,1.004-2.249,1.245c-0.914,0.241-2.048,0.403-3.413,0.535l-2.625,0.223
			l-0.685-10.109l3.085-0.277c1.028-0.078,1.933-0.151,2.709-0.151c0.773,0,1.458,0.108,2.045,0.325
			c0.866,0.318,1.479,0.781,1.87,1.431c0.385,0.644,0.616,1.443,0.676,2.375C287.268,265.653,287.19,266.508,286.959,267.145z
			 M362.376,246.71c-0.974-0.198-2.02-0.331-3.163-0.415c-1.131-0.066-2.382-0.054-3.777,0.048
			c-2.526,0.217-4.823,0.902-6.892,1.979c-2.068,1.1-3.758,2.538-5.082,4.33c-1.377,1.858-2.381,4.023-3.001,6.519
			c-0.637,2.484-0.836,5.237-0.637,8.196c0.211,3.199,0.818,5.984,1.816,8.347c0.969,2.363,2.267,4.312,3.885,5.797
			c1.612,1.503,3.476,2.574,5.605,3.211c2.158,0.649,4.462,0.86,6.922,0.649c1.66-0.144,2.964-0.342,3.891-0.613
			c0.944-0.27,1.942-0.631,3.001-1.07c0.8-0.337,1.582-0.728,2.315-1.167c0.74-0.433,1.498-0.902,2.291-1.389l-0.595-8.984
			l-0.896,0.078c-0.367,0.433-0.848,0.95-1.437,1.551c-0.584,0.619-1.221,1.191-1.918,1.75c-0.818,0.68-1.726,1.227-2.724,1.66
			c-0.987,0.463-1.996,0.716-3.043,0.818c-1.083,0.078-2.189-0.03-3.325-0.319c-1.137-0.307-2.201-0.872-3.151-1.72
			c-0.974-0.818-1.786-2.003-2.478-3.53c-0.692-1.528-1.118-3.458-1.281-5.827c-0.144-2.231-0.012-4.168,0.439-5.797
			c0.421-1.618,1.046-2.947,1.852-3.981c0.854-1.076,1.804-1.865,2.868-2.394c1.059-0.523,2.177-0.83,3.374-0.926
			c1.088-0.102,2.123,0,3.091,0.271c0.98,0.283,1.894,0.661,2.737,1.131c0.829,0.475,1.588,0.95,2.255,1.443
			c0.668,0.506,1.22,0.932,1.666,1.305l0.986-0.09l-0.631-9.111c-0.626-0.289-1.353-0.595-2.189-0.908
			C364.313,247.228,363.38,246.951,362.376,246.71z M325.5,273.255c0.175,2.712-0.186,4.721-1.076,6.043
			c-0.908,1.317-2.423,2.051-4.576,2.243c-2.159,0.198-3.759-0.319-4.817-1.509c-1.04-1.197-1.66-3.091-1.828-5.707l-1.594-23.423
			l-8.593,0.746l1.623,23.982c0.313,4.631,1.804,8.064,4.45,10.313c2.646,2.267,6.404,3.181,11.257,2.748
			c4.847-0.415,8.425-1.966,10.759-4.655c2.315-2.688,3.325-6.35,3.007-10.993l-1.618-23.953l-8.587,0.746L325.5,273.255z"/>
		<path d="M290.089,273.417l0.493,0.62c1.807-1.263,3.19-2.76,4.128-4.468c1.017-1.846,1.422-4.161,1.239-6.946
			c-0.012-0.102-0.027-0.192-0.033-0.301c0.081,2.49-0.328,4.606-1.265,6.308C293.634,270.476,292.107,272.07,290.089,273.417z
			 M313.131,273.405l-0.289-4.276l0.289,4.258C313.131,273.387,313.131,273.387,313.131,273.405z M279.896,260.608
			c1.028-0.078,1.933-0.151,2.709-0.151c0.773,0,1.458,0.108,2.045,0.325c0.866,0.318,1.479,0.781,1.87,1.431
			c0.337,0.547,0.544,1.215,0.634,1.99c-0.006-0.186-0.012-0.355-0.018-0.547c-0.06-0.944-0.295-1.744-0.674-2.376
			c-0.397-0.643-1.011-1.131-1.862-1.443c-0.61-0.211-1.289-0.313-2.065-0.313c-0.776,0-1.678,0.054-2.688,0.138l-3.097,0.283
			l0.06,0.938L279.896,260.608z M293.361,235.513c2.637-0.223,4.898-0.638,6.805-1.245c1.9-0.595,3.62-1.527,5.166-2.784
			c2.044-1.678,3.68-3.945,4.901-6.832c1.227-2.892,1.714-6.086,1.48-9.574c-0.018-0.168-0.03-0.325-0.036-0.481
			c0.163,3.307-0.331,6.35-1.503,9.111c-1.215,2.904-2.857,5.171-4.901,6.837c-1.552,1.245-3.272,2.177-5.175,2.785
			c-1.898,0.613-4.158,1.016-6.796,1.257l-11.693,0.998l-2.469-36.605l0,0l2.532,37.549L293.361,235.513z M341.406,200.869
			l-0.054-0.926l-15.479,1.335l0.078,0.944L341.406,200.869z M341.166,213.762l-14.349,1.257l0.607,9.279l-0.553-8.347l14.36-1.233
			L341.166,213.762z M189.514,282.209l-1.389-20.573l0,0L189.514,282.209L189.514,282.209z M135.286,284.669
			c-0.099-2.015,0.006-3.789,0.331-5.37c0.349-1.69,0.866-3.049,1.546-4.047c0.74-1.089,1.567-1.883,2.498-2.4
			c0.926-0.517,1.924-0.836,3.013-0.926c1.059-0.102,2.111,0.036,3.13,0.41c1.019,0.373,1.931,1.028,2.757,1.972
			c0.812,0.914,1.491,2.134,2.063,3.668c0.532,1.437,0.866,3.199,1.038,5.243c-0.012-0.162-0.012-0.313-0.022-0.475
			c-0.159-2.267-0.514-4.155-1.076-5.695c-0.571-1.539-1.254-2.772-2.068-3.681c-0.824-0.938-1.735-1.605-2.751-1.972
			c-1.019-0.367-2.065-0.505-3.139-0.403c-1.079,0.084-2.081,0.391-3.013,0.914c-0.926,0.523-1.75,1.317-2.487,2.4
			c-0.674,1.01-1.203,2.363-1.555,4.071c-0.342,1.672-0.454,3.626-0.307,5.809C135.247,284.35,135.274,284.5,135.286,284.669z
			 M290.327,205.054c1.825-0.163,3.208-0.174,4.128-0.097c0.923,0.097,1.838,0.361,2.754,0.758c1.78,0.86,3.13,2.111,4.044,3.812
			c0.866,1.576,1.378,3.506,1.576,5.785c-0.018-0.163,0-0.319-0.018-0.493c-0.169-2.477-0.704-4.552-1.618-6.236
			c-0.914-1.684-2.264-2.953-4.05-3.795c-0.908-0.415-1.819-0.661-2.758-0.764c-0.92-0.091-2.294-0.06-4.138,0.102l-2.156,0.174
			l0.06,0.944L290.327,205.054z M422.885,247.931l-0.072-0.945l-5.418,0.475l0.06,0.938L422.885,247.931z M102.317,287.555
			c-0.102-2.038,0.042-3.83,0.439-5.328c0.433-1.612,1.061-2.953,1.873-3.981c0.853-1.064,1.807-1.864,2.862-2.387
			c1.049-0.535,2.177-0.824,3.379-0.938c1.086-0.102,2.111,0.006,3.079,0.283c0.983,0.288,1.895,0.655,2.748,1.118
			c0.836,0.475,1.588,0.962,2.258,1.45c0.661,0.493,1.218,0.926,1.663,1.293l0.983-0.09l-0.066-0.932l-0.98,0.091
			c-0.448-0.367-1.001-0.794-1.672-1.281c-0.664-0.499-1.416-0.993-2.252-1.456c-0.851-0.463-1.768-0.836-2.745-1.118
			c-0.968-0.295-1.991-0.391-3.082-0.295c-1.2,0.102-2.327,0.415-3.376,0.945c-1.055,0.511-2.012,1.305-2.863,2.381
			c-0.809,1.022-1.434,2.363-1.873,3.987c-0.433,1.63-0.577,3.566-0.418,5.803C102.286,287.254,102.307,287.398,102.317,287.555z
			 M437.595,258.395c-0.108-2.009,0-3.795,0.325-5.377c0.355-1.69,0.878-3.031,1.546-4.053c0.74-1.083,1.564-1.876,2.49-2.405
			c0.932-0.517,1.942-0.824,3.031-0.914c1.058-0.091,2.099,0.042,3.121,0.415c1.016,0.366,1.931,1.028,2.76,1.978
			c0.812,0.896,1.498,2.123,2.063,3.663c0.517,1.437,0.86,3.199,1.035,5.256c-0.006-0.18-0.006-0.337-0.018-0.499
			c-0.156-2.255-0.523-4.162-1.082-5.689c-0.565-1.546-1.257-2.772-2.057-3.681c-0.836-0.938-1.75-1.605-2.766-1.966
			c-1.017-0.367-2.057-0.511-3.121-0.409c-1.083,0.09-2.092,0.403-3.019,0.92c-0.932,0.517-1.762,1.317-2.502,2.405
			c-0.679,0.998-1.19,2.352-1.533,4.048c-0.355,1.696-0.469,3.62-0.331,5.827C437.565,258.07,437.576,258.239,437.595,258.395z
			 M490.424,235.357L490.424,235.357l1.076,15.948L490.424,235.357z M359.135,229.794l-0.95-13.753l3.963-0.355l9.946,12.983
			l10.44-0.908l-0.704-0.884l-9.796,0.854l-9.953-12.977l-3.951,0.337l0.932,13.759l-8.497,0.746l0.066,0.944L359.135,229.794z
			 M374.944,207.851c1.023-1.858,1.45-4.162,1.251-6.934c-0.012-0.115-0.03-0.222-0.036-0.325c0.091,2.501-0.331,4.606-1.275,6.32
			c-1.011,1.852-2.532,3.452-4.57,4.787l0.511,0.625C372.635,211.05,374.013,209.552,374.944,207.851z M325.434,272.347
			c0-0.006,0-0.012,0-0.03l-1.305-19.111L325.434,272.347z M343.463,231.159l-0.072-0.938l-23.946,2.081l-2.477-36.617l0,0
			l2.532,37.561L343.463,231.159z M360.151,198.884c1.011-0.09,1.912-0.132,2.694-0.132c0.77-0.024,1.455,0.084,2.068,0.301
			c0.842,0.318,1.467,0.799,1.858,1.437c0.325,0.553,0.547,1.221,0.607,1.99c0-0.192,0-0.361-0.006-0.553
			c-0.054-0.932-0.276-1.726-0.673-2.376c-0.385-0.637-1.004-1.107-1.858-1.431c-0.601-0.217-1.287-0.337-2.057-0.319
			c-0.788,0.012-1.684,0.06-2.7,0.145L357,198.223l0.054,0.938L360.151,198.884z M348.689,266.128
			c-0.097-2.027,0.042-3.806,0.451-5.316c0.421-1.618,1.046-2.947,1.852-3.981c0.854-1.076,1.804-1.865,2.868-2.394
			c1.059-0.523,2.177-0.83,3.374-0.926c1.088-0.102,2.123,0,3.091,0.271c0.98,0.283,1.894,0.661,2.737,1.131
			c0.829,0.475,1.588,0.95,2.255,1.443c0.668,0.506,1.22,0.932,1.666,1.305l0.986-0.09l-0.198-2.833l0.126,1.906l-0.98,0.072
			c-0.427-0.361-0.998-0.805-1.653-1.293c-0.668-0.487-1.431-0.986-2.261-1.437c-0.854-0.475-1.774-0.848-2.737-1.143
			c-0.98-0.27-2.014-0.367-3.097-0.27c-1.185,0.102-2.321,0.415-3.368,0.938c-1.052,0.523-2.014,1.317-2.868,2.381
			c-0.812,1.041-1.431,2.37-1.864,3.987c-0.445,1.618-0.571,3.56-0.415,5.809C348.659,265.846,348.677,266.002,348.689,266.128z
			 M370.573,252.135l0.06,0.95l10.362-0.908l-0.073-0.938L370.573,252.135z M370.145,245.821l0.367,5.436L370.145,245.821
			L370.145,245.821z M120.826,302.992c-0.733,0.433-1.503,0.829-2.309,1.179c-1.061,0.439-2.062,0.794-3.001,1.07
			c-0.941,0.265-2.231,0.469-3.894,0.607c-2.456,0.217-4.766,0-6.91-0.649c-2.137-0.626-4.014-1.708-5.614-3.2
			c-1.621-1.503-2.913-3.445-3.903-5.803c-0.935-2.243-1.519-4.889-1.759-7.878c0.009,0.156,0.003,0.312,0.024,0.475
			c0.211,3.187,0.818,5.978,1.804,8.335c0.977,2.363,2.288,4.312,3.891,5.803c1.612,1.491,3.482,2.574,5.629,3.211
			c2.137,0.644,4.438,0.854,6.906,0.644c1.654-0.145,2.956-0.343,3.888-0.62c0.935-0.265,1.936-0.613,3.001-1.07
			c0.803-0.337,1.578-0.722,2.312-1.173c0.727-0.433,1.495-0.89,2.306-1.389l-0.067-0.932
			C122.327,302.096,121.56,302.559,120.826,302.992z M334.058,272.118c0.301,4.63-0.698,8.299-3.031,10.987
			c-2.303,2.688-5.899,4.234-10.752,4.673c-4.847,0.397-8.6-0.506-11.246-2.772c-2.658-2.243-4.137-5.677-4.45-10.313l-1.269-18.606
			l1.329,19.544c0.313,4.631,1.804,8.064,4.45,10.313c2.646,2.267,6.404,3.181,11.257,2.748c4.847-0.415,8.425-1.966,10.759-4.655
			c2.315-2.688,3.325-6.35,3.007-10.993L334.058,272.118z M389.473,250.499l0.367,5.46l-0.313-4.529l10.344-0.896l-0.066-0.938
			L389.473,250.499z M369.502,280.188c-0.805,0.487-1.575,0.95-2.297,1.389c-0.74,0.433-1.509,0.836-2.327,1.167
			c-1.065,0.451-2.057,0.805-3.001,1.083c-0.932,0.259-2.237,0.457-3.897,0.607c-2.454,0.217-4.757,0.006-6.904-0.643
			c-2.135-0.631-4.005-1.714-5.617-3.211c-1.6-1.491-2.899-3.434-3.897-5.803c-0.932-2.237-1.509-4.883-1.756-7.883
			c0.012,0.174,0.012,0.331,0.018,0.475c0.211,3.199,0.818,5.984,1.816,8.347c0.969,2.363,2.267,4.312,3.885,5.797
			c1.612,1.503,3.476,2.574,5.605,3.211c2.158,0.649,4.462,0.86,6.922,0.649c1.66-0.144,2.964-0.342,3.891-0.613
			c0.944-0.27,1.942-0.631,3.001-1.07c0.8-0.337,1.582-0.728,2.315-1.167c0.74-0.433,1.498-0.902,2.291-1.389l-0.595-8.984
			L369.502,280.188z M462.846,256.182c0.307,5.785-0.897,10.506-3.609,14.186c-2.778,3.789-6.837,5.93-12.177,6.38
			c-5.328,0.469-9.622-0.944-12.894-4.197c-3.175-3.163-4.979-7.643-5.448-13.404c0,0.156,0,0.312,0.012,0.469
			c0.415,5.99,2.237,10.62,5.503,13.874c3.253,3.259,7.559,4.654,12.881,4.197c5.34-0.469,9.405-2.598,12.201-6.38
			c2.778-3.789,3.975-8.66,3.572-14.661C462.882,256.495,462.852,256.356,462.846,256.182z M468.132,237.287l2.104,31.217
			L468.132,237.287L468.132,237.287z M500.81,272.226l-2.562-37.561l2.49,36.641l-8.233,0.697l-15.81-24.541l1.744,25.769
			l-7.836,0.692l0.06,0.926l7.842-0.686l-1.744-25.762l15.816,24.542L500.81,272.226z M291.791,289.455l-9.94-12.989l-3.963,0.349
			l0.069,0.932l3.951-0.331l9.947,12.972l10.44-0.89l-0.709-0.896L291.791,289.455z M410.269,269.328l-1.432-21.126l-5.424,0.463
			l-0.379-5.725l0,0l0.445,6.669l5.425-0.469L410.269,269.328z M405.506,279.563l-0.39-5.707l0,0l0.457,6.664l19.394-1.696
			l-0.06-0.938L405.506,279.563z M382.979,281.535l-1.69-24.921l1.744,25.853l8.545-0.74l-0.066-0.944L382.979,281.535z
			 M209.152,239.891c2.658,2.261,6.404,3.175,11.257,2.76c4.847-0.421,8.44-1.984,10.759-4.672c2.33-2.689,3.331-6.345,3.022-10.993
			l-0.066-0.914c0.31,4.63-0.695,8.298-3.019,10.969c-2.321,2.688-5.908,4.258-10.761,4.66c-4.847,0.421-8.6-0.499-11.249-2.754
			c-2.652-2.243-4.134-5.677-4.447-10.302l-1.561-23.068l0,0l1.624,23.988C205.011,234.208,206.509,237.636,209.152,239.891z
			 M224.243,265.052c-1.993-0.644-3.993-0.884-6.02-0.709c-0.706,0.066-1.404,0.168-2.107,0.349
			c-0.698,0.169-1.359,0.427-1.994,0.782c-0.559,0.307-1.034,0.728-1.413,1.287c-0.382,0.547-0.547,1.148-0.502,1.81
			c0.009,0.156,0.039,0.295,0.069,0.445c0.045-0.475,0.214-0.914,0.496-1.305c0.385-0.565,0.851-0.987,1.416-1.287
			c0.628-0.355,1.293-0.626,1.979-0.8c0.709-0.168,1.416-0.289,2.123-0.355c2.02-0.169,4.023,0.066,6.016,0.733
			c1.988,0.626,3.695,1.504,5.115,2.592l0.908-0.072l-0.151-2.147l0.091,1.197l-0.914,0.091
			C227.935,266.573,226.233,265.69,224.243,265.052z M190.202,298.277l-15.809-24.547l0.069,0.944l15.798,24.548l8.233-0.722
			l-0.063-0.932L190.202,298.277z M212.143,281.59c1.248,0.349,2.571,0.601,3.984,0.781c1.41,0.175,2.745,0.385,4.017,0.602
			c1.206,0.222,2.134,0.595,2.79,1.148c0.556,0.457,0.881,1.022,1.007,1.672c0.009-0.168,0.009-0.367-0.006-0.565
			c-0.054-0.818-0.409-1.509-1.059-2.051c-0.658-0.535-1.588-0.92-2.806-1.148c-1.269-0.217-2.604-0.415-4.014-0.602
			c-1.402-0.163-2.73-0.427-3.981-0.788c-2.851-0.764-4.949-1.985-6.297-3.638c-1.233-1.534-1.972-3.458-2.219-5.792
			c0.003,0.108-0.003,0.223,0.003,0.343c0.186,2.61,0.938,4.745,2.279,6.393C207.189,279.599,209.287,280.82,212.143,281.59z
			 M168.307,300.184l-2.475-36.611h-0.006l2.543,37.549l7.833-0.68l-0.066-0.938L168.307,300.184z M160.541,282.468
			c0.309,5.767-0.884,10.494-3.591,14.174c-2.793,3.795-6.855,5.918-12.195,6.381c-5.328,0.462-9.622-0.938-12.881-4.198
			c-3.184-3.169-4.995-7.656-5.46-13.404c0.012,0.162,0.003,0.312,0.015,0.469c0.4,5.996,2.243,10.62,5.505,13.874
			c3.259,3.259,7.563,4.654,12.881,4.197c5.337-0.469,9.403-2.598,12.196-6.38c2.785-3.765,3.978-8.66,3.578-14.655
			C160.573,282.768,160.549,282.63,160.541,282.468z M273.155,236.331l-8.236,0.709l-15.801-24.547l1.747,25.768l-7.832,0.686
			l-2.051-30.345l2.114,31.277l7.83-0.668l-1.738-25.786l15.801,24.554l8.229-0.716L273.155,236.331z M232.62,283.105
			c0.15,3.524-1.025,6.519-3.548,9.002c-2.607,2.544-6.29,4.029-11.041,4.45c-2.739,0.235-5.151,0.169-7.22-0.198
			c-2.081-0.373-4.035-0.902-5.878-1.581l-0.544-8.071l0,0l0.604,9.003c1.84,0.692,3.798,1.22,5.881,1.581
			c2.065,0.379,4.48,0.445,7.222,0.192c4.745-0.414,8.428-1.876,11.038-4.444c2.601-2.544,3.788-5.683,3.539-9.382
			C232.659,283.478,232.638,283.286,232.62,283.105z M252.786,262.37l0.364,5.388l-0.304-4.45l10.35-0.878l-0.073-0.95
			L252.786,262.37z M278.823,290.58l-8.504,0.74l0.063,0.938l8.494-0.733l-0.202-2.983L278.823,290.58z M246.295,293.401
			l0.057,0.944l8.548-0.74l-0.069-0.932L246.295,293.401z M233.898,264.018l0.063,0.938l10.347-0.908l-0.069-0.926L233.898,264.018z
			"/>
	</g>
	<g>
		<path d="M62.359,176.537c1.29,0.589,2.559,0.848,3.761,0.812c0.196-0.024-1.858,7.337-1.663,7.301
			c1.29-0.168,4.859-0.018,5.695-1.335c-0.812-3.266,4.513-14.571,5.421-19.295l-5.154,0.448c-0.941,4.008-2.349,7.063-4.288,7.327
			c-0.553,0.075-1.209-0.066-1.951-0.394c-0.947-0.433-1.458-0.914-1.527-1.437c-0.156-1.145,0.556-2.814,2.129-5.012l-6.053,0.544
			c-0.782,1.825-1.14,3.612-0.897,5.325C58.074,172.599,59.054,175.022,62.359,176.537z"/>
		<path d="M521.154,140.66c1.57,0.292,3.921-0.009,6.206-3.091c2.165-2.899,2.688-6.197,1.546-9.355
			c-0.487-1.332-1.263-2.594-2.207-3.752l-7.006,0.613c2.255,1.65,4.053,3.464,4.697,5.241c0.331,0.911,0.3,1.722-0.115,2.613
			c-0.162,0.355-0.379,0.709-0.649,1.079c-0.65,0.881-1.215,1.281-1.678,1.2c-1.653-0.313-3.777-3.605-6.332-9.778l-4.534,0.394
			C513.787,133.534,516.349,139.77,521.154,140.66z"/>
	</g>
	<path style="fill:#B38B4E;" d="M535.07,122.337c-4.829,1.238-8.407-2.409-12.568-6.633c-2.087-2.129-4.24-4.324-6.621-5.839
		l-1.083-0.68l-1.137,0.575c-2.267,1.176-3.681,2.985-4.751,4.907c-1.07-4.282-3.68-8.939-6.982-9.357
		c-4.444-0.553-28.426-5.49-58.777-11.744c-84.828-17.485-155.639-31.812-162.975-30.17c-5.647,1.265-53.079,20.052-103.29,39.952
		c-39.483,15.647-83.472,33.075-97.764,38.162c0.577,0.894,1.269,1.717,1.591,2.793c0.222,0.74,0.337,1.51,0.442,2.285
		c4.868-1.717,13.004-4.838,26.941-10.265c19.273-7.492,45.264-17.794,70.392-27.743c47.85-18.967,97.334-38.559,102.629-39.756
		c7.009-1.567,103.522,18.309,161.162,30.189c30.441,6.275,54.495,11.227,59.066,11.799c0.409,0.138,1.546,1.41,2.448,3.894
		c0.805,2.279,0.866,4.056,0.716,4.691l-0.397,0.196c-1.792,1.155-4.24,1.076-6.837,1.01c-2.977-0.087-6.375-0.186-9.334,1.702
		c-1.996,1.275-3.085,3.578-2.958,6.326c0.108,2.914,1.539,5.785,3.343,6.822c2.027,1.362,3.957,1.927,5.798,1.927
		c6.729,0,10.53-7.814,14.03-12.914l1.653-0.108c0.8-1.335,1.395-2.703,1.967-4.032c0.962-2.21,1.677-3.78,2.875-4.811
		c1.515,1.172,3.025,2.697,4.594,4.312c4.522,4.579,9.64,9.796,16.922,7.914L535.07,122.337z M490.743,130.635l-0.174-0.105
		c-0.259-0.31-0.8-1.44-0.722-2.498c0.036-0.526,0.204-0.737,0.481-0.902c1.786-1.143,4.24-1.073,6.838-1.011
		c1.636,0.051,3.404,0.099,5.154-0.168C498.055,131.258,494.622,133.284,490.743,130.635z"/>
	<path style="fill:#B38B4E;" d="M84.696,153.812c-0.159-1.816-1.139-3.355-2.899-4.574c-0.826-0.565-1.933-0.905-2.676-1.461
		c-0.201,0.15-0.214-0.126-0.313-0.46c-0.457-1.621-0.947-3.63-2.351-4.501c-0.124-0.09-0.184-0.213-0.19-0.328
		c-0.12,0.036-0.249,0.075-0.349,0.102c-0.211-1.56-0.063-4.456,0.036-6.329c0.295-5.377,0.599-10.927-2.396-13.951
		c-1.561-1.579-3.708-2.117-6.375-1.585c-3.178,0.635-5.418,3.085-5.995,6.558c-1.025,6.176,3.178,16.432,18.071,26.689
		c0.304,0.21,0.472,0.379,0.554,0.469c-0.298,0.969-2.36,3.163-3.753,4.625c-4.33,4.588-10.265,10.882-8.239,19.614l4.718-1.402
		c-1.287-5.548,3.043-10.121,6.859-14.171C82.412,159.925,85.009,157.182,84.696,153.812z M71.085,135.921
		c-0.066,1.272-0.135,2.532-0.156,3.732c-4.309-5.196-5.277-9.342-4.943-11.339c0.123-0.77,0.481-1.828,2.044-2.135
		c0.331-0.067,0.698-0.123,1.055-0.123c0.487,0,0.944,0.093,1.23,0.382C71.535,127.676,71.277,132.433,71.085,135.921z"/>
	<path style="fill:#5B4F3C;" d="M533.993,123.377c-0.211,0.006-0.427,0.006-0.638,0.006c-4.522,0-8.034-3.56-11.775-7.358
		c-2.02-2.048-4.107-4.174-6.332-5.593l-0.367-0.231l-0.372,0.201c-1.666,0.866-2.916,2.159-4.035,4.21l-1.948,3.515l-1.004-4
		c-0.944-3.743-3.169-7.706-5.593-8.016c-4.51-0.571-28.426-5.487-58.705-11.73l-0.198-0.039
		c-80.372-16.565-147.954-30.279-161-30.279c-0.83,0-1.206,0.066-1.368,0.102c-5.526,1.238-52.911,20.016-103.071,39.885
		l-0.084,0.03c-39.407,15.612-83.634,33.144-97.875,38.184c0.352,0.517,0.682,1.049,0.923,1.626
		c4.937-1.722,13.374-4.97,27.197-10.346c19.241-7.49,45.22-17.782,70.381-27.753c47.898-18.979,97.43-38.601,102.851-39.816
		c0.369-0.081,0.836-0.126,1.473-0.126c13.227,0,105.284,18.97,160.29,30.3c30.411,6.276,54.43,11.219,58.951,11.79l0.151,0.006
		l0.12,0.057c1.329,0.415,2.706,2.806,3.5,4.961c0.794,2.231,1.1,4.546,0.775,5.875l-0.198,0.812l-1.004,0.541
		c-1.75,1.1-3.795,1.245-5.749,1.245c-0.613,0-1.233-0.015-1.876-0.03c-0.613-0.024-1.251-0.039-1.894-0.039
		c-2.105,0-4.522,0.174-6.603,1.509c-1.467,0.921-2.232,2.571-2.153,4.628c0.108,2.469,1.33,4.612,2.466,5.253l0.091,0.054
		c1.684,1.137,3.314,1.684,4.973,1.684c5.947,0,10.975-7.319,14.288-12.121l0.048-0.087c0.752-1.245,1.311-2.552,1.865-3.819
		c1.07-2.471,1.888-4.186,3.325-5.454l0.932-0.827l0.974,0.758c1.599,1.238,3.139,2.808,4.78,4.462
		c3.783,3.851,7.704,7.838,12.815,7.838c0.349,0,0.698-0.021,1.04-0.06L533.993,123.377z M503.696,126.149
		c-3.59,4.465-6.489,6.447-9.417,6.447h-0.012c-1.407,0-2.827-0.463-4.173-1.395l-0.355-0.228l-0.138-0.174
		c-0.578-0.656-1.335-2.312-1.197-3.966c0.078-1.076,0.523-1.852,1.287-2.357c1.774-1.112,3.927-1.26,5.792-1.26
		c0.619,0,1.257,0.018,1.906,0.033c0.619,0.009,1.245,0.03,1.876,0.03c1.179,0,2.141-0.057,2.995-0.19l4.463-0.712L503.696,126.149z
		"/>
	<path style="fill:#5B4F3C;" d="M83.247,152.955c-0.111-1.217-0.809-2.264-2.126-3.166c-0.962-0.664-1.882-1.347-2.766-2.003
		l-2.896-2.195l2.517-0.836c-0.264-0.599-0.589-1.14-1.025-1.558c-0.147,0.036-0.288,0.084-0.421,0.135l-1.765,0.559l-0.28-2.048
		c-0.228-1.636-0.123-4.119,0.018-6.744c0.262-4.919,0.544-10.018-1.849-12.442c-0.881-0.896-1.991-1.32-3.401-1.32
		c-0.499,0-1.049,0.057-1.62,0.163c-2.517,0.499-4.225,2.354-4.676,5.091c-0.884,5.313,3.121,14.992,17.319,24.77
		c0.352,0.244,0.649,0.49,0.866,0.74l0.704,0.815l-0.331,1.085c-0.36,1.2-1.636,2.689-4.17,5.383
		c-3.915,4.137-8.717,9.225-8.082,15.969l1.603-0.469c-0.352-5.746,4.017-10.38,7.592-14.162
		C81.146,157.88,83.473,155.409,83.247,152.955z M72.88,135.004c-0.063,1.29-0.132,2.49-0.15,3.653l-0.069,4.532l-2.745-3.304
		c-5.806-6.991-5.572-11.675-5.356-12.945c0.412-2.517,2.06-3.365,3.356-3.614c0.487-0.105,0.929-0.147,1.338-0.147
		c0.98,0,1.753,0.283,2.318,0.851C73.247,125.725,73.169,129.646,72.88,135.004z"/>
	<g>
		<path style="fill:#FFE0BA;" d="M533.993,123.377c-0.211,0.006-0.427,0.006-0.638,0.006c-4.522,0-8.034-3.56-11.775-7.358
			c-2.02-2.048-4.107-4.174-6.332-5.593l-0.367-0.231l-0.372,0.201c-1.666,0.866-2.916,2.159-4.035,4.21l-1.948,3.515l-1.004-4
			c-0.944-3.743-3.169-7.706-5.593-8.016c-4.51-0.571-28.426-5.487-58.705-11.73l-0.198-0.039
			c-80.372-16.565-147.954-30.279-161-30.279c-0.83,0-1.206,0.066-1.368,0.102c-5.526,1.238-52.911,20.016-103.071,39.885
			l-0.084,0.03c-39.407,15.612-83.634,33.144-97.875,38.184c0.352,0.517,0.682,1.049,0.923,1.626
			c4.937-1.722,13.374-4.97,27.197-10.346c19.241-7.49,45.22-17.782,70.381-27.753c47.898-18.979,97.43-38.601,102.851-39.816
			c0.369-0.081,0.836-0.126,1.473-0.126c13.227,0,105.284,18.97,160.29,30.3c30.411,6.276,54.43,11.219,58.951,11.79l0.151,0.006
			l0.12,0.057c1.329,0.415,2.706,2.806,3.5,4.961c0.794,2.231,1.1,4.546,0.775,5.875l-0.198,0.812l-1.004,0.541
			c-1.75,1.1-3.795,1.245-5.749,1.245c-0.613,0-1.233-0.015-1.876-0.03c-0.613-0.024-1.251-0.039-1.894-0.039
			c-2.105,0-4.522,0.174-6.603,1.509c-1.467,0.921-2.232,2.571-2.153,4.628c0.108,2.469,1.33,4.612,2.466,5.253l0.091,0.054
			c1.684,1.137,3.314,1.684,4.973,1.684c5.947,0,10.975-7.319,14.288-12.121l0.048-0.087c0.752-1.245,1.311-2.552,1.865-3.819
			c1.07-2.471,1.888-4.186,3.325-5.454l0.932-0.827l0.974,0.758c1.599,1.238,3.139,2.808,4.78,4.462
			c3.783,3.851,7.704,7.838,12.815,7.838c0.349,0,0.698-0.021,1.04-0.06L533.993,123.377z M503.696,126.149
			c-3.59,4.465-6.489,6.447-9.417,6.447h-0.012c-1.407,0-2.827-0.463-4.173-1.395l-0.355-0.228l-0.138-0.174
			c-0.578-0.656-1.335-2.312-1.197-3.966c0.078-1.076,0.523-1.852,1.287-2.357c1.774-1.112,3.927-1.26,5.792-1.26
			c0.619,0,1.257,0.018,1.906,0.033c0.619,0.009,1.245,0.03,1.876,0.03c1.179,0,2.141-0.057,2.995-0.19l4.463-0.712L503.696,126.149
			z"/>
		<path style="fill:#FFE0BA;" d="M83.247,152.955c-0.111-1.217-0.809-2.264-2.126-3.166c-0.962-0.664-1.882-1.347-2.766-2.003
			l-2.896-2.195l2.517-0.836c-0.264-0.599-0.589-1.14-1.025-1.558c-0.147,0.036-0.288,0.084-0.421,0.135l-1.765,0.559l-0.28-2.048
			c-0.228-1.636-0.123-4.119,0.018-6.744c0.262-4.919,0.544-10.018-1.849-12.442c-0.881-0.896-1.991-1.32-3.401-1.32
			c-0.499,0-1.049,0.057-1.62,0.163c-2.517,0.499-4.225,2.354-4.676,5.091c-0.884,5.313,3.121,14.992,17.319,24.77
			c0.352,0.244,0.649,0.49,0.866,0.74l0.704,0.815l-0.331,1.085c-0.36,1.2-1.636,2.689-4.17,5.383
			c-3.915,4.137-8.717,9.225-8.082,15.969l1.603-0.469c-0.352-5.746,4.017-10.38,7.592-14.162
			C81.146,157.88,83.473,155.409,83.247,152.955z M72.88,135.004c-0.063,1.29-0.132,2.49-0.15,3.653l-0.069,4.532l-2.745-3.304
			c-5.806-6.991-5.572-11.675-5.356-12.945c0.412-2.517,2.06-3.365,3.356-3.614c0.487-0.105,0.929-0.147,1.338-0.147
			c0.98,0,1.753,0.283,2.318,0.851C73.247,125.725,73.169,129.646,72.88,135.004z"/>
	</g>
	<g>
		<g>
			<path style="fill:#6D6E70;" d="M507.275,102.067c-5.154,0.445-9.026,5.551-8.624,11.399c0.391,5.833,4.901,10.214,10.055,9.775
				c5.154-0.463,9.015-5.566,8.617-11.398C516.92,105.994,512.434,101.62,507.275,102.067z M508.441,119.429
				c-3.295,0.286-6.182-2.511-6.434-6.26c-0.252-3.743,2.225-7.018,5.514-7.304c3.314-0.288,6.188,2.526,6.453,6.272
				C514.226,115.872,511.761,119.14,508.441,119.429z"/>
			<path style="fill:#404041;" d="M508.651,122.451c-4.78,0.427-8.942-3.635-9.321-9.044c-0.367-5.41,3.223-10.148,7.998-10.575
				c4.775-0.406,8.954,3.656,9.315,9.063C517.011,117.3,513.426,122.036,508.651,122.451L508.651,122.451z M507.473,105.101
				c-3.656,0.319-6.428,3.963-6.152,8.13c0.283,4.162,3.506,7.28,7.186,6.961c3.662-0.316,6.423-3.963,6.14-8.124
				S511.16,104.783,507.473,105.101L507.473,105.101z"/>
			<path style="fill:#F1F1F2;" d="M499.794,113.764c-0.325-4.898,3.079-9.192,7.619-9.589c4.54-0.4,8.497,3.262,8.828,8.167
				c0.042,0.668,0.006,1.332-0.078,1.969c0.288-1.061,0.427-2.192,0.349-3.355c-0.349-5.115-4.474-8.921-9.201-8.518
				c-4.739,0.421-8.317,4.892-7.962,10.016c0.066,1.163,0.361,2.249,0.788,3.25C499.968,115.078,499.836,114.437,499.794,113.764z"
				/>
			<path style="fill:#F1F1F2;" d="M508.579,121.272c3.145-0.268,5.545-3.262,5.545-6.792c-0.607,2.95-2.838,5.235-5.647,5.487
				c-2.79,0.249-5.31-1.639-6.297-4.444C502.65,119.002,505.422,121.552,508.579,121.272z"/>
		</g>
		<polygon style="fill:#6D6E70;" points="510.486,125.878 507.316,126.158 507.064,122.589 510.227,122.324 		"/>
		<polygon style="fill:#404041;" points="507.731,126.119 510.047,125.915 509.812,122.355 508.712,122.451 507.485,122.559 		"/>
		<polygon style="fill:#F1F1F2;" points="508.164,126.083 508.898,126.02 508.616,121.909 507.479,122 		"/>
	</g>
	<g>
		<path style="fill:#D39445;" d="M296.963,82.49c0,5.264-3.497,9.534-7.812,9.534c-4.312,0-7.803-4.27-7.803-9.534
			c0-5.268,3.491-9.541,7.803-9.541C293.466,72.949,296.963,77.222,296.963,82.49z"/>
		<path style="fill:#853100;" d="M296.259,83.17c0,5.265-3.5,9.529-7.811,9.529c-4.3,0-7.806-4.264-7.806-9.529
			c0-5.268,3.506-9.537,7.806-9.537C292.759,73.632,296.259,77.902,296.259,83.17z"/>
		<path style="fill:#381500;" d="M295.047,83.467c0,4.522-3.033,8.188-6.777,8.188c-3.737,0-6.777-3.665-6.777-8.188
			c0-4.522,3.04-8.187,6.777-8.187C292.014,75.28,295.047,78.945,295.047,83.467z"/>
	</g>
	<g>
		<g>
			<path style="fill:#6D6E70;" d="M286.8,91.354c-1.491,0-2.986-0.553-4.264-1.672c-7.953-7.075-8.151-16.862-8.362-27.218
				c-0.177-8.521-0.364-18.17-4.306-30.086c-1.332-4.038,0.472-8.548,4.041-10.07c3.56-1.515,7.544,0.523,8.888,4.58
				c4.763,14.402,5.009,26.436,5.189,35.212c0.19,9.441,0.482,12.95,3.077,15.257c3.001,2.676,3.527,7.595,1.176,10.993
				C290.874,90.32,288.85,91.354,286.8,91.354L286.8,91.354z"/>
			<path style="fill:#D0D2D3;" d="M289.082,87.43c-0.159-0.716,0.321-2.177-1.275-1.687c-3.289,1.034-9.315-6.324-9.682-13.101
				c-1.955-35.411-3.897-25.152-3.897-24.214c0,0,0.184,17.584,0.637,21.141c1.179,9.294,2.105,16.615,9.784,20.973
				c0.706,0.393,1.398,0.397,1.852,0.349c0.905-0.126,1.708-0.619,2.189-1.359C289.118,88.895,289.256,88.146,289.082,87.43z"/>
			<path style="fill:#404041;" d="M292.251,82.719c0.508,0.315,1.028,0.424,1.443,0.451c-0.096-2.195-0.983-4.342-2.631-5.812
				c-2.595-2.307-2.887-5.816-3.077-15.257c-0.132-6.651-0.315-15.154-2.465-25.146c-1.026-0.833-1.988,2.7-2.012,3.151
				c0,0-0.514,17.599-0.198,21.168C284.114,70.604,284.755,77.98,292.251,82.719z"/>
		</g>
		<g>
			<path style="fill:#404041;" d="M282.798,26.888c-1.344-4.056-5.328-6.095-8.888-4.58c-3.569,1.522-5.373,6.032-4.041,10.07
				c2.207,6.711,3.244,12.703,3.755,18.17c1.44,0.259,2.95,0.445,4.501,0.541c3.217,0.193,6.371-0.063,9.345-0.719
				C286.917,43.552,285.696,35.662,282.798,26.888z"/>
			<linearGradient id="SVGID_2_" gradientUnits="userSpaceOnUse" x1="253.6041" y1="30.0271" x2="305.2768" y2="30.0271">
				<stop  offset="0" style="stop-color:#E5E2DF"/>
				<stop  offset="0" style="stop-color:#DED9D6"/>
				<stop  offset="0.063" style="stop-color:#CFCAC9"/>
				<stop  offset="0.1833" style="stop-color:#A8A4A7"/>
				<stop  offset="0.264" style="stop-color:#8B878D"/>
				<stop  offset="0.5225" style="stop-color:#F3F4F4"/>
				<stop  offset="0.5842" style="stop-color:#E5E5E6"/>
				<stop  offset="0.7027" style="stop-color:#C0BEC0"/>
				<stop  offset="0.8647" style="stop-color:#858085"/>
				<stop  offset="0.8764" style="stop-color:#807B80"/>
				<stop  offset="1" style="stop-color:#D1D3D4"/>
				<stop  offset="1" style="stop-color:#A7A9AC"/>
			</linearGradient>
			<path style="fill:url(#SVGID_2_);" d="M305.277,26.686c0,14.517-13.089,22.089-27.152,21.243
				c-14.09-0.847-24.521-9.014-24.521-18.867c0-9.845,1.72-18.495,24.521-16.784C303.274,14.166,305.277,16.845,305.277,26.686z"/>
			<linearGradient id="SVGID_3_" gradientUnits="userSpaceOnUse" x1="293.3139" y1="49.0136" x2="269.1245" y2="4.0459">
				<stop  offset="0.0056" style="stop-color:#BBBCBE"/>
				<stop  offset="0.2921" style="stop-color:#989CA0"/>
				<stop  offset="0.6517" style="stop-color:#D1D0D3"/>
				<stop  offset="0.727" style="stop-color:#CDCCCF"/>
				<stop  offset="0.8072" style="stop-color:#C0C0C3"/>
				<stop  offset="0.8893" style="stop-color:#ABACB0"/>
				<stop  offset="0.9281" style="stop-color:#9EA0A4"/>
				<stop  offset="1" style="stop-color:#A7A9AC"/>
				<stop  offset="1" style="stop-color:#C3C6CA"/>
			</linearGradient>
			<path style="fill:url(#SVGID_3_);" d="M305.277,23.83c0,9.841-11.42,17.818-25.513,17.818c-14.084,0-25.51-7.977-25.51-17.818
				c0-9.85,11.426-17.83,25.51-17.83C293.857,6,305.277,13.98,305.277,23.83z"/>
			<g>
				<path style="fill:#929497;" d="M269.907,19.807c-6.146,5.917-11.666,10.015-12.31,9.134c-0.658-0.863,3.806-6.365,9.953-12.28
					c6.146-5.923,11.661-10.013,12.319-9.144C280.524,8.384,276.059,13.896,269.907,19.807z"/>
				<path style="fill:#E6E7E8;" d="M268.819,18.184c-6.152,5.914-11.411,10.355-11.736,9.919
					c-0.334-0.442,4.387-5.596,10.542-11.507c6.146-5.936,11.399-10.364,11.736-9.935C279.686,7.112,274.971,12.269,268.819,18.184z
					"/>
			</g>
			<g>
				<path style="fill:#929497;" d="M279.791,24.11c-7.556,7.265-14.207,12.448-14.86,11.579c-0.655-0.86,4.949-7.457,12.503-14.73
					c7.559-7.274,14.204-12.467,14.86-11.586C292.949,10.242,287.353,16.845,279.791,24.11z"/>
				<path style="fill:#E6E7E8;" d="M278.718,22.471c-7.56,7.267-13.949,12.803-14.277,12.364
					c-0.337-0.442,5.524-6.693,13.076-13.964c7.56-7.273,13.958-12.806,14.286-12.376C292.134,8.947,286.276,15.198,278.718,22.471z
					"/>
			</g>
			<g>
				<path style="fill:#929497;" d="M289.509,29.717c-6.783,6.528-12.803,11.098-13.45,10.23c-0.658-0.872,4.312-6.868,11.083-13.381
					c6.777-6.516,12.785-11.086,13.443-10.226C301.241,17.215,296.28,23.202,289.509,29.717z"/>
				<path style="fill:#E6E7E8;" d="M288.414,28.091c-6.766,6.513-12.533,11.438-12.857,10.999
					c-0.337-0.436,4.886-6.08,11.663-12.595c6.777-6.516,12.542-11.444,12.863-11.008C300.411,15.932,295.192,21.569,288.414,28.091
					z"/>
			</g>
			<g>
				<path style="fill:#929497;" d="M283.688,18.586c-10.388-3.139-18.609-6.57-18.341-7.688c0.259-1.092,8.897,0.547,19.282,3.686
					c10.392,3.136,18.609,6.576,18.345,7.686C302.714,23.364,294.073,21.713,283.688,18.586z"/>
				<path style="fill:#E6E7E8;" d="M284.268,16.647c-10.379-3.133-18.699-6.131-18.567-6.699c0.129-0.551,8.662,1.536,19.048,4.681
					c10.392,3.127,18.705,6.119,18.579,6.688C303.196,21.876,294.665,19.789,284.268,16.647z"/>
			</g>
			<g>
				<path style="fill:#929497;" d="M276.33,29.642c-11.08-3.349-19.842-6.955-19.58-8.061c0.262-1.1,9.451,0.713,20.515,4.056
					c11.078,3.338,19.845,6.943,19.58,8.061C296.584,34.787,287.401,32.983,276.33,29.642z"/>
				<path style="fill:#E6E7E8;" d="M276.931,27.703c-11.077-3.344-19.95-6.504-19.821-7.072c0.135-0.544,9.219,1.708,20.281,5.052
					c11.078,3.331,19.951,6.497,19.818,7.056C297.074,33.304,287.993,31.044,276.931,27.703z"/>
			</g>
			<path style="fill:#FFFFFF;" d="M279.764,41.038c-13.66,0-24.822-7.766-25.474-17.521c-0.021,0.307-0.036,0.604-0.036,0.908
				c0,10.178,11.426,18.431,25.51,18.431c14.093,0,25.513-8.254,25.513-18.431c0-0.304-0.006-0.602-0.03-0.908
				C304.585,33.272,293.433,41.038,279.764,41.038z"/>
		</g>
	</g>
	<path style="fill:#B38B4E;" d="M507.064,112.381c0,0,1.618,1.245,2.905,1.419c1.636,0.211,16.171,1.882,20.639,9.123
		c1.732,2.802,1.84,6.139,0.301,9.51c-1.636,3.575-3.879,4.456-5.46,4.549c-5.671,0.385-9.748-7.06-14.77-15.44
		c-0.457-0.781-1.539-3.632-1.84-4.11l-1.774-4.781V112.381z M526.999,128.669c0.228-0.962,0.108-1.759-0.385-2.577
		c-1.696-2.745-6.856-4.724-11.636-5.839c4.793,7.583,8.22,11.35,10.193,11.215c0.469-0.027,0.945-0.565,1.413-1.582
		C526.777,129.457,526.915,129.051,526.999,128.669L526.999,128.669z"/>
	<path style="fill:#FFE0BA;" d="M525.442,134.099c-5.226,0.352-11.637-10.35-15.082-16.096c-0.493-0.802-0.89-1.476-1.191-1.969
		l-1.1-2.324l3.296,1.163c5.671,0.584,14.697,2.706,17.992,8.055c1.371,2.231,1.45,4.865,0.193,7.601
		c-0.992,2.18-2.322,3.359-3.945,3.542L525.442,134.099z M513.739,120.283c6.819,10.785,9.694,12.099,11.6,11.976l0.102-0.006
		c1.557-0.187,2.381-1.982,2.658-2.577c0.259-0.55,0.439-1.079,0.554-1.578c0.355-1.506,0.15-2.851-0.637-4.122
		c-2.147-3.5-8.058-5.506-12.635-6.576l-4.071-0.953L513.739,120.283z"/>
	<g>
		<path style="fill:#B38B4E;" d="M502.524,112.08c0.68-1.701,1.702-3.287,2.929-4.588c-1.04-1.193-2.231-2.006-3.524-2.183
			c-0.878-0.105-2.495-0.379-4.756-0.797v5.608c1.955,0.355,3.373,0.592,4.173,0.688C501.573,110.881,502.006,111.31,502.524,112.08
			z"/>
		<path style="fill:#5B4F3C;" d="M501.844,107.946l0.12,0.057c0.626,0.196,1.239,0.818,1.816,1.63
			c0.319-0.506,0.68-0.98,1.041-1.434c-0.884-1.155-1.871-1.958-2.893-2.087c-0.884-0.111-2.501-0.385-4.756-0.809v1.876
			c2.135,0.391,3.674,0.65,4.522,0.761L501.844,107.946z"/>
		<g>
			<path style="fill:#FFE0BA;" d="M501.844,107.946l0.12,0.057c0.626,0.196,1.239,0.818,1.816,1.63
				c0.319-0.506,0.68-0.98,1.041-1.434c-0.884-1.155-1.871-1.958-2.893-2.087c-0.884-0.111-2.501-0.385-4.756-0.809v1.876
				c2.135,0.391,3.674,0.65,4.522,0.761L501.844,107.946z"/>
		</g>
	</g>
	<path style="fill:#B38B4E;" d="M72.591,147.927v-0.544h-0.812v-0.613h-1.218c-0.387,0.289-0.86,0.643-1.404,1.041
		c-1.004,0.736-2.009,1.485-3.007,2.249c0.129,1.016,1.996,4.122,2.745,4.585c-1.359,6.784-3.839,13.609-6.861,13.609
		c-0.559,0-1.197-0.219-1.894-0.65c-0.894-0.562-1.35-1.107-1.362-1.639c-0.07-1.939,2.471-5.037,7.538-9.249
		c0,0-1.26-1.248-1.813-2.027c-0.818-1.167-1.212-2.358-1.212-2.358c-5.256,4.357-9.547,9.096-9.396,13.829
		c0.054,1.807,0.779,4.351,3.906,6.29c1.422,0.881,2.851,1.338,4.234,1.338c9.688,0,12.238-20.555,12.655-24.664l0.121-1.197H72.591
		z"/>
	<path style="fill:#FFE0BA;" d="M71.779,147.383v-0.228c-0.388,0.301-0.878,0.661-1.464,1.086l-0.105,0.075
		c-1.076,0.8-2.357,1.738-3.698,2.785c0.228,0.493,0.541,1.067,0.863,1.596c0.256-0.204,0.508-0.406,0.772-0.604l3.431-2.661
		l-0.917,4.591c-1.14,5.617-3.744,15.037-8.452,15.037c-0.836,0-1.732-0.295-2.679-0.878c-0.532-0.334-2.159-1.341-2.213-3.184
		c-0.067-1.882,0.866-4.561,7.348-10.094c-0.051-0.066-0.108-0.153-0.162-0.213c-0.325-0.478-0.584-0.935-0.776-1.332
		c-4.203,3.572-8.164,7.872-8.044,11.711c0.072,1.906,1.092,3.506,3.067,4.733c1.179,0.716,2.342,1.1,3.458,1.1
		c8.425,0,10.767-20.435,11.029-22.975h-0.647v-0.544H71.779z"/>
</g>
</svg>
