<svg xmlns="http://www.w3.org/2000/svg" viewBox="0 0 575.333 375.333"><linearGradient id="a" gradientUnits="userSpaceOnUse" x1="251.1" y1="82.253" x2="332.446" y2="82.253"><stop offset="0" stop-color="#CF8D5D"/><stop offset=".489" stop-color="#AD6830"/><stop offset="1" stop-color="#6E3F12"/></linearGradient><path fill="url(#a)" d="M251.1 67.035h81.347V97.47H251.1z"/><path d="M71.208 137.64c-5.157.446-9.008 5.55-8.614 11.397.394 5.836 4.892 10.217 10.05 9.77 5.153-.455 9.014-5.557 8.62-11.394-.398-5.84-4.9-10.22-10.056-9.772zm1.17 17.368c-3.293.28-6.176-2.517-6.435-6.27-.256-3.734 2.222-7.014 5.53-7.303 3.293-.273 6.182 2.532 6.43 6.266.257 3.747-2.218 7.016-5.525 7.31z" fill="#6D6E70"/><path d="M72.588 158.036c-4.775.415-8.945-3.647-9.312-9.068-.373-5.41 3.21-10.14 7.983-10.566 4.78-.4 8.95 3.663 9.32 9.07.36 5.408-3.222 10.144-7.994 10.564zm-1.176-17.355c-3.665.31-6.43 3.96-6.152 8.118.29 4.168 3.51 7.298 7.18 6.97 3.668-.304 6.423-3.966 6.146-8.125-.282-4.16-3.5-7.284-7.174-6.96z" fill="#404041"/><path d="M63.733 149.34c-.325-4.894 3.08-9.197 7.625-9.58 4.535-.408 8.48 3.255 8.813 8.153.045.66.015 1.326-.072 1.966.294-1.058.43-2.18.352-3.35-.353-5.12-4.47-8.93-9.214-8.52-4.74.412-8.298 4.895-7.956 10.015.074 1.16.363 2.246.8 3.25-.182-.628-.296-1.27-.347-1.936zm8.774 7.512c3.157-.276 5.547-3.262 5.55-6.792-.61 2.932-2.838 5.24-5.63 5.48-2.807.24-5.317-1.643-6.307-4.44.476 3.476 3.23 6.026 6.387 5.752z" fill="#F1F1F2"/><path fill="#6D6E70" d="M74.81 167.262l-3.17.282-.634-9.366 3.167-.292"/><path fill="#404041" d="M74.386 167.3l-2.318.205-.637-9.366 2.324-.214"/><path fill="#F1F1F2" d="M73.186 166.84l-.44-1.365-1.328-7.902 1.137-.093"/><path fill="#E8B800" d="M46.705 368.853L33.328 175.78l4.047-8.42 500.575-43.89"/><path fill="#BA8A00" d="M555.45 318.135l-4.342 7.24-504.403 43.478 3.83-6.825-13.16-194.667 504.905-43.89"/><path fill="#FFCB05" d="M555.45 318.135L50.535 362.028 37.375 167.36l504.905-43.89"/><path fill="#FFCB05" d="M555.45 318.135L50.535 362.028 37.375 167.36l504.905-43.89"/><path d="M37.375 167.36l3.64 53.86 43.86-57.987-47.5 4.128zm109.385-9.507L45.767 291.368l4.285 63.407L202.69 152.99l-55.93 4.863zm117.8-10.238l-158.548 209.59 55.924-4.865L320.48 142.756l-55.92 4.86zm250.79 174.008l37.003-48.95-4.275-63.39-88.66 117.2 55.933-4.86zM382.36 137.376L223.815 346.964l55.927-4.853 158.53-209.59-55.914 4.858zm117.794-10.238L341.61 336.716l55.92-4.847 145.807-192.725-1.058-15.678-42.128 3.668z" fill="#231F20"/><path fill="#231F20" d="M78.65 324.863l-8.498-125.63 444.014-38.605 8.49 125.64"/><path fill="#FFCB05" d="M81.05 321.797l-7.812-115.65 435.18-37.824 7.823 115.642"/><path d="M270.62 198.776l-7.835.68 1.455 21.517-13.53-20.476-10.218.896 2.54 37.556 7.833-.69-1.747-25.767 15.8 24.547 8.237-.71-2.535-37.555zm39.552 24.938c1.22-2.886 1.714-6.085 1.48-9.58-.247-3.632-1.125-6.74-2.605-9.302-1.498-2.562-3.452-4.528-5.84-5.917-1.39-.83-3.085-1.407-5.082-1.75-1.993-.337-4.34-.397-7.048-.162l-12.006 1.04 2.538 37.543 11.693-.998c2.637-.24 4.898-.644 6.796-1.25 1.903-.614 3.623-1.534 5.157-2.78 2.063-1.678 3.705-3.945 4.92-6.844zm-8.028-2.525c-.62 1.753-1.66 3.21-3.154 4.36-.863.63-1.768 1.086-2.703 1.38-.923.283-2.408.523-4.447.7l-2.165.18-1.582-23.51 2.156-.173c1.84-.164 3.215-.194 4.135-.103.938.102 1.85.355 2.758.764 1.786.842 3.136 2.11 4.05 3.8.914 1.685 1.45 3.754 1.618 6.23.167 2.5-.05 4.624-.67 6.368zm-69.634-19.11l-8.595.752 1.584 23.435c.18 2.705-.176 4.72-1.088 6.03-.9 1.306-2.423 2.07-4.552 2.244-2.164.194-3.776-.317-4.822-1.502-1.053-1.19-1.667-3.09-1.85-5.706l-1.576-23.44-8.587.763 1.62 23.988c.313 4.625 1.79 8.07 4.448 10.302 2.65 2.255 6.402 3.193 11.25 2.772 4.852-.42 8.44-1.99 10.76-4.68 2.325-2.67 3.338-6.356 3.02-10.993l-1.616-23.965zm125.62 13.008l3.95-.336 9.954 12.977 10.44-.9-12.16-15.13c2.038-1.336 3.56-2.936 4.57-4.788 1.016-1.852 1.437-4.155 1.245-6.933-.128-2.017-.61-3.66-1.43-4.933-.84-1.28-1.897-2.274-3.197-3.013-1.293-.733-2.64-1.172-4.065-1.3-1.45-.12-3.14-.1-5.095.055l-14.312 1.25 2.533 37.555 8.497-.746-.932-13.76zM357 198.224l3.085-.276c1.016-.084 1.912-.132 2.7-.145.77 0 1.456.102 2.057.32.854.324 1.474.793 1.858 1.43.397.65.62 1.443.673 2.376.078 1.062-.006 1.93-.234 2.57-.238.663-.616 1.277-1.188 1.843-.59.583-1.33 1.022-2.237 1.238-.92.236-2.05.41-3.41.53l-2.64.223-.667-10.11zm-14.084 24.734l-15.492 1.36-.607-9.292 14.35-1.233-.482-7.27-14.36 1.232-.44-6.476 15.468-1.337-.487-7.27-23.97 2.074 2.55 37.556 23.945-2.075-.472-7.27zm-118.427 50.25c-1.32-.35-2.555-.62-3.695-.788-1.13-.17-2.318-.35-3.55-.524-1.893-.295-3.183-.662-3.883-1.125-.707-.484-1.09-1.205-1.158-2.2-.045-.66.12-1.26.502-1.81.38-.56.854-.96 1.413-1.273.635-.35 1.296-.613 1.994-.794.703-.18 1.4-.282 2.107-.348 2.028-.174 4.028.066 6.024.71 1.987.637 3.69 1.52 5.11 2.61l.913-.074-.586-8.664c-1.607-.577-3.496-1.028-5.652-1.317-2.164-.3-4.33-.356-6.515-.15-4.348.377-7.83 1.796-10.437 4.24-2.63 2.452-3.814 5.43-3.576 8.917.174 2.61.932 4.745 2.276 6.386 1.347 1.653 3.446 2.875 6.3 3.662 1.248.337 2.576.6 3.978.764 1.41.186 2.745.384 4.014.6 1.212.23 2.147.614 2.806 1.15.65.54 1.004 1.232 1.06 2.056.062.896-.11 1.575-.5 2.068-.39.494-.9.927-1.527 1.294-.52.276-1.197.493-2.04.668-.835.174-1.52.29-2.037.33-2.015.18-4.147-.077-6.396-.727-2.24-.68-4.306-1.74-6.173-3.194l-.934.09.603 9.015c1.843.68 3.797 1.21 5.877 1.58 2.07.37 4.485.435 7.22.2 4.75-.42 8.435-1.906 11.04-4.45 2.61-2.556 3.793-5.69 3.538-9.375-.175-2.585-.92-4.648-2.235-6.157-1.324-1.532-3.288-2.645-5.886-3.366zm-108.545-6.014c-.972-.193-2.018-.35-3.152-.42-1.13-.08-2.4-.06-3.785.053-2.53.223-4.82.884-6.895 1.96-2.063 1.108-3.762 2.545-5.082 4.343-1.38 1.863-2.383 4.04-3.012 6.523-.612 2.478-.826 5.22-.627 8.21.217 3.18.82 5.96 1.805 8.34.99 2.352 2.282 4.3 3.903 5.803 1.6 1.485 3.476 2.568 5.614 3.194 2.144.65 4.453.866 6.91.65 1.654-.14 2.953-.343 3.894-.608.938-.27 1.934-.63 3-1.07.807-.35 1.577-.746 2.31-1.18.734-.432 1.5-.89 2.306-1.388l-.61-8.972-.893.072c-.37.427-.85.944-1.436 1.563-.586.607-1.224 1.18-1.924 1.732-.81.68-1.72 1.242-2.714 1.675-.99.445-2.006.703-3.05.794-1.072.11-2.188-.006-3.33-.307-1.134-.295-2.19-.872-3.154-1.708-.952-.836-1.77-2.02-2.47-3.536-.693-1.52-1.117-3.465-1.273-5.82-.16-2.24-.008-4.175.416-5.793.44-1.636 1.065-2.97 1.873-3.993.85-1.076 1.806-1.864 2.862-2.38 1.05-.524 2.178-.85 3.377-.95 1.09-.097 2.113.01 3.08.294.977.287 1.894.653 2.745 1.116.836.463 1.588.956 2.252 1.456.67.487 1.23.92 1.672 1.28l.98-.09-.614-9.11c-.635-.27-1.368-.578-2.204-.903-.837-.32-1.76-.603-2.773-.838zm26.16-3.277c-5.323.457-9.38 2.573-12.164 6.332-2.795 3.762-3.983 8.67-3.574 14.7.406 5.99 2.237 10.616 5.506 13.9 3.26 3.234 7.553 4.635 12.88 4.173 5.34-.463 9.403-2.586 12.196-6.363 2.777-3.795 3.97-8.69 3.57-14.655-.408-6.05-2.254-10.687-5.53-13.94-3.278-3.235-7.57-4.618-12.885-4.148zm9.305 24.36c-.293 1.595-.823 2.99-1.57 4.204-.675 1.07-1.496 1.908-2.455 2.456-.96.577-1.996.902-3.09.992-1.105.096-2.163-.048-3.182-.427-1.025-.385-1.945-1.04-2.754-1.96-.808-.94-1.49-2.166-2.05-3.706-.56-1.527-.917-3.415-1.068-5.64-.153-2.19-.036-4.144.307-5.816.352-1.708.88-3.06 1.555-4.07.736-1.077 1.56-1.877 2.487-2.4.932-.524 1.934-.83 3.013-.915 1.067-.102 2.12.036 3.14.403 1.016.385 1.926 1.035 2.75 1.972.815.914 1.498 2.14 2.068 3.68.562 1.552.92 3.43 1.076 5.696.14 2.094.06 3.952-.23 5.534zm38.103-6.06l-13.54-20.465-10.208.873 2.54 37.56 7.83-.678-1.743-25.775 15.81 24.56 8.23-.722-2.542-37.56-7.832.69 1.456 21.517zm44.384-18.198l10.34-.898 2.056 30.303 8.537-.752-2.044-30.29 10.337-.903-.484-7.276-29.24 2.544.496 7.27zm136.675-11.88l10.35-.9 2.056 30.303 8.533-.752-2.04-30.29 10.334-.89-.493-7.28-29.23 2.543.492 7.27zm73.835-14.51c-5.316.464-9.38 2.58-12.16 6.34-2.802 3.776-3.987 8.683-3.578 14.715.4 5.983 2.235 10.602 5.495 13.873 3.272 3.246 7.565 4.66 12.894 4.19 5.34-.45 9.405-2.59 12.177-6.38 2.79-3.795 3.98-8.67 3.578-14.66-.403-6.027-2.237-10.675-5.52-13.923-3.284-3.24-7.584-4.606-12.888-4.155zm9.297 24.374c-.29 1.594-.806 2.995-1.564 4.198-.673 1.083-1.497 1.9-2.453 2.46-.962.57-1.984.902-3.09.998-1.1.08-2.154-.047-3.182-.444-1.028-.38-1.943-1.028-2.754-1.948-.802-.938-1.482-2.165-2.054-3.71-.553-1.522-.908-3.41-1.07-5.635-.14-2.19-.024-4.137.33-5.827.344-1.7.855-3.055 1.534-4.053.74-1.088 1.575-1.888 2.5-2.405.927-.517 1.937-.83 3.02-.92 1.065-.102 2.105.042 3.12.41 1.017.36 1.93 1.027 2.767 1.965.8.914 1.49 2.135 2.057 3.68.577 1.547.926 3.435 1.082 5.69.14 2.097.055 3.955-.24 5.543zm36.653-27.585l1.456 21.51-13.537-20.45-10.2.876 2.526 37.567 7.836-.692-1.745-25.77 15.81 24.556 8.233-.71-2.544-37.566-7.836.68zm-86.945 14.246l5.442-.463 1.63 24.235-5.43.48.45 6.65 19.4-1.684-.45-6.65-5.432.468-1.63-24.24 5.42-.476-.44-6.657-19.4 1.696.44 6.64zM294.65 268.63c1.017-1.858 1.42-4.162 1.23-6.934-.125-2.02-.607-3.662-1.436-4.925-.824-1.28-1.876-2.276-3.18-3.022-1.294-.728-2.65-1.167-4.08-1.293-1.43-.126-3.12-.096-5.08.066l-14.32 1.245 2.537 37.56 8.507-.745-.935-13.767 3.964-.343 9.94 12.984 10.43-.908-12.13-15.13c2.014-1.346 3.54-2.94 4.558-4.786zm-7.75-2.41c-.24.654-.635 1.268-1.19 1.845-.585.595-1.337.992-2.248 1.233-.9.235-2.036.397-3.413.53l-2.62.227-.682-10.11 3.096-.282c1.01-.084 1.912-.138 2.688-.138.776 0 1.455.102 2.065.313.85.312 1.463.8 1.86 1.443.38.65.614 1.44.675 2.38.067 1.07 0 1.905-.237 2.56zm75.41-20.43c-.974-.228-2.027-.36-3.15-.433-1.132-.078-2.377-.066-3.79.066-2.52.21-4.81.872-6.874 1.948-2.08 1.11-3.77 2.547-5.106 4.345-1.377 1.858-2.387 4.035-3 6.525-.62 2.482-.85 5.22-.62 8.195.2 3.187.812 5.984 1.792 8.34.998 2.37 2.298 4.313 3.897 5.804 1.61 1.51 3.48 2.58 5.62 3.21 2.14.642 4.443.86 6.9.642 1.66-.132 2.96-.35 3.894-.602.944-.282 1.936-.636 3-1.087.82-.33 1.59-.734 2.328-1.167.722-.433 1.49-.902 2.297-1.39l-.613-8.977-.89.07c-.38.447-.86.97-1.443 1.57-.577.61-1.214 1.186-1.912 1.727-.83.68-1.726 1.25-2.712 1.684-1.002.45-2.013.71-3.053.795-1.083.102-2.2-.006-3.332-.307-1.136-.29-2.2-.867-3.163-1.715-.955-.83-1.767-2.008-2.458-3.53-.704-1.528-1.113-3.47-1.3-5.815-.125-2.243 0-4.192.446-5.81.433-1.617 1.052-2.946 1.864-3.986.854-1.064 1.816-1.858 2.868-2.38 1.047-.524 2.183-.837 3.368-.94 1.083-.096 2.117 0 3.097.27.962.296 1.882.675 2.737 1.144.83.457 1.594.95 2.26 1.437.656.487 1.204.932 1.654 1.293l.98-.072-.613-9.117c-.63-.284-1.365-.596-2.183-.915-.854-.318-1.774-.588-2.79-.823zm-36.876 26.526c.187 2.718-.193 4.733-1.083 6.056-.905 1.3-2.42 2.045-4.55 2.23-2.164.188-3.782-.324-4.83-1.508-1.05-1.19-1.664-3.09-1.84-5.707l-1.58-23.424-8.593.734 1.624 23.995c.313 4.636 1.79 8.07 4.45 10.313 2.646 2.267 6.4 3.18 11.246 2.772 4.853-.44 8.45-1.985 10.752-4.673 2.333-2.688 3.33-6.357 3.03-11.005l-1.635-23.956-8.582.74 1.595 23.43z" fill="#FFF"/><path d="M270.68 199.702l-7.827.692 1.447 21.51-13.537-20.463-10.205.9 2.538 37.542 7.83-.667-1.738-25.786 15.8 24.553 8.23-.715-2.538-37.562zm39.552 24.95c1.227-2.89 1.714-6.085 1.48-9.573-.253-3.65-1.107-6.744-2.61-9.306-1.498-2.574-3.434-4.553-5.827-5.924-1.402-.822-3.097-1.406-5.09-1.76-1.983-.33-4.337-.386-7.034-.175l-12.01 1.064 2.53 37.55 11.69-1.02c2.64-.222 4.9-.637 6.808-1.244 1.9-.595 3.62-1.527 5.166-2.784 2.043-1.678 3.68-3.945 4.9-6.83zm-8.03-2.53c-.612 1.76-1.66 3.198-3.147 4.347-.872.634-1.765 1.1-2.71 1.392-.93.294-2.414.535-4.443.703l-2.162.18-1.587-23.5 2.174-.193c1.825-.163 3.208-.174 4.128-.097.923.097 1.838.36 2.754.758 1.78.86 3.13 2.11 4.04 3.812.927 1.684 1.46 3.765 1.625 6.236.17 2.486-.066 4.61-.674 6.36zm-69.633-19.09l-8.596.735 1.588 23.435c.177 2.712-.177 4.72-1.08 6.026-.9 1.317-2.416 2.062-4.554 2.255-2.166.187-3.78-.307-4.833-1.515-1.05-1.18-1.666-3.085-1.837-5.69l-1.59-23.447-8.582.75 1.624 23.987c.3 4.642 1.798 8.07 4.44 10.326 2.66 2.262 6.405 3.176 11.258 2.76 4.847-.42 8.44-1.983 10.76-4.67 2.33-2.69 3.33-6.346 3.02-10.994l-1.62-23.954zm125.613 13.01l3.963-.356 9.946 12.983 10.44-.91-12.148-15.12c2.027-1.36 3.548-2.94 4.558-4.792 1.023-1.86 1.45-4.163 1.25-6.935-.13-2.015-.618-3.662-1.43-4.943-.843-1.257-1.913-2.267-3.194-3.007-1.294-.728-2.66-1.155-4.078-1.293-1.43-.12-3.127-.114-5.094.072l-14.32 1.24 2.55 37.554 8.504-.747-.95-13.75zm-1.13-16.882l3.096-.276c1.01-.09 1.912-.132 2.694-.132.77-.024 1.455.084 2.068.3.842.32 1.467.8 1.858 1.438.387.637.603 1.43.676 2.375.078 1.07-.006 1.924-.235 2.574-.24.652-.635 1.26-1.195 1.843-.583.583-1.33.998-2.25 1.227-.907.236-2.032.41-3.403.524l-2.62.24-.685-10.115zM342.97 223.9l-15.468 1.336-.63-9.285 14.36-1.23-.488-7.27-14.36 1.25-.433-6.477 15.458-1.352-.47-7.27-23.97 2.087 2.533 37.56 23.964-2.086-.493-7.256zm-118.414 50.245c-1.32-.367-2.55-.637-3.69-.794-1.14-.17-2.33-.34-3.557-.526-1.894-.283-3.187-.656-3.89-1.12-.705-.468-1.087-1.208-1.16-2.2-.04-.656.12-1.25.51-1.792.385-.564.85-.986 1.416-1.286.628-.355 1.293-.626 1.98-.8.708-.168 1.415-.29 2.122-.355 2.02-.17 4.02.066 6.014.733 1.988.627 3.695 1.505 5.115 2.593l.907-.072-.587-8.658c-1.6-.59-3.487-1.023-5.65-1.317-2.157-.296-4.322-.35-6.508-.15-4.35.366-7.833 1.785-10.447 4.226-2.618 2.466-3.81 5.436-3.572 8.93.187 2.61.94 4.745 2.28 6.393 1.344 1.652 3.443 2.874 6.3 3.643 1.247.348 2.57.6 3.983.78 1.41.175 2.745.385 4.017.602 1.206.222 2.134.595 2.79 1.148.652.547 1.013 1.227 1.064 2.044.06.89-.105 1.576-.496 2.07-.383.486-.903.93-1.537 1.28-.51.29-1.19.51-2.03.68-.84.186-1.52.288-2.032.33-2.024.18-4.156-.066-6.405-.734-2.243-.668-4.297-1.72-6.173-3.17l-.935.085.604 9.003c1.84.693 3.8 1.22 5.882 1.58 2.065.38 4.48.447 7.222.194 4.745-.413 8.428-1.875 11.038-4.443 2.6-2.543 3.788-5.682 3.54-9.38-.175-2.593-.92-4.63-2.24-6.153-1.315-1.506-3.276-2.63-5.876-3.358zm-108.553-6.008c-.965-.204-2.014-.36-3.145-.427-1.134-.066-2.402-.066-3.788.054-2.523.216-4.82.884-6.89 1.972-2.064 1.1-3.76 2.538-5.092 4.342-1.374 1.846-2.373 4.03-3 6.513-.62 2.486-.83 5.23-.627 8.205.214 3.187.82 5.978 1.807 8.335.977 2.362 2.288 4.31 3.89 5.802 1.613 1.492 3.483 2.575 5.63 3.212 2.137.644 4.438.854 6.906.644 1.655-.145 2.957-.343 3.89-.62.934-.265 1.935-.613 3-1.07.803-.337 1.578-.722 2.312-1.173.727-.433 1.495-.89 2.306-1.39l-.615-8.977-.887.084c-.373.44-.853.95-1.44 1.564-.587.608-1.227 1.185-1.92 1.732-.82.66-1.727 1.238-2.722 1.672-.993.45-2.003.71-3.04.794-1.086.096-2.195-.012-3.34-.3-1.137-.302-2.187-.88-3.15-1.715-.952-.826-1.773-2.01-2.468-3.53-.692-1.536-1.12-3.47-1.28-5.818-.154-2.248-.016-4.185.42-5.814.433-1.613 1.06-2.954 1.873-3.98.854-1.066 1.808-1.866 2.863-2.39 1.05-.534 2.177-.823 3.38-.937 1.085-.1 2.11.007 3.078.284.984.288 1.896.655 2.75 1.118.835.476 1.587.963 2.257 1.45.66.494 1.218.927 1.663 1.294l.982-.09-.62-9.093c-.636-.293-1.367-.594-2.2-.907-.834-.343-1.76-.6-2.777-.836zm26.16-3.29c-5.316.458-9.376 2.58-12.156 6.345-2.796 3.76-3.99 8.672-3.578 14.697.4 5.993 2.24 10.62 5.502 13.87 3.26 3.26 7.563 4.655 12.88 4.198 5.338-.47 9.404-2.6 12.197-6.38 2.785-3.766 3.98-8.66 3.58-14.656-.417-6.044-2.26-10.674-5.544-13.91-3.272-3.253-7.562-4.636-12.884-4.168zm9.312 24.356c-.292 1.612-.824 3.007-1.58 4.222-.672 1.064-1.487 1.906-2.446 2.453-.965.57-1.997.908-3.09.992-1.105.097-2.16-.042-3.188-.427-1.016-.39-1.942-1.04-2.754-1.98-.81-.92-1.49-2.152-2.05-3.685-.56-1.54-.916-3.422-1.07-5.653-.138-2.195-.036-4.13.316-5.827.35-1.69.866-3.05 1.546-4.047.74-1.086 1.567-1.88 2.498-2.4.927-.514 1.925-.833 3.014-.923 1.06-.102 2.11.036 3.13.41 1.02.373 1.93 1.028 2.757 1.972.813.913 1.492 2.133 2.064 3.667.565 1.545.92 3.445 1.076 5.713.137 2.092.07 3.932-.224 5.514zm38.11-6.062l-13.547-20.46-10.21.895 2.542 37.55 7.833-.68-1.74-25.77 15.797 24.548 8.233-.72-2.543-37.557-7.824.692 1.458 21.506zm44.376-18.182l10.35-.908 2.044 30.296 8.548-.74-2.053-30.297 10.35-.88-.497-7.295-29.23 2.55.492 7.27zm136.674-11.87l10.362-.91 2.038 30.292 8.545-.74-2.05-30.298 10.342-.895-.5-7.276-29.224 2.56.487 7.267zm73.83-14.518c-5.322.444-9.363 2.572-12.16 6.337-2.796 3.776-3.97 8.677-3.572 14.71.416 5.99 2.238 10.62 5.504 13.873 3.253 3.258 7.56 4.653 12.88 4.196 5.34-.47 9.406-2.598 12.202-6.38 2.778-3.79 3.975-8.66 3.572-14.66-.42-6.033-2.255-10.67-5.52-13.904-3.283-3.26-7.577-4.637-12.905-4.174zm9.32 24.372c-.3 1.59-.817 2.983-1.58 4.204-.68 1.076-1.492 1.894-2.454 2.466-.957.553-1.99.884-3.08.98-1.107.097-2.17-.042-3.194-.438-1.022-.373-1.948-1.023-2.754-1.96-.805-.92-1.49-2.16-2.05-3.706-.547-1.52-.908-3.404-1.065-5.64-.144-2.19-.036-4.14.313-5.828.355-1.69.878-3.03 1.546-4.053.74-1.083 1.564-1.876 2.49-2.405.932-.517 1.942-.824 3.03-.914 1.06-.09 2.1.042 3.122.415 1.016.367 1.93 1.03 2.76 1.98.812.895 1.498 2.122 2.063 3.662.56 1.545.927 3.434 1.07 5.7.158 2.1.068 3.94-.215 5.54zm36.642-27.583l1.45 21.503-13.53-20.465-10.212.89 2.532 37.56 7.842-.686-1.744-25.762 15.816 24.543 8.232-.716-2.56-37.56-7.826.69zm-86.945 14.25l5.425-.47 1.642 24.24-5.43.475.457 6.664 19.394-1.697-.44-6.657-5.43.47-1.64-24.236 5.43-.467-.458-6.67-19.396 1.678.444 6.67zm-108.77 19.957c1.018-1.846 1.423-4.16 1.24-6.946-.14-2.013-.62-3.643-1.443-4.912-.824-1.29-1.885-2.287-3.19-3.015-1.284-.74-2.637-1.18-4.062-1.287-1.437-.14-3.118-.14-5.088.047l-14.322 1.24 2.538 37.56 8.494-.733-.92-13.777 3.95-.33 9.947 12.97 10.44-.89-12.156-15.14c2.036-1.343 3.557-2.937 4.573-4.79zm-7.75-2.423c-.232.674-.63 1.293-1.176 1.846-.595.597-1.344 1.006-2.25 1.247-.913.24-2.047.403-3.412.535l-2.623.224-.686-10.11 3.086-.276c1.028-.078 1.933-.15 2.71-.15.772 0 1.457.107 2.044.324.866.318 1.48.78 1.87 1.43.385.645.616 1.444.676 2.376.072 1.065-.006 1.92-.237 2.557zm75.417-20.435c-.974-.2-2.02-.33-3.163-.416-1.13-.066-2.382-.054-3.777.048-2.526.217-4.823.902-6.892 1.98-2.068 1.1-3.758 2.537-5.082 4.33-1.377 1.857-2.38 4.022-3 6.518-.638 2.486-.837 5.24-.638 8.198.21 3.2.818 5.984 1.816 8.347.97 2.363 2.268 4.312 3.886 5.797 1.612 1.504 3.476 2.575 5.605 3.212 2.16.65 4.463.86 6.923.65 1.66-.145 2.964-.343 3.89-.614.945-.27 1.943-.63 3.002-1.07.8-.337 1.582-.728 2.315-1.167.74-.432 1.496-.9 2.29-1.388l-.596-8.984-.896.08c-.368.433-.85.95-1.438 1.55-.584.62-1.22 1.19-1.918 1.75-.818.68-1.726 1.228-2.724 1.66-.987.464-1.996.717-3.043.82-1.083.077-2.19-.03-3.325-.32-1.137-.307-2.2-.872-3.15-1.72-.975-.82-1.787-2.003-2.48-3.53-.69-1.53-1.117-3.46-1.28-5.827-.144-2.232-.012-4.17.44-5.798.42-1.618 1.045-2.947 1.85-3.98.855-1.077 1.805-1.866 2.87-2.395 1.058-.524 2.176-.83 3.373-.927 1.088-.1 2.123 0 3.09.272.98.283 1.895.66 2.738 1.13.83.476 1.59.95 2.257 1.444.668.504 1.22.93 1.666 1.303l.986-.09-.63-9.11c-.628-.29-1.355-.595-2.19-.908-.838-.324-1.77-.6-2.775-.842zM325.5 273.254c.175 2.712-.186 4.72-1.076 6.043-.908 1.317-2.423 2.05-4.576 2.243-2.16.2-3.76-.316-4.817-1.506-1.04-1.197-1.66-3.09-1.825-5.707l-1.594-23.423-8.593.746 1.623 23.98c.31 4.63 1.802 8.065 4.45 10.314 2.644 2.267 6.402 3.18 11.255 2.748 4.847-.414 8.425-1.965 10.76-4.654 2.314-2.688 3.324-6.35 3.006-10.993l-1.616-23.953-8.587.746 1.593 23.42z" fill="#231F20"/><path d="M290.09 273.417l.492.62c1.807-1.263 3.19-2.76 4.128-4.468 1.017-1.85 1.422-4.164 1.24-6.95-.013-.1-.028-.19-.034-.3.08 2.49-.328 4.606-1.265 6.308-1.014 1.845-2.54 3.44-4.56 4.786zm23.04-.012l-.288-4.276.29 4.255v.018zm-33.234-12.797c1.028-.078 1.933-.15 2.71-.15.772 0 1.457.107 2.044.324.866.318 1.48.78 1.87 1.43.337.548.544 1.216.634 1.99l-.018-.546c-.06-.944-.295-1.744-.674-2.376-.397-.643-1.01-1.13-1.862-1.443-.61-.21-1.29-.313-2.065-.313-.776 0-1.678.054-2.688.138l-3.097.283.06.938 3.086-.275zm13.465-25.095c2.64-.223 4.9-.638 6.808-1.245 1.9-.595 3.62-1.527 5.166-2.784 2.044-1.678 3.68-3.945 4.9-6.832 1.228-2.892 1.715-6.086 1.48-9.574-.017-.168-.03-.325-.035-.48.162 3.306-.33 6.35-1.504 9.11-1.215 2.904-2.857 5.17-4.9 6.837-1.553 1.245-3.273 2.177-5.176 2.785-1.9.613-4.16 1.016-6.797 1.257l-11.693.998-2.47-36.605 2.532 37.55 11.69-1.017zm48.048-34.644l-.054-.93-15.48 1.336.08.944 15.454-1.352zm-.24 12.89l-14.35 1.257.608 9.278-.553-8.347 14.36-1.233-.064-.956zm-151.653 68.45l-1.39-20.575 1.39 20.573zm-54.228 2.46c-.1-2.017.006-3.79.33-5.37.35-1.69.867-3.05 1.547-4.05.74-1.09 1.567-1.882 2.498-2.4.928-.516 1.926-.835 3.015-.925 1.06-.102 2.11.036 3.13.41 1.02.373 1.93 1.028 2.757 1.972.813.914 1.492 2.134 2.064 3.668.532 1.437.866 3.2 1.038 5.243-.012-.164-.012-.315-.022-.477-.16-2.266-.514-4.154-1.076-5.694-.57-1.54-1.254-2.773-2.068-3.682-.824-.938-1.735-1.605-2.75-1.972-1.02-.367-2.066-.505-3.14-.403-1.08.084-2.08.39-3.013.914-.926.523-1.75 1.317-2.487 2.4-.674 1.01-1.203 2.363-1.555 4.07-.34 1.673-.453 3.627-.306 5.81.002.163.03.313.04.482zm155.04-79.617c1.826-.163 3.21-.174 4.13-.097.922.097 1.837.36 2.753.758 1.78.86 3.13 2.11 4.042 3.812.866 1.576 1.378 3.506 1.576 5.785-.02-.162 0-.32-.02-.492-.168-2.48-.703-4.554-1.617-6.238-.912-1.684-2.262-2.953-4.05-3.795-.906-.415-1.82-.66-2.756-.764-.92-.09-2.294-.06-4.138.103l-2.156.174.06.943 2.176-.19zm132.56 42.877l-.073-.943-5.418.475.06.94 5.43-.47zm-320.57 39.626c-.1-2.038.043-3.83.44-5.328.433-1.612 1.06-2.953 1.873-3.98.85-1.065 1.805-1.865 2.86-2.388 1.05-.536 2.177-.825 3.38-.94 1.085-.1 2.11.007 3.08.284.98.288 1.893.655 2.746 1.118.836.475 1.588.962 2.258 1.45.66.493 1.218.926 1.663 1.293l.983-.09-.065-.932-.98.09c-.448-.366-1-.793-1.672-1.28-.664-.5-1.416-.993-2.252-1.456-.85-.463-1.765-.836-2.742-1.118-.968-.298-1.99-.394-3.082-.298-1.2.102-2.327.415-3.376.945-1.056.51-2.013 1.304-2.864 2.38-.81 1.022-1.434 2.363-1.873 3.987-.433 1.63-.577 3.566-.418 5.803.012.154.033.298.043.455zm335.28-29.16c-.11-2.01 0-3.795.324-5.377.356-1.69.88-3.03 1.547-4.055.74-1.083 1.564-1.876 2.49-2.405.932-.516 1.942-.823 3.03-.913 1.06-.09 2.1.042 3.122.415 1.015.367 1.93 1.03 2.76 1.98.81.895 1.497 2.122 2.062 3.662.52 1.437.86 3.2 1.037 5.256-.007-.18-.007-.337-.02-.5-.156-2.254-.523-4.16-1.082-5.688-.565-1.546-1.257-2.772-2.057-3.68-.836-.94-1.75-1.606-2.766-1.967-1.017-.367-2.057-.51-3.12-.41-1.084.09-2.093.404-3.02.92-.932.518-1.762 1.318-2.502 2.406-.677 1-1.19 2.35-1.53 4.05-.356 1.695-.47 3.62-.33 5.826.026.156.037.325.056.48zm52.828-23.038l1.076 15.948-1.075-15.948zm-131.29-5.563l-.95-13.753 3.964-.354 9.945 12.983 10.44-.91-.704-.88-9.795.853-9.953-12.976-3.95.337.933 13.76-8.497.746.066.943 8.505-.746zm15.81-21.943c1.023-1.857 1.45-4.16 1.25-6.933-.01-.117-.03-.224-.035-.327.09 2.5-.333 4.606-1.277 6.32-1.01 1.852-2.532 3.452-4.57 4.787l.51.625c1.81-1.274 3.19-2.772 4.12-4.473zm-49.51 64.497v-.03l-1.305-19.11 1.303 19.14zm18.03-41.19l-.073-.94-23.944 2.082-2.477-36.617 2.53 37.56 23.965-2.086zm16.687-32.276c1.013-.09 1.914-.132 2.696-.132.77-.024 1.455.084 2.068.3.842.32 1.467.8 1.858 1.438.326.554.548 1.22.608 1.99 0-.19 0-.36-.006-.552-.054-.932-.276-1.726-.673-2.376-.385-.636-1.004-1.106-1.86-1.43-.6-.217-1.285-.337-2.055-.32-.788.013-1.684.06-2.7.146l-3.084.277.055.938 3.096-.276zm-11.46 67.244c-.097-2.028.04-3.807.45-5.317.42-1.617 1.047-2.946 1.853-3.98.854-1.076 1.804-1.865 2.868-2.394 1.06-.523 2.178-.83 3.375-.926 1.088-.1 2.123 0 3.09.272.98.283 1.895.66 2.738 1.13.83.476 1.588.95 2.255 1.444.67.506 1.22.932 1.667 1.305l.986-.09-.2-2.83.127 1.906-.98.072c-.427-.36-.998-.806-1.653-1.294-.668-.487-1.43-.986-2.26-1.437-.855-.476-1.775-.85-2.738-1.144-.98-.27-2.015-.367-3.098-.27-1.187.102-2.323.415-3.37.938-1.05.525-2.014 1.32-2.868 2.383-.812 1.04-1.43 2.37-1.864 3.987-.446 1.617-.572 3.56-.416 5.808.005.16.023.315.035.44zm21.884-13.994l.06.95 10.362-.908-.073-.938-10.35.895zm-.428-6.314l.367 5.437-.367-5.437zm-249.32 57.172c-.732.433-1.502.83-2.308 1.18-1.06.438-2.062.793-3 1.07-.942.264-2.232.468-3.895.606-2.456.217-4.766 0-6.91-.65-2.137-.625-4.014-1.707-5.614-3.2-1.62-1.502-2.913-3.444-3.903-5.802-.935-2.243-1.52-4.89-1.76-7.878.01.156.004.312.025.475.21 3.187.82 5.978 1.805 8.335.977 2.363 2.288 4.312 3.89 5.803 1.613 1.493 3.483 2.576 5.63 3.213 2.137.644 4.438.854 6.906.644 1.655-.146 2.957-.344 3.89-.62.934-.266 1.935-.614 3-1.07.803-.338 1.58-.723 2.312-1.174.728-.433 1.496-.89 2.307-1.39l-.068-.93c-.803.493-1.57.956-2.304 1.39zM334.06 272.12c.3 4.63-.7 8.3-3.03 10.987-2.305 2.688-5.9 4.234-10.754 4.673-4.847.397-8.6-.506-11.246-2.772-2.66-2.243-4.138-5.677-4.45-10.313l-1.27-18.606 1.33 19.542c.312 4.632 1.803 8.065 4.45 10.314 2.645 2.267 6.403 3.18 11.256 2.748 4.847-.415 8.425-1.966 10.76-4.655 2.314-2.69 3.324-6.35 3.006-10.994l-.054-.926zm55.414-21.62l.367 5.46-.31-4.528 10.343-.896-.065-.938-10.332.903zm-19.97 29.69c-.806.487-1.576.95-2.298 1.39-.74.432-1.51.835-2.327 1.166-1.067.45-2.06.805-3 1.083-.935.26-2.24.455-3.9.605-2.454.217-4.757.006-6.904-.643-2.135-.63-4.005-1.713-5.617-3.21-1.6-1.49-2.9-3.434-3.9-5.803-.93-2.238-1.51-4.884-1.755-7.884.012.174.012.33.018.475.21 3.2.818 5.984 1.816 8.347.97 2.363 2.266 4.312 3.884 5.797 1.612 1.503 3.476 2.574 5.605 3.21 2.157.65 4.46.86 6.92.65 1.66-.144 2.965-.342 3.89-.613.946-.27 1.944-.63 3.003-1.07.8-.336 1.582-.727 2.315-1.166.74-.433 1.496-.902 2.29-1.39l-.596-8.983.547 8.04zm93.343-24.006c.307 5.785-.897 10.506-3.61 14.186-2.777 3.79-6.836 5.93-12.176 6.38-5.326.47-9.62-.944-12.892-4.197-3.175-3.162-4.98-7.642-5.448-13.403 0 .156 0 .312.01.47.416 5.99 2.238 10.62 5.504 13.873 3.253 3.26 7.56 4.654 12.88 4.197 5.34-.47 9.406-2.598 12.202-6.38 2.778-3.79 3.975-8.66 3.572-14.66-.005-.152-.035-.29-.04-.465zm5.286-18.895l2.104 31.215-2.104-31.217zm32.678 34.94l-2.56-37.564 2.49 36.64-8.233.698-15.81-24.54 1.744 25.768-7.836.693.06.926 7.842-.686-1.744-25.762 15.818 24.543 8.233-.717zm-209.02 17.226l-9.94-12.99-3.96.35.07.932 3.95-.33 9.947 12.97 10.44-.89-.71-.896-9.794.853zm118.48-20.127l-1.43-21.127-5.425.463-.38-5.725.446 6.67 5.425-.47 1.365 20.19zm-4.762 10.234l-.39-5.707.457 6.664 19.394-1.695-.06-.938-19.4 1.677zm-22.527 1.972l-1.69-24.92 1.744 25.852 8.545-.74-.067-.945-8.533.752zM209.15 239.89c2.658 2.262 6.404 3.176 11.257 2.76 4.846-.42 8.44-1.983 10.758-4.67 2.33-2.69 3.33-6.346 3.022-10.994l-.066-.914c.31 4.63-.693 8.298-3.02 10.97-2.32 2.687-5.905 4.257-10.76 4.66-4.845.42-8.6-.5-11.25-2.755-2.65-2.243-4.13-5.677-4.444-10.302l-1.56-23.068 1.623 23.988c.3 4.643 1.8 8.07 4.44 10.326zm15.09 25.162c-1.992-.644-3.992-.884-6.02-.71-.705.067-1.403.17-2.106.35-.698.17-1.36.427-1.994.782-.56.307-1.034.728-1.413 1.287-.383.55-.548 1.15-.503 1.81.01.16.04.298.07.448.044-.475.213-.914.495-1.305.383-.564.85-.986 1.414-1.286.628-.355 1.293-.626 1.98-.8.708-.168 1.415-.29 2.122-.355 2.02-.17 4.023.066 6.016.733 1.988.626 3.695 1.504 5.115 2.592l.91-.072-.152-2.147.09 1.197-.913.09c-1.42-1.09-3.122-1.972-5.112-2.61zm-34.04 33.225l-15.81-24.547.07.944 15.798 24.548 8.233-.722-.06-.932-8.23.71zm21.94-16.687c1.25.35 2.572.6 3.985.78 1.41.176 2.745.386 4.017.603 1.206.222 2.134.595 2.79 1.148.556.46.88 1.025 1.007 1.675.01-.168.01-.367-.007-.565-.054-.82-.41-1.51-1.06-2.05-.657-.537-1.587-.92-2.805-1.15-1.27-.217-2.605-.415-4.015-.6-1.402-.165-2.73-.43-3.98-.79-2.852-.764-4.95-1.985-6.298-3.638-1.233-1.533-1.972-3.457-2.22-5.79.004.107-.002.222.004.342.186 2.61.94 4.745 2.28 6.393 1.347 1.654 3.445 2.875 6.3 3.645zm-43.835 18.594l-2.475-36.61h-.006l2.543 37.548 7.832-.68-.068-.938-7.83.68zm-7.766-17.716c.31 5.767-.885 10.494-3.59 14.174-2.795 3.795-6.857 5.918-12.197 6.38-5.328.463-9.622-.937-12.88-4.197-3.185-3.17-4.996-7.656-5.46-13.404.01.165.002.315.014.47.4 5.998 2.242 10.62 5.504 13.876 3.26 3.26 7.564 4.654 12.88 4.197 5.34-.468 9.405-2.597 12.198-6.38 2.785-3.764 3.98-8.66 3.58-14.654-.018-.16-.04-.297-.05-.46zm112.613-46.137l-8.236.71-15.802-24.545 1.747 25.768-7.832.687-2.05-30.346 2.114 31.277 7.83-.67-1.738-25.783 15.8 24.554 8.23-.716-.063-.932zm-40.535 46.777c.15 3.524-1.026 6.52-3.55 9.002-2.606 2.543-6.29 4.03-11.04 4.45-2.74.234-5.15.17-7.22-.2-2.08-.373-4.035-.902-5.88-1.58l-.542-8.07.603 9c1.84.693 3.8 1.22 5.88 1.58 2.066.38 4.48.447 7.223.194 4.745-.414 8.428-1.876 11.038-4.444 2.6-2.546 3.79-5.685 3.54-9.384-.014-.18-.035-.37-.053-.552zm20.165-20.735l.364 5.39-.305-4.45 10.35-.88-.073-.95-10.338.89zm26.037 28.21l-8.504.74.062.94 8.494-.734-.202-2.983.15 2.038zm-32.528 2.82l.057.946 8.55-.74-.07-.932-8.537.728zm-12.397-29.38l.063.937 10.348-.91-.07-.926-10.34.896zM62.36 176.537c1.29.59 2.558.848 3.76.812.196-.027-1.858 7.334-1.663 7.3 1.29-.17 4.86-.02 5.695-1.337-.812-3.266 4.513-14.57 5.42-19.295l-5.153.447c-.944 4.008-2.35 7.063-4.29 7.327-.554.075-1.21-.066-1.95-.394-.95-.432-1.46-.913-1.53-1.436-.155-1.145.557-2.814 2.13-5.012l-6.053.544c-.783 1.825-1.14 3.612-.898 5.325.24 1.78 1.22 4.202 4.526 5.717zm458.794-35.877c1.57.292 3.92-.01 6.206-3.09 2.165-2.9 2.688-6.198 1.546-9.356-.487-1.332-1.263-2.594-2.207-3.752l-7.01.613c2.256 1.65 4.054 3.464 4.698 5.24.33.912.3 1.723-.116 2.614-.162.352-.38.706-.65 1.076-.65.88-1.214 1.28-1.677 1.2-1.653-.313-3.777-3.605-6.332-9.778l-4.534.393c2.705 7.71 5.267 13.947 10.072 14.837z"/><path d="M535.07 122.337c-4.83 1.238-8.407-2.41-12.568-6.633-2.087-2.13-4.24-4.324-6.62-5.84l-1.084-.68-1.137.576c-2.264 1.176-3.68 2.985-4.75 4.907-1.07-4.282-3.68-8.94-6.98-9.357-4.444-.553-28.426-5.49-58.777-11.744-84.827-17.485-155.638-31.812-162.974-30.17-5.648 1.265-53.08 20.052-103.29 39.952-39.484 15.647-83.473 33.075-97.765 38.162.577.894 1.27 1.717 1.59 2.793.223.74.338 1.51.443 2.285 4.868-1.717 13.004-4.838 26.94-10.265 19.274-7.492 45.265-17.794 70.393-27.743 47.85-18.967 97.335-38.56 102.63-39.756 7.01-1.567 103.52 18.31 161.16 30.19 30.443 6.274 54.497 11.226 59.068 11.798.41.138 1.546 1.41 2.448 3.894.805 2.28.866 4.056.716 4.69l-.397.197c-1.792 1.155-4.24 1.076-6.837 1.01-2.977-.087-6.375-.186-9.334 1.702-1.995 1.275-3.084 3.578-2.957 6.326.108 2.917 1.54 5.788 3.343 6.825 2.027 1.362 3.957 1.927 5.798 1.927 6.73 0 10.53-7.813 14.03-12.913l1.653-.11c.8-1.335 1.395-2.703 1.967-4.032.962-2.21 1.677-3.78 2.875-4.81 1.515 1.17 3.025 2.696 4.594 4.31 4.522 4.58 9.64 9.797 16.922 7.915l-1.095-5.403zm-44.327 8.298l-.174-.105c-.26-.31-.8-1.44-.725-2.498.036-.526.204-.737.48-.902 1.787-1.143 4.24-1.073 6.84-1.01 1.635.05 3.403.098 5.153-.17-4.266 5.308-7.7 7.334-11.578 4.685z" fill="#B38B4E"/><path d="M84.696 153.812c-.16-1.816-1.14-3.355-2.9-4.574-.825-.565-1.932-.905-2.675-1.46-.2.15-.21-.127-.31-.46-.457-1.622-.947-3.63-2.35-4.502-.125-.09-.185-.213-.19-.328-.12.036-.25.075-.35.102-.21-1.56-.063-4.456.036-6.33.295-5.376.6-10.926-2.396-13.95-1.56-1.58-3.71-2.117-6.376-1.585-3.178.635-5.418 3.085-5.995 6.558-1.027 6.176 3.176 16.432 18.07 26.69.303.21.47.378.553.468-.298.97-2.36 3.166-3.753 4.628-4.33 4.588-10.264 10.882-8.24 19.614l4.72-1.4c-1.287-5.55 3.043-10.12 6.86-14.17 3.013-3.184 5.61-5.927 5.297-9.297zm-13.61-17.89c-.067 1.27-.136 2.53-.157 3.73-4.31-5.195-5.28-9.34-4.946-11.338.123-.77.48-1.828 2.044-2.135.33-.07.697-.126 1.054-.126.487 0 .944.093 1.23.382 1.22 1.238.962 5.995.77 9.483z" fill="#B38B4E"/><path d="M533.993 123.377c-.21.006-.427.006-.638.006-4.522 0-8.034-3.56-11.775-7.358-2.02-2.048-4.107-4.174-6.332-5.593l-.367-.23-.37.2c-1.665.866-2.915 2.16-4.034 4.21l-1.948 3.515-1.004-4c-.944-3.743-3.17-7.706-5.593-8.016-4.51-.57-28.426-5.484-58.705-11.73l-.198-.036c-80.372-16.565-147.954-30.28-161-30.28-.83 0-1.206.067-1.368.103-5.527 1.238-52.91 20.016-103.07 39.885l-.086.03c-39.407 15.613-83.634 33.145-97.875 38.185.35.517.68 1.05.922 1.626 4.94-1.72 13.376-4.97 27.2-10.345 19.24-7.49 45.22-17.782 70.38-27.753 47.9-18.978 97.43-38.6 102.85-39.815.37-.08.837-.126 1.474-.126 13.227 0 105.284 18.97 160.29 30.3 30.41 6.276 54.43 11.22 58.95 11.79l.152.006.12.057c1.33.415 2.706 2.806 3.5 4.96.794 2.232 1.1 4.547.775 5.876l-.197.81-1.004.54c-1.75 1.1-3.796 1.247-5.75 1.247-.613 0-1.233-.015-1.876-.03-.613-.024-1.25-.04-1.894-.04-2.106 0-4.523.175-6.604 1.51-1.467.92-2.232 2.57-2.153 4.628.108 2.47 1.33 4.612 2.466 5.253l.09.055c1.684 1.138 3.314 1.685 4.973 1.685 5.947 0 10.975-7.32 14.288-12.12l.05-.088c.75-1.246 1.31-2.553 1.865-3.82 1.07-2.47 1.888-4.186 3.325-5.454l.93-.827.974.758c1.6 1.238 3.14 2.808 4.78 4.462 3.783 3.85 7.704 7.837 12.815 7.837.35 0 .696-.02 1.04-.06l-.37-1.808zm-30.297 2.772c-3.59 4.462-6.49 6.444-9.417 6.444h-.015c-1.407 0-2.827-.463-4.173-1.395l-.355-.228-.14-.174c-.577-.658-1.334-2.314-1.196-3.968.08-1.076.524-1.852 1.288-2.357 1.774-1.112 3.927-1.26 5.792-1.26.62 0 1.257.018 1.906.033.618.008 1.244.03 1.875.03 1.18 0 2.14-.058 2.996-.19l4.463-.713-3.027 3.772z" fill="#5B4F3C"/><path d="M83.247 152.955c-.11-1.217-.81-2.264-2.126-3.166-.96-.667-1.88-1.35-2.763-2.006l-2.896-2.195 2.517-.836c-.264-.6-.59-1.14-1.025-1.558-.145.036-.286.084-.42.135l-1.764.56-.28-2.05c-.228-1.634-.123-4.117.018-6.742.262-4.92.544-10.02-1.85-12.444-.88-.896-1.99-1.32-3.4-1.32-.5 0-1.05.057-1.62.163-2.517.5-4.225 2.353-4.676 5.09-.884 5.313 3.12 14.992 17.32 24.77.35.244.648.49.865.74l.704.815-.33 1.085c-.36 1.2-1.638 2.69-4.17 5.384-3.917 4.138-8.72 9.226-8.084 15.97l1.603-.47c-.353-5.745 4.016-10.38 7.59-14.16 2.688-2.843 5.015-5.314 4.79-7.768zm-10.367-17.95c-.063 1.29-.132 2.49-.15 3.652l-.07 4.532-2.744-3.307c-5.806-6.99-5.572-11.675-5.356-12.945.412-2.518 2.06-3.366 3.356-3.615.487-.105.93-.147 1.338-.147.98 0 1.753.282 2.318.85 1.675 1.695 1.597 5.616 1.308 10.974z" fill="#5B4F3C"/><g fill="#FFE0BA"><path d="M533.993 123.377c-.21.006-.427.006-.638.006-4.522 0-8.034-3.56-11.775-7.358-2.02-2.048-4.107-4.174-6.332-5.593l-.367-.23-.37.2c-1.665.866-2.915 2.16-4.034 4.21l-1.948 3.515-1.004-4c-.944-3.743-3.17-7.706-5.593-8.016-4.51-.57-28.426-5.484-58.705-11.73l-.198-.036c-80.372-16.565-147.954-30.28-161-30.28-.83 0-1.206.067-1.368.103-5.527 1.238-52.91 20.016-103.07 39.885l-.086.03c-39.407 15.613-83.634 33.145-97.875 38.185.35.517.68 1.05.922 1.626 4.94-1.72 13.376-4.97 27.2-10.345 19.24-7.49 45.22-17.782 70.38-27.753 47.9-18.978 97.43-38.6 102.85-39.815.37-.08.837-.126 1.474-.126 13.227 0 105.284 18.97 160.29 30.3 30.41 6.276 54.43 11.22 58.95 11.79l.152.006.12.057c1.33.415 2.706 2.806 3.5 4.96.794 2.232 1.1 4.547.775 5.876l-.197.81-1.004.54c-1.75 1.1-3.796 1.247-5.75 1.247-.613 0-1.233-.015-1.876-.03-.613-.024-1.25-.04-1.894-.04-2.106 0-4.523.175-6.604 1.51-1.467.92-2.232 2.57-2.153 4.628.108 2.47 1.33 4.612 2.466 5.253l.09.055c1.684 1.138 3.314 1.685 4.973 1.685 5.947 0 10.975-7.32 14.288-12.12l.05-.088c.75-1.246 1.31-2.553 1.865-3.82 1.07-2.47 1.888-4.186 3.325-5.454l.93-.827.974.758c1.6 1.238 3.14 2.808 4.78 4.462 3.783 3.85 7.704 7.837 12.815 7.837.35 0 .696-.02 1.04-.06l-.37-1.808zm-30.297 2.772c-3.59 4.462-6.49 6.444-9.417 6.444h-.015c-1.407 0-2.827-.463-4.173-1.395l-.355-.228-.14-.174c-.577-.658-1.334-2.314-1.196-3.968.08-1.076.524-1.852 1.288-2.357 1.774-1.112 3.927-1.26 5.792-1.26.62 0 1.257.018 1.906.033.618.008 1.244.03 1.875.03 1.18 0 2.14-.058 2.996-.19l4.463-.713-3.027 3.772z"/><path d="M83.247 152.955c-.11-1.217-.81-2.264-2.126-3.166-.96-.667-1.88-1.35-2.763-2.006l-2.896-2.195 2.517-.836c-.264-.6-.59-1.14-1.025-1.558-.145.036-.286.084-.42.135l-1.764.56-.28-2.05c-.228-1.634-.123-4.117.018-6.742.262-4.92.544-10.02-1.85-12.444-.88-.896-1.99-1.32-3.4-1.32-.5 0-1.05.057-1.62.163-2.517.5-4.225 2.353-4.676 5.09-.884 5.313 3.12 14.992 17.32 24.77.35.244.648.49.865.74l.704.815-.33 1.085c-.36 1.2-1.638 2.69-4.17 5.384-3.917 4.138-8.72 9.226-8.084 15.97l1.603-.47c-.353-5.745 4.016-10.38 7.59-14.16 2.688-2.843 5.015-5.314 4.79-7.768zm-10.367-17.95c-.063 1.29-.132 2.49-.15 3.652l-.07 4.532-2.744-3.307c-5.806-6.99-5.572-11.675-5.356-12.945.412-2.518 2.06-3.366 3.356-3.615.487-.105.93-.147 1.338-.147.98 0 1.753.282 2.318.85 1.675 1.695 1.597 5.616 1.308 10.974z"/></g><path d="M507.275 102.067c-5.154.445-9.026 5.55-8.624 11.4.394 5.832 4.904 10.213 10.058 9.774 5.154-.46 9.015-5.563 8.617-11.395-.403-5.85-4.89-10.223-10.048-9.776zm1.166 17.362c-3.292.283-6.18-2.514-6.43-6.26-.253-3.746 2.224-7.02 5.513-7.307 3.315-.288 6.19 2.526 6.454 6.272.252 3.735-2.213 7.003-5.533 7.292z" fill="#6D6E70"/><path d="M508.65 122.45c-4.78.428-8.94-3.634-9.32-9.043-.367-5.41 3.223-10.148 7.998-10.575 4.775-.406 8.954 3.656 9.315 9.063.368 5.405-3.217 10.14-7.992 10.556zm-1.177-17.35c-3.656.32-6.428 3.964-6.152 8.13.286 4.163 3.51 7.28 7.19 6.962 3.66-.316 6.422-3.963 6.14-8.124s-3.488-7.285-7.175-6.967z" fill="#404041"/><path d="M499.794 113.764c-.325-4.898 3.08-9.192 7.62-9.59 4.54-.4 8.496 3.263 8.827 8.168.045.668.01 1.332-.075 1.97.288-1.062.427-2.193.35-3.356-.35-5.115-4.475-8.92-9.202-8.518-4.738.42-8.316 4.892-7.96 10.016.065 1.163.36 2.25.787 3.25-.17-.626-.3-1.267-.344-1.94zm8.786 7.508c3.144-.268 5.544-3.262 5.544-6.792-.607 2.95-2.838 5.235-5.647 5.487-2.79.25-5.31-1.64-6.297-4.444.47 3.48 3.242 6.03 6.4 5.75z" fill="#F1F1F2"/><path fill="#6D6E70" d="M510.486 125.878l-3.17.28-.252-3.57 3.163-.264"/><path fill="#404041" d="M507.73 126.12l2.317-.205-.235-3.56-1.1.096-1.227.11"/><path fill="#F1F1F2" d="M508.164 126.083l.734-.063-.282-4.11-1.137.09"/><path d="M296.963 82.49c0 5.264-3.497 9.534-7.812 9.534-4.31 0-7.8-4.27-7.8-9.534 0-5.268 3.49-9.54 7.803-9.54 4.316 0 7.813 4.272 7.813 9.54z" fill="#D39445"/><path d="M296.26 83.17c0 5.265-3.5 9.53-7.812 9.53-4.3 0-7.806-4.265-7.806-9.53 0-5.268 3.506-9.537 7.806-9.537 4.31 0 7.81 4.27 7.81 9.537z" fill="#853100"/><path d="M295.047 83.467c0 4.522-3.033 8.188-6.777 8.188-3.737 0-6.777-3.665-6.777-8.188 0-4.522 3.04-8.187 6.777-8.187 3.744 0 6.777 3.665 6.777 8.187z" fill="#381500"/><path d="M286.8 91.354c-1.49 0-2.986-.553-4.264-1.672-7.953-7.075-8.15-16.862-8.362-27.218-.177-8.52-.364-18.17-4.306-30.086-1.332-4.038.472-8.548 4.04-10.07 3.56-1.515 7.545.523 8.89 4.58 4.762 14.402 5.008 26.436 5.188 35.212.19 9.44.482 12.95 3.077 15.257 3 2.676 3.527 7.595 1.176 10.993-1.368 1.97-3.39 3.004-5.44 3.004z" fill="#6D6E70"/><path d="M289.082 87.43c-.16-.716.32-2.177-1.275-1.687-3.29 1.034-9.315-6.324-9.682-13.1-1.955-35.412-3.897-25.153-3.897-24.215 0 0 .184 17.584.637 21.14 1.18 9.295 2.105 16.616 9.784 20.974.703.393 1.395.397 1.85.35.904-.127 1.71-.62 2.19-1.36.426-.637.564-1.386.39-2.102z" fill="#D0D2D3"/><path d="M292.25 82.72c.51.314 1.03.423 1.444.45-.096-2.195-.983-4.342-2.63-5.812-2.596-2.307-2.888-5.816-3.078-15.257-.132-6.65-.315-15.15-2.465-25.143-1.023-.833-1.985 2.7-2.01 3.15 0 0-.513 17.6-.2 21.17.806 9.33 1.447 16.705 8.94 21.444z" fill="#404041"/><path d="M282.798 26.888c-1.344-4.056-5.328-6.095-8.888-4.58-3.57 1.522-5.373 6.032-4.04 10.07 2.206 6.71 3.243 12.703 3.754 18.17 1.44.26 2.95.445 4.5.54 3.218.194 6.372-.062 9.346-.718-.553-6.818-1.774-14.708-4.672-23.482z" fill="#404041"/><linearGradient id="b" gradientUnits="userSpaceOnUse" x1="253.604" y1="30.027" x2="305.277" y2="30.027"><stop offset="0" stop-color="#E5E2DF"/><stop offset="0" stop-color="#DED9D6"/><stop offset=".063" stop-color="#CFCAC9"/><stop offset=".183" stop-color="#A8A4A7"/><stop offset=".264" stop-color="#8B878D"/><stop offset=".522" stop-color="#F3F4F4"/><stop offset=".584" stop-color="#E5E5E6"/><stop offset=".703" stop-color="#C0BEC0"/><stop offset=".865" stop-color="#858085"/><stop offset=".876" stop-color="#807B80"/><stop offset="1" stop-color="#D1D3D4"/><stop offset="1" stop-color="#A7A9AC"/></linearGradient><path d="M305.277 26.686c0 14.517-13.09 22.09-27.152 21.243-14.09-.85-24.52-9.017-24.52-18.87 0-9.845 1.72-18.495 24.52-16.784 25.15 1.888 27.152 4.567 27.152 14.408z" fill="url(#b)"/><linearGradient id="c" gradientUnits="userSpaceOnUse" x1="293.314" y1="49.014" x2="269.125" y2="4.046"><stop offset=".006" stop-color="#BBBCBE"/><stop offset=".292" stop-color="#989CA0"/><stop offset=".652" stop-color="#D1D0D3"/><stop offset=".727" stop-color="#CDCCCF"/><stop offset=".807" stop-color="#C0C0C3"/><stop offset=".889" stop-color="#ABACB0"/><stop offset=".928" stop-color="#9EA0A4"/><stop offset="1" stop-color="#A7A9AC"/><stop offset="1" stop-color="#C3C6CA"/></linearGradient><path d="M305.277 23.83c0 9.84-11.42 17.818-25.513 17.818-14.084 0-25.51-7.977-25.51-17.818 0-9.85 11.426-17.83 25.51-17.83 14.093 0 25.513 7.98 25.513 17.83z" fill="url(#c)"/><path d="M269.907 19.807c-6.146 5.917-11.666 10.015-12.31 9.134-.658-.86 3.806-6.362 9.953-12.28 6.146-5.92 11.66-10.01 12.32-9.14.654.866-3.81 6.38-9.963 12.29z" fill="#929497"/><path d="M268.82 18.184c-6.153 5.914-11.412 10.355-11.737 9.92-.334-.443 4.387-5.597 10.542-11.508 6.146-5.936 11.4-10.364 11.736-9.935.328.454-4.39 5.61-10.54 11.526z" fill="#E6E7E8"/><path d="M279.79 24.11c-7.555 7.265-14.206 12.448-14.86 11.58-.654-.86 4.95-7.458 12.504-14.73 7.56-7.275 14.204-12.468 14.86-11.587.655.87-4.94 7.472-12.503 14.737z" fill="#929497"/><path d="M278.718 22.47c-7.56 7.268-13.95 12.804-14.277 12.365-.334-.442 5.527-6.693 13.08-13.964 7.56-7.27 13.957-12.803 14.285-12.373.33.452-5.527 6.703-13.085 13.976z" fill="#E6E7E8"/><path d="M289.51 29.717c-6.784 6.528-12.804 11.098-13.45 10.23-.66-.872 4.31-6.868 11.082-13.38 6.777-6.517 12.785-11.087 13.443-10.227.656.875-4.305 6.862-11.076 13.377z" fill="#929497"/><path d="M288.414 28.09c-6.766 6.514-12.533 11.44-12.857 11-.337-.436 4.886-6.08 11.663-12.595 6.777-6.516 12.542-11.444 12.863-11.008.328.445-4.89 6.082-11.67 12.604z" fill="#E6E7E8"/><path d="M283.688 18.586c-10.388-3.14-18.61-6.57-18.34-7.688.258-1.092 8.896.547 19.28 3.686 10.393 3.136 18.61 6.576 18.346 7.686-.26 1.094-8.9-.557-19.286-3.684z" fill="#929497"/><path d="M284.268 16.647c-10.38-3.133-18.7-6.13-18.567-6.7.13-.55 8.665 1.537 19.05 4.682 10.39 3.124 18.706 6.116 18.58 6.685-.132.56-8.663-1.528-19.06-4.67z" fill="#E6E7E8"/><path d="M276.33 29.642c-11.08-3.35-19.842-6.955-19.58-8.06.262-1.1 9.45.712 20.515 4.055 11.078 3.338 19.845 6.943 19.58 8.06-.26 1.09-9.444-.714-20.515-4.055z" fill="#929497"/><path d="M276.93 27.703c-11.076-3.344-19.95-6.504-19.82-7.072.135-.54 9.22 1.71 20.28 5.055 11.08 3.33 19.952 6.497 19.82 7.056-.136.565-9.217-1.695-20.28-5.036z" fill="#E6E7E8"/><path d="M279.764 41.038c-13.66 0-24.822-7.766-25.474-17.52-.02.306-.036.603-.036.907 0 10.178 11.426 18.43 25.51 18.43 14.093 0 25.513-8.253 25.513-18.43 0-.304-.006-.602-.03-.908-.662 9.755-11.814 17.52-25.483 17.52z" fill="#FFF"/><path d="M507.064 112.38s1.618 1.246 2.905 1.42c1.633.21 16.17 1.882 20.636 9.123 1.732 2.802 1.84 6.14.3 9.51-1.635 3.575-3.878 4.456-5.46 4.55-5.67.384-9.747-7.06-14.77-15.44-.456-.782-1.538-3.633-1.84-4.11l-1.773-4.782v-.27zM527 128.67c.227-.963.107-1.76-.386-2.578-1.696-2.745-6.856-4.724-11.636-5.84 4.793 7.584 8.22 11.35 10.193 11.216.47-.027.948-.565 1.416-1.582.193-.43.33-.835.415-1.217z" fill="#B38B4E"/><path d="M525.442 134.1c-5.226.35-11.637-10.35-15.082-16.097-.493-.802-.89-1.476-1.19-1.97l-1.1-2.323 3.295 1.163c5.67.584 14.697 2.706 17.992 8.055 1.37 2.23 1.45 4.865.193 7.6-.992 2.18-2.322 3.36-3.945 3.543l-.163.03zm-11.703-13.817c6.816 10.785 9.69 12.1 11.6 11.976l.1-.01c1.556-.186 2.38-1.98 2.66-2.576.256-.55.436-1.08.55-1.578.356-1.506.15-2.85-.636-4.122-2.147-3.5-8.058-5.506-12.635-6.576l-4.07-.954 2.43 3.836z" fill="#FFE0BA"/><g><path d="M502.524 112.08c.68-1.7 1.702-3.287 2.93-4.588-1.04-1.193-2.232-2.006-3.525-2.183-.88-.108-2.498-.38-4.76-.8v5.61c1.956.353 3.374.59 4.174.686.227.073.66.502 1.178 1.272z" fill="#B38B4E"/><path d="M501.844 107.946l.12.057c.626.196 1.24.818 1.816 1.63.32-.506.68-.98 1.04-1.434-.883-1.158-1.87-1.96-2.892-2.09-.884-.11-2.5-.385-4.756-.81v1.877c2.135.39 3.674.65 4.522.76l.15.006z" fill="#5B4F3C"/><path d="M501.844 107.946l.12.057c.626.196 1.24.818 1.816 1.63.32-.506.68-.98 1.04-1.434-.883-1.158-1.87-1.96-2.892-2.09-.884-.11-2.5-.385-4.756-.81v1.877c2.135.39 3.674.65 4.522.76l.15.006z" fill="#FFE0BA"/></g><path d="M72.59 147.927v-.544h-.81v-.613h-1.22c-.386.29-.86.643-1.403 1.04-1.004.737-2.01 1.486-3.007 2.25.13 1.016 1.996 4.122 2.745 4.585-1.36 6.784-3.84 13.61-6.86 13.61-.56 0-1.198-.22-1.895-.65-.894-.563-1.35-1.108-1.362-1.64-.07-1.94 2.47-5.037 7.538-9.25 0 0-1.26-1.247-1.813-2.026-.818-1.17-1.212-2.36-1.212-2.36-5.253 4.356-9.544 9.095-9.393 13.83.054 1.805.78 4.35 3.906 6.29 1.423.88 2.852 1.336 4.235 1.336 9.688 0 12.238-20.555 12.655-24.664l.12-1.197h-2.22z" fill="#B38B4E"/><path d="M71.78 147.383v-.228c-.39.3-.88.66-1.465 1.086l-.105.078c-1.076.8-2.357 1.738-3.698 2.785.228.494.54 1.068.863 1.597.256-.205.508-.407.772-.605l3.43-2.66-.916 4.59c-1.14 5.617-3.74 15.037-8.45 15.037-.835 0-1.73-.295-2.68-.878-.53-.334-2.16-1.34-2.21-3.184-.068-1.882.865-4.56 7.347-10.094-.05-.066-.108-.153-.162-.213-.325-.477-.584-.934-.776-1.33-4.204 3.57-8.165 7.87-8.045 11.71.072 1.906 1.092 3.506 3.067 4.733 1.18.716 2.343 1.1 3.46 1.1 8.424 0 10.766-20.435 11.03-22.975h-.65v-.542h-.81z" fill="#FFE0BA"/></svg>