<?xml version="1.0" encoding="utf-8"?>
<!-- Generator: Adobe Illustrator 18.1.1, SVG Export Plug-In . SVG Version: 6.00 Build 0)  -->
<svg version="1.1" id="Layer_1" xmlns="http://www.w3.org/2000/svg" xmlns:xlink="http://www.w3.org/1999/xlink" x="0px" y="0px"
	 viewBox="0 0 1397.5 301.7" enable-background="new 0 0 1397.5 301.7" xml:space="preserve">
<rect x="-11.5" y="-1" fill="#ED1C25" width="545.1" height="97.8"/>
<g>
	
		<rect x="550.9" y="111.1" transform="matrix(-0.7071 0.7071 -0.7071 -0.7071 1114.8798 -160.1295)" fill="#8B9698" width="79.5" height="79.5"/>
</g>
<rect x="639.6" y="203.9" fill="#33414F" width="757.9" height="97.8"/>
<line fill="none" x1="533.6" y1="48.9" x2="590.6" y2="48.9"/>
<line fill="#8B9698" stroke="#333479" stroke-width="2" x1="590.6" y1="97.8" x2="590.6" y2="48.9"/>
<line fill="none" x1="533.6" y1="48.9" x2="590.6" y2="48.9"/>
<line fill="none" x1="590.6" y1="203.9" x2="590.6" y2="252.8"/>
<line fill="#8B9698" stroke="#333479" stroke-width="2" x1="590.6" y1="252.8" x2="639.6" y2="252.8"/>
<line fill="none" x1="590.6" y1="252.8" x2="590.6" y2="203.9"/>
<line fill="#8B9698" stroke="#333479" stroke-width="2" x1="533.6" y1="48.9" x2="590.6" y2="48.9"/>
<line fill="#8B9698" stroke="#333479" stroke-width="2" x1="590.6" y1="252.8" x2="590.6" y2="203.9"/>
<g>
	<g>
		
			<radialGradient id="SVGID_1_" cx="653.0109" cy="-32.1372" r="849.4421" gradientTransform="matrix(1 0 0 1 0 -5.2393)" gradientUnits="userSpaceOnUse">
			<stop  offset="0" style="stop-color:#BCD9E7"/>
			<stop  offset="1.101335e-02" style="stop-color:#B0D5E6"/>
			<stop  offset="6.426676e-02" style="stop-color:#7BC4E1"/>
			<stop  offset="0.1164" style="stop-color:#4FB6DE"/>
			<stop  offset="0.1663" style="stop-color:#2DABDB"/>
			<stop  offset="0.2134" style="stop-color:#14A3D9"/>
			<stop  offset="0.2566" style="stop-color:#059FD7"/>
			<stop  offset="0.2921" style="stop-color:#009DD7"/>
			<stop  offset="0.6461" style="stop-color:#007299"/>
			<stop  offset="0.8959" style="stop-color:#1E426E"/>
			<stop  offset="1" style="stop-color:#2C2C5B"/>
		</radialGradient>
		<path fill="url(#SVGID_1_)" d="M5.6,267.8V1h107.2c58,0,86.8,40.8,86.8,88c0,46.8-28.8,87.2-86.8,87.2H70.4v91.6H5.6z M134,88.6
			c0-19.6-12-31.2-29.2-31.2H70.4v62.4h34.4C122,119.8,134,108.2,134,88.6z"/>
		
			<radialGradient id="SVGID_2_" cx="653.0109" cy="-32.1372" r="849.4421" gradientTransform="matrix(1 0 0 1 0 -5.2393)" gradientUnits="userSpaceOnUse">
			<stop  offset="0" style="stop-color:#BCD9E7"/>
			<stop  offset="1.101335e-02" style="stop-color:#B0D5E6"/>
			<stop  offset="6.426676e-02" style="stop-color:#7BC4E1"/>
			<stop  offset="0.1164" style="stop-color:#4FB6DE"/>
			<stop  offset="0.1663" style="stop-color:#2DABDB"/>
			<stop  offset="0.2134" style="stop-color:#14A3D9"/>
			<stop  offset="0.2566" style="stop-color:#059FD7"/>
			<stop  offset="0.2921" style="stop-color:#009DD7"/>
			<stop  offset="0.6461" style="stop-color:#007299"/>
			<stop  offset="0.8959" style="stop-color:#1E426E"/>
			<stop  offset="1" style="stop-color:#2C2C5B"/>
		</radialGradient>
		<path fill="url(#SVGID_2_)" d="M226,267.8V74.6h58V99c10-16,32.4-29.6,51.6-29.6v56c-3.2-0.8-7.6-1.6-12.4-1.6
			c-14,0-31.2,7.6-39.2,19.2v124.8H226z"/>
		
			<radialGradient id="SVGID_3_" cx="653.0109" cy="-32.1372" r="849.4421" gradientTransform="matrix(1 0 0 1 0 -5.2393)" gradientUnits="userSpaceOnUse">
			<stop  offset="0" style="stop-color:#BCD9E7"/>
			<stop  offset="1.101335e-02" style="stop-color:#B0D5E6"/>
			<stop  offset="6.426676e-02" style="stop-color:#7BC4E1"/>
			<stop  offset="0.1164" style="stop-color:#4FB6DE"/>
			<stop  offset="0.1663" style="stop-color:#2DABDB"/>
			<stop  offset="0.2134" style="stop-color:#14A3D9"/>
			<stop  offset="0.2566" style="stop-color:#059FD7"/>
			<stop  offset="0.2921" style="stop-color:#009DD7"/>
			<stop  offset="0.6461" style="stop-color:#007299"/>
			<stop  offset="0.8959" style="stop-color:#1E426E"/>
			<stop  offset="1" style="stop-color:#2C2C5B"/>
		</radialGradient>
		<path fill="url(#SVGID_3_)" d="M350,171c0-54,31.6-101.2,91.6-101.2s92,47.2,92,101.2c0,54-32,101.6-92,101.6S350,225,350,171z
			 M474,171c0-28-10-50-32.4-50c-22,0-32,22-32,50c0,28.4,10,50.4,32,50.4C464,221.4,474,199.4,474,171z"/>
		
			<radialGradient id="SVGID_4_" cx="653.0109" cy="-32.1372" r="849.4421" gradientTransform="matrix(1 0 0 1 0 -5.2393)" gradientUnits="userSpaceOnUse">
			<stop  offset="0" style="stop-color:#BCD9E7"/>
			<stop  offset="1.101335e-02" style="stop-color:#B0D5E6"/>
			<stop  offset="6.426676e-02" style="stop-color:#7BC4E1"/>
			<stop  offset="0.1164" style="stop-color:#4FB6DE"/>
			<stop  offset="0.1663" style="stop-color:#2DABDB"/>
			<stop  offset="0.2134" style="stop-color:#14A3D9"/>
			<stop  offset="0.2566" style="stop-color:#059FD7"/>
			<stop  offset="0.2921" style="stop-color:#009DD7"/>
			<stop  offset="0.6461" style="stop-color:#007299"/>
			<stop  offset="0.8959" style="stop-color:#1E426E"/>
			<stop  offset="1" style="stop-color:#2C2C5B"/>
		</radialGradient>
		<path fill="url(#SVGID_4_)" d="M625.2,267.8l1.4-6.4l6.1-27.9L684,1h102c44.4,0,74,32.8,74,74c0,45.6-29.6,101.2-108,101.2h-42
			l-13.4,61.6l-3,13.9l-3.5,16.1h-5.4H625.2z M756.4,119.8c21.6,0,36.4-18,36.4-38c0-15.2-9.6-24.4-24-24.4h-32.4l-13.6,62.4H756.4z
			"/>
		
			<radialGradient id="SVGID_5_" cx="653.0109" cy="-32.1372" r="849.4421" gradientTransform="matrix(1 0 0 1 0 -5.2393)" gradientUnits="userSpaceOnUse">
			<stop  offset="0" style="stop-color:#BCD9E7"/>
			<stop  offset="1.101335e-02" style="stop-color:#B0D5E6"/>
			<stop  offset="6.426676e-02" style="stop-color:#7BC4E1"/>
			<stop  offset="0.1164" style="stop-color:#4FB6DE"/>
			<stop  offset="0.1663" style="stop-color:#2DABDB"/>
			<stop  offset="0.2134" style="stop-color:#14A3D9"/>
			<stop  offset="0.2566" style="stop-color:#059FD7"/>
			<stop  offset="0.2921" style="stop-color:#009DD7"/>
			<stop  offset="0.6461" style="stop-color:#007299"/>
			<stop  offset="0.8959" style="stop-color:#1E426E"/>
			<stop  offset="1" style="stop-color:#2C2C5B"/>
		</radialGradient>
		<path fill="url(#SVGID_5_)" d="M847.6,267.8L906.4,1h102c44.4,0,74,32.8,74,74c0,45.6-29.6,101.2-108,101.2h-42l-20,91.6H847.6z
			 M978.8,119.8c21.6,0,36.4-18,36.4-38c0-15.2-9.6-24.4-24-24.4h-32.4l-13.6,62.4H978.8z"/>
		
			<radialGradient id="SVGID_6_" cx="653.0109" cy="-32.1372" r="849.4421" gradientTransform="matrix(1 0 0 1 0 -5.2393)" gradientUnits="userSpaceOnUse">
			<stop  offset="0" style="stop-color:#BCD9E7"/>
			<stop  offset="1.101335e-02" style="stop-color:#B0D5E6"/>
			<stop  offset="6.426676e-02" style="stop-color:#7BC4E1"/>
			<stop  offset="0.1164" style="stop-color:#4FB6DE"/>
			<stop  offset="0.1663" style="stop-color:#2DABDB"/>
			<stop  offset="0.2134" style="stop-color:#14A3D9"/>
			<stop  offset="0.2566" style="stop-color:#059FD7"/>
			<stop  offset="0.2921" style="stop-color:#009DD7"/>
			<stop  offset="0.6461" style="stop-color:#007299"/>
			<stop  offset="0.8959" style="stop-color:#1E426E"/>
			<stop  offset="1" style="stop-color:#2C2C5B"/>
		</radialGradient>
		<path fill="url(#SVGID_6_)" d="M1267.6,267.8l35.6-161.2l-89.6,161.2h-25.2l-18-161.2l-35.6,161.2H1070L1128.8,1h84l14.8,136
			L1304,1h86.8L1332,267.8H1267.6z"/>
	</g>
	<g>
		<path fill="none" stroke="#333479" stroke-width="2" d="M6.6,268.8V2h107.2c58,0,86.8,40.8,86.8,88c0,46.8-28.8,87.2-86.8,87.2
			H71.4v91.6H6.6z M135,89.6c0-19.6-12-31.2-29.2-31.2H71.4v62.4h34.4C123,120.8,135,109.2,135,89.6z"/>
		<path fill="none" stroke="#333479" stroke-width="2" d="M227,268.8V75.6h58V100c10-16,32.4-29.6,51.6-29.6v56
			c-3.2-0.8-7.6-1.6-12.4-1.6c-14,0-31.2,7.6-39.2,19.2v124.8H227z"/>
		<path fill="none" stroke="#333479" stroke-width="2" d="M351,172c0-54,31.6-101.2,91.6-101.2s92,47.2,92,101.2
			c0,54-32,101.6-92,101.6S351,226,351,172z M475,172c0-28-10-50-32.4-50c-22,0-32,22-32,50c0,28.4,10,50.4,32,50.4
			C465,222.4,475,200.4,475,172z"/>
		<path fill="none" stroke="#333479" stroke-width="2" d="M626.2,268.8l1.4-6.4l6.1-27.9L685,2h102c44.4,0,74,32.8,74,74
			c0,45.6-29.6,101.2-108,101.2h-42l-13.4,61.6l-3,13.9l-3.5,16.1h-5.4H626.2z M757.4,120.8c21.6,0,36.4-18,36.4-38
			c0-15.2-9.6-24.4-24-24.4h-32.4l-13.6,62.4H757.4z"/>
		<path fill="none" stroke="#333479" stroke-width="2" d="M848.6,268.8L907.4,2h102c44.4,0,74,32.8,74,74
			c0,45.6-29.6,101.2-108,101.2h-42l-20,91.6H848.6z M979.8,120.8c21.6,0,36.4-18,36.4-38c0-15.2-9.6-24.4-24-24.4h-32.4l-13.6,62.4
			H979.8z"/>
		<path fill="none" stroke="#333479" stroke-width="2" d="M1268.6,268.8l35.6-161.2l-89.6,161.2h-25.2l-18-161.2l-35.6,161.2H1071
			L1129.8,2h84l14.8,136L1305,2h86.8L1333,268.8H1268.6z"/>
	</g>
	<g>
		<path fill="none" stroke="#BBCCE0" stroke-width="2" d="M4.6,266.8V0h107.2c58,0,86.8,40.8,86.8,88c0,46.8-28.8,87.2-86.8,87.2
			H69.4v91.6H4.6z M133,87.6c0-19.6-12-31.2-29.2-31.2H69.4v62.4h34.4C121,118.8,133,107.2,133,87.6z"/>
		<path fill="none" stroke="#BBCCE0" stroke-width="2" d="M225,266.8V73.6h58V98c10-16,32.4-29.6,51.6-29.6v56
			c-3.2-0.8-7.6-1.6-12.4-1.6c-14,0-31.2,7.6-39.2,19.2v124.8H225z"/>
		<path fill="none" stroke="#BBCCE0" stroke-width="2" d="M349,170c0-54,31.6-101.2,91.6-101.2s92,47.2,92,101.2
			c0,54-32,101.6-92,101.6S349,224,349,170z M473,170c0-28-10-50-32.4-50c-22,0-32,22-32,50c0,28.4,10,50.4,32,50.4
			C463,220.4,473,198.4,473,170z"/>
		<path fill="none" stroke="#BBCCE0" stroke-width="2" d="M624.2,266.8l1.4-6.4l6.1-27.9L683,0h102c44.4,0,74,32.8,74,74
			c0,45.6-29.6,101.2-108,101.2h-42l-13.4,61.6l-3,13.9l-3.5,16.1h-5.4H624.2z M755.4,118.8c21.6,0,36.4-18,36.4-38
			c0-15.2-9.6-24.4-24-24.4h-32.4l-13.6,62.4H755.4z"/>
		<path fill="none" stroke="#BBCCE0" stroke-width="2" d="M846.6,266.8L905.4,0h102c44.4,0,74,32.8,74,74
			c0,45.6-29.6,101.2-108,101.2h-42l-20,91.6H846.6z M977.8,118.8c21.6,0,36.4-18,36.4-38c0-15.2-9.6-24.4-24-24.4h-32.4l-13.6,62.4
			H977.8z"/>
		<path fill="none" stroke="#BBCCE0" stroke-width="2" d="M1266.6,266.8l35.6-161.2l-89.6,161.2h-25.2l-18-161.2l-35.6,161.2H1069
			L1127.8,0h84l14.8,136L1303,0h86.8L1331,266.8H1266.6z"/>
	</g>
	<g>
		<path fill="none" stroke="#7EA6CF" stroke-width="2" d="M5.6,267.8V1h107.2c58,0,86.8,40.8,86.8,88c0,46.8-28.8,87.2-86.8,87.2
			H70.4v91.6H5.6z M134,88.6c0-19.6-12-31.2-29.2-31.2H70.4v62.4h34.4C122,119.8,134,108.2,134,88.6z"/>
		<path fill="none" stroke="#7EA6CF" stroke-width="2" d="M226,267.8V74.6h58V99c10-16,32.4-29.6,51.6-29.6v56
			c-3.2-0.8-7.6-1.6-12.4-1.6c-14,0-31.2,7.6-39.2,19.2v124.8H226z"/>
		<path fill="none" stroke="#7EA6CF" stroke-width="2" d="M350,171c0-54,31.6-101.2,91.6-101.2s92,47.2,92,101.2
			c0,54-32,101.6-92,101.6S350,225,350,171z M474,171c0-28-10-50-32.4-50c-22,0-32,22-32,50c0,28.4,10,50.4,32,50.4
			C464,221.4,474,199.4,474,171z"/>
		<path fill="none" stroke="#7EA6CF" stroke-width="2" d="M625.2,267.8l1.4-6.4l6.1-27.9L684,1h102c44.4,0,74,32.8,74,74
			c0,45.6-29.6,101.2-108,101.2h-42l-13.4,61.6l-3,13.9l-3.5,16.1h-5.4H625.2z M756.4,119.8c21.6,0,36.4-18,36.4-38
			c0-15.2-9.6-24.4-24-24.4h-32.4l-13.6,62.4H756.4z"/>
		<path fill="none" stroke="#7EA6CF" stroke-width="2" d="M847.6,267.8L906.4,1h102c44.4,0,74,32.8,74,74
			c0,45.6-29.6,101.2-108,101.2h-42l-20,91.6H847.6z M978.8,119.8c21.6,0,36.4-18,36.4-38c0-15.2-9.6-24.4-24-24.4h-32.4l-13.6,62.4
			H978.8z"/>
		<path fill="none" stroke="#7EA6CF" stroke-width="2" d="M1267.6,267.8l35.6-161.2l-89.6,161.2h-25.2l-18-161.2l-35.6,161.2H1070
			L1128.8,1h84l14.8,136L1304,1h86.8L1332,267.8H1267.6z"/>
	</g>
</g>
</svg>
