<?xml version="1.0" encoding="iso-8859-1"?>
<!-- Generator: Adobe Illustrator 18.1.1, SVG Export Plug-In . SVG Version: 6.00 Build 0)  -->
<svg version="1.1" id="Layer_1" xmlns="http://www.w3.org/2000/svg" xmlns:xlink="http://www.w3.org/1999/xlink" x="0px" y="0px"
	 viewBox="0 201.8 500 104.9" style="enable-background:new 0 201.8 500 104.9;" xml:space="preserve">
<style type="text/css">
	.st0{fill:#ED1C25;}
	.st1{fill:#8B9698;}
	.st2{fill:#33414F;}
	.st3{fill:none;}
	.st4{fill:none;stroke:#333479;stroke-width:2;}
	.st5{fill:url(#SVGID_1_);}
	.st6{fill:url(#SVGID_2_);}
	.st7{fill:url(#SVGID_3_);}
	.st8{fill:url(#SVGID_4_);}
	.st9{fill:url(#SVGID_5_);}
	.st10{fill:url(#SVGID_6_);}
	.st11{fill:none;stroke:#BBCCE0;stroke-width:2;}
	.st12{fill:none;stroke:#7EA6CF;stroke-width:2;}
</style>
<path class="st0" d="M0,201.8h189v33.9H0V201.8z"/>
<path class="st1" d="M189.2,254.4l19.5-19.5l19.5,19.5l-19.5,19.5L189.2,254.4z"/>
<path class="st2" d="M225.7,272.8H500v33.9H225.7L225.7,272.8z"/>
<path class="st3" d="M189,219.1h19.8"/>
<path class="st4" d="M208.7,236v-17"/>
<path class="st3" d="M189,219.1h19.8 M208.7,272.8v17"/>
<path class="st4" d="M208.7,289.8h17"/>
<path class="st3" d="M208.7,289.8v-16.9"/>
<path class="st4" d="M189,219.1h19.8 M208.7,289.8v-16.9"/>
<radialGradient id="SVGID_1_" cx="136.735" cy="-747.657" r="377.156" gradientTransform="matrix(0.781 0 0 0.781 123.5968 772.7609)" gradientUnits="userSpaceOnUse">
	<stop  offset="0" style="stop-color:#BCD9E7"/>
	<stop  offset="1.100000e-02" style="stop-color:#B0D5E6"/>
	<stop  offset="6.400000e-02" style="stop-color:#7BC4E1"/>
	<stop  offset="0.116" style="stop-color:#4FB6DE"/>
	<stop  offset="0.166" style="stop-color:#2DABDB"/>
	<stop  offset="0.213" style="stop-color:#14A3D9"/>
	<stop  offset="0.257" style="stop-color:#059FD7"/>
	<stop  offset="0.292" style="stop-color:#009DD7"/>
	<stop  offset="0.646" style="stop-color:#007299"/>
	<stop  offset="0.896" style="stop-color:#1E426E"/>
	<stop  offset="1" style="stop-color:#2C2C5B"/>
</radialGradient>
<path class="st5" d="M5.9,295v-92.5h37.2c20.1,0,30.1,14.1,30.1,30.5c0,16.2-10,30.2-30.1,30.2H28.4V295H5.9z M50.4,232.9
	c0-6.8-4.2-10.8-10.1-10.8H28.4v21.6h11.9C46.3,243.7,50.4,239.7,50.4,232.9z"/>
<radialGradient id="SVGID_2_" cx="136.735" cy="-747.657" r="377.156" gradientTransform="matrix(0.781 0 0 0.781 123.5968 772.7609)" gradientUnits="userSpaceOnUse">
	<stop  offset="0" style="stop-color:#BCD9E7"/>
	<stop  offset="1.100000e-02" style="stop-color:#B0D5E6"/>
	<stop  offset="6.400000e-02" style="stop-color:#7BC4E1"/>
	<stop  offset="0.116" style="stop-color:#4FB6DE"/>
	<stop  offset="0.166" style="stop-color:#2DABDB"/>
	<stop  offset="0.213" style="stop-color:#14A3D9"/>
	<stop  offset="0.257" style="stop-color:#059FD7"/>
	<stop  offset="0.292" style="stop-color:#009DD7"/>
	<stop  offset="0.646" style="stop-color:#007299"/>
	<stop  offset="0.896" style="stop-color:#1E426E"/>
	<stop  offset="1" style="stop-color:#2C2C5B"/>
</radialGradient>
<path class="st6" d="M82.3,295v-67h20.1v8.5c3.5-5.5,11.2-10.3,17.9-10.3v19.4c-1.1-0.3-2.6-0.6-4.3-0.6c-4.9,0-10.8,2.6-13.6,6.7
	V295H82.3L82.3,295z"/>
<radialGradient id="SVGID_3_" cx="136.735" cy="-747.657" r="377.156" gradientTransform="matrix(0.781 0 0 0.781 123.5968 772.7609)" gradientUnits="userSpaceOnUse">
	<stop  offset="0" style="stop-color:#BCD9E7"/>
	<stop  offset="1.100000e-02" style="stop-color:#B0D5E6"/>
	<stop  offset="6.400000e-02" style="stop-color:#7BC4E1"/>
	<stop  offset="0.116" style="stop-color:#4FB6DE"/>
	<stop  offset="0.166" style="stop-color:#2DABDB"/>
	<stop  offset="0.213" style="stop-color:#14A3D9"/>
	<stop  offset="0.257" style="stop-color:#059FD7"/>
	<stop  offset="0.292" style="stop-color:#009DD7"/>
	<stop  offset="0.646" style="stop-color:#007299"/>
	<stop  offset="0.896" style="stop-color:#1E426E"/>
	<stop  offset="1" style="stop-color:#2C2C5B"/>
</radialGradient>
<path class="st7" d="M125.3,261.4c0-18.7,11-35.1,31.8-35.1s31.9,16.4,31.9,35.1c0,18.7-11.1,35.2-31.9,35.2
	S125.3,280.1,125.3,261.4L125.3,261.4z M168.3,261.4c0-9.7-3.5-17.3-11.2-17.3c-7.6,0-11.1,7.6-11.1,17.3c0,9.8,3.5,17.5,11.1,17.5
	C164.8,278.9,168.3,271.3,168.3,261.4L168.3,261.4z"/>
<radialGradient id="SVGID_4_" cx="136.735" cy="-747.657" r="377.156" gradientTransform="matrix(0.781 0 0 0.781 123.5968 772.7609)" gradientUnits="userSpaceOnUse">
	<stop  offset="0" style="stop-color:#BCD9E7"/>
	<stop  offset="1.100000e-02" style="stop-color:#B0D5E6"/>
	<stop  offset="6.400000e-02" style="stop-color:#7BC4E1"/>
	<stop  offset="0.116" style="stop-color:#4FB6DE"/>
	<stop  offset="0.166" style="stop-color:#2DABDB"/>
	<stop  offset="0.213" style="stop-color:#14A3D9"/>
	<stop  offset="0.257" style="stop-color:#059FD7"/>
	<stop  offset="0.292" style="stop-color:#009DD7"/>
	<stop  offset="0.646" style="stop-color:#007299"/>
	<stop  offset="0.896" style="stop-color:#1E426E"/>
	<stop  offset="1" style="stop-color:#2C2C5B"/>
</radialGradient>
<path class="st8" d="M220.7,295l0.5-2.2l2.1-9.7l17.8-80.6h35.4c15.4,0,25.7,11.4,25.7,25.7c0,15.8-10.3,35.1-37.4,35.1h-14.6
	l-4.6,21.4l-1,4.8l-1.2,5.6L220.7,295L220.7,295z M266.2,243.7c7.5,0,12.6-6.2,12.6-13.2c0-5.3-3.3-8.5-8.3-8.5h-11.2l-4.7,21.6
	H266.2L266.2,243.7z"/>
<radialGradient id="SVGID_5_" cx="136.735" cy="-747.657" r="377.156" gradientTransform="matrix(0.781 0 0 0.781 123.5968 772.7609)" gradientUnits="userSpaceOnUse">
	<stop  offset="0" style="stop-color:#BCD9E7"/>
	<stop  offset="1.100000e-02" style="stop-color:#B0D5E6"/>
	<stop  offset="6.400000e-02" style="stop-color:#7BC4E1"/>
	<stop  offset="0.116" style="stop-color:#4FB6DE"/>
	<stop  offset="0.166" style="stop-color:#2DABDB"/>
	<stop  offset="0.213" style="stop-color:#14A3D9"/>
	<stop  offset="0.257" style="stop-color:#059FD7"/>
	<stop  offset="0.292" style="stop-color:#009DD7"/>
	<stop  offset="0.646" style="stop-color:#007299"/>
	<stop  offset="0.896" style="stop-color:#1E426E"/>
	<stop  offset="1" style="stop-color:#2C2C5B"/>
</radialGradient>
<path class="st9" d="M297.8,295l20.4-92.5h35.4c15.4,0,25.7,11.4,25.7,25.7c0,15.8-10.3,35.1-37.4,35.1h-14.6l-6.9,31.8H297.8
	L297.8,295z M343.3,243.7c7.5,0,12.6-6.2,12.6-13.2c0-5.3-3.3-8.5-8.3-8.5h-11.2l-4.7,21.6H343.3z"/>
<radialGradient id="SVGID_6_" cx="136.735" cy="-747.657" r="377.156" gradientTransform="matrix(0.781 0 0 0.781 123.5968 772.7609)" gradientUnits="userSpaceOnUse">
	<stop  offset="0" style="stop-color:#BCD9E7"/>
	<stop  offset="1.100000e-02" style="stop-color:#B0D5E6"/>
	<stop  offset="6.400000e-02" style="stop-color:#7BC4E1"/>
	<stop  offset="0.116" style="stop-color:#4FB6DE"/>
	<stop  offset="0.166" style="stop-color:#2DABDB"/>
	<stop  offset="0.213" style="stop-color:#14A3D9"/>
	<stop  offset="0.257" style="stop-color:#059FD7"/>
	<stop  offset="0.292" style="stop-color:#009DD7"/>
	<stop  offset="0.646" style="stop-color:#007299"/>
	<stop  offset="0.896" style="stop-color:#1E426E"/>
	<stop  offset="1" style="stop-color:#2C2C5B"/>
</radialGradient>
<path class="st10" d="M443.4,295l12.3-55.9L424.7,295h-8.7l-6.2-55.9L397.4,295h-22.5l20.4-92.5h29.1l5.1,47.1l26.5-47.1h30.1
	L465.7,295C465.7,295,443.4,295,443.4,295z"/>
<g>
	<path class="st4" d="M6.3,295.3v-92.5h37.2c20.1,0,30.1,14.1,30.1,30.5c0,16.2-10,30.2-30.1,30.2H28.7v31.8H6.3z M50.8,233.2
		c0-6.8-4.2-10.8-10.1-10.8H28.7V244h11.9C46.6,244,50.8,240,50.8,233.2z M82.7,295.3v-67h20.1v8.5c3.5-5.5,11.2-10.3,17.9-10.3V246
		c-1.1-0.3-2.6-0.6-4.3-0.6c-4.9,0-10.8,2.6-13.6,6.7v43.3L82.7,295.3L82.7,295.3z M125.7,261.8c0-18.7,11-35.1,31.8-35.1
		s31.9,16.4,31.9,35.1c0,18.7-11.1,35.2-31.9,35.2S125.7,280.5,125.7,261.8L125.7,261.8z M168.6,261.8c0-9.7-3.5-17.3-11.2-17.3
		c-7.6,0-11.1,7.6-11.1,17.3c0,9.8,3.5,17.5,11.1,17.5C165.2,279.2,168.6,271.6,168.6,261.8L168.6,261.8z M221.1,295.3l0.5-2.2
		l2.1-9.7l17.8-80.6h35.4c15.4,0,25.7,11.4,25.7,25.7c0,15.8-10.3,35.1-37.4,35.1h-14.6l-4.6,21.4l-1,4.8l-1.2,5.6L221.1,295.3
		L221.1,295.3z M266.5,244c7.5,0,12.6-6.2,12.6-13.2c0-5.3-3.3-8.5-8.3-8.5h-11.2l-4.7,21.6L266.5,244L266.5,244z M298.1,295.3
		l20.4-92.5h35.4c15.4,0,25.7,11.4,25.7,25.7c0,15.8-10.3,35.1-37.4,35.1h-14.6l-6.9,31.8H298.1L298.1,295.3z M343.6,244
		c7.5,0,12.6-6.2,12.6-13.2c0-5.3-3.3-8.5-8.3-8.5h-11.2L332,244L343.6,244L343.6,244z M443.7,295.3l12.3-55.9L425,295.3h-8.7
		l-6.2-55.9l-12.3,55.9h-22.5l20.4-92.5h29.1l5.1,47.1l26.5-47.1h30.1l-20.4,92.5H443.7L443.7,295.3z"/>
</g>
<g>
	<path class="st11" d="M5.6,294.6v-92.5h37.2c20.1,0,30.1,14.1,30.1,30.5c0,16.2-10,30.2-30.1,30.2H28v31.8
		C28,294.6,5.6,294.6,5.6,294.6z M50.1,232.5c0-6.8-4.2-10.8-10.1-10.8H28v21.6H40C45.9,243.3,50.1,239.3,50.1,232.5L50.1,232.5z
		 M82,294.6v-67h20.1v8.5c3.5-5.5,11.2-10.3,17.9-10.3v19.4c-1.1-0.3-2.6-0.6-4.3-0.6c-4.9,0-10.8,2.6-13.6,6.7v43.3L82,294.6
		L82,294.6z M125,261.1c0-18.7,11-35.1,31.8-35.1s31.9,16.4,31.9,35.1s-11.1,35.2-31.9,35.2S125,279.8,125,261.1L125,261.1z
		 M167.9,261.1c0-9.7-3.5-17.3-11.2-17.3c-7.6,0-11.1,7.6-11.1,17.3c0,9.8,3.5,17.5,11.1,17.5C164.5,278.5,167.9,270.9,167.9,261.1
		L167.9,261.1z M220.4,294.6l0.5-2.2l2.1-9.7l17.8-80.6h35.4c15.4,0,25.7,11.4,25.7,25.7c0,15.8-10.3,35.1-37.4,35.1h-14.6
		l-4.6,21.4l-1,4.8l-1.2,5.6L220.4,294.6L220.4,294.6z M265.8,243.3c7.5,0,12.6-6.2,12.6-13.2c0-5.3-3.3-8.5-8.3-8.5h-11.2
		l-4.7,21.6L265.8,243.3L265.8,243.3z M297.5,294.6l20.4-92.5h35.4c15.4,0,25.7,11.4,25.7,25.7c0,15.8-10.3,35.1-37.4,35.1h-14.6
		l-6.9,31.8H297.5L297.5,294.6z M342.9,243.3c7.5,0,12.6-6.2,12.6-13.2c0-5.3-3.3-8.5-8.3-8.5H336l-4.7,21.6L342.9,243.3
		L342.9,243.3z M443,294.6l12.3-55.9l-31.1,55.9h-8.7l-6.2-55.9L397,294.6h-22.5l20.4-92.5H424l5.1,47.1l26.5-47.1h30.1l-20.4,92.5
		L443,294.6L443,294.6z"/>
</g>
<g>
	<path class="st12" d="M5.9,295v-92.5h37.2c20.1,0,30.1,14.1,30.1,30.5c0,16.2-10,30.2-30.1,30.2H28.4V295H5.9z M50.4,232.9
		c0-6.8-4.2-10.8-10.1-10.8H28.4v21.6h11.9C46.3,243.7,50.4,239.7,50.4,232.9z M82.3,295v-67h20.1v8.5c3.5-5.5,11.2-10.3,17.9-10.3
		v19.4c-1.1-0.3-2.6-0.6-4.3-0.6c-4.9,0-10.8,2.6-13.6,6.7V295H82.3L82.3,295z M125.3,261.4c0-18.7,11-35.1,31.8-35.1
		s31.9,16.4,31.9,35.1c0,18.7-11.1,35.2-31.9,35.2S125.3,280.1,125.3,261.4L125.3,261.4z M168.3,261.4c0-9.7-3.5-17.3-11.2-17.3
		c-7.6,0-11.1,7.6-11.1,17.3c0,9.8,3.5,17.5,11.1,17.5C164.8,278.9,168.3,271.3,168.3,261.4L168.3,261.4z M220.7,295l0.5-2.2
		l2.1-9.7l17.8-80.6h35.4c15.4,0,25.7,11.4,25.7,25.7c0,15.8-10.3,35.1-37.4,35.1h-14.6l-4.6,21.4l-1,4.8l-1.2,5.6L220.7,295
		L220.7,295z M266.2,243.7c7.5,0,12.6-6.2,12.6-13.2c0-5.3-3.3-8.5-8.3-8.5h-11.2l-4.7,21.6H266.2L266.2,243.7z M297.8,295
		l20.4-92.5h35.4c15.4,0,25.7,11.4,25.7,25.7c0,15.8-10.3,35.1-37.4,35.1h-14.6l-6.9,31.8H297.8L297.8,295z M343.3,243.7
		c7.5,0,12.6-6.2,12.6-13.2c0-5.3-3.3-8.5-8.3-8.5h-11.2l-4.7,21.6H343.3z M443.4,295l12.3-55.9L424.7,295h-8.7l-6.2-55.9L397.4,295
		h-22.5l20.4-92.5h29.1l5.1,47.1l26.5-47.1h30.1L465.7,295C465.7,295,443.4,295,443.4,295z"/>
</g>
</svg>
