<svg xmlns="http://www.w3.org/2000/svg" viewBox="0 0 469.268 106.48"><path fill="#ED1C25" d="M0 8h177.342v31.818H0z"/><path fill="#8B9698" d="M177.584 57.404l18.29-18.288 18.287 18.288-18.287 18.288z"/><path fill="#33414F" d="M211.828 74.662h257.44v31.818H211.83z"/><path fill="none" d="M177.342 24.234h18.544"/><path fill="none" stroke="#333479" stroke-width="2" d="M195.886 40.143v-15.91"/><path fill="none" d="M177.342 24.234h18.544M195.886 74.662v15.91"/><path fill="none" stroke="#333479" stroke-width="2" d="M195.886 90.57h15.942"/><path fill="none" d="M195.886 90.57V74.663"/><path fill="none" stroke="#333479" stroke-width="2" d="M177.342 24.234h18.544M195.886 90.57V74.663"/><radialGradient id="a" cx="136.735" cy="1247.657" r="377.156" gradientTransform="matrix(.733 0 0 -.733 116 910.37)" gradientUnits="userSpaceOnUse"><stop offset="0" stop-color="#BCD9E7"/><stop offset=".011" stop-color="#B0D5E6"/><stop offset=".064" stop-color="#7BC4E1"/><stop offset=".116" stop-color="#4FB6DE"/><stop offset=".166" stop-color="#2DABDB"/><stop offset=".213" stop-color="#14A3D9"/><stop offset=".257" stop-color="#059FD7"/><stop offset=".292" stop-color="#009DD7"/><stop offset=".646" stop-color="#007299"/><stop offset=".896" stop-color="#1E426E"/><stop offset="1" stop-color="#2C2C5B"/></radialGradient><path d="M5.563 95.45V8.65H40.44c18.87 0 28.24 13.275 28.24 28.63 0 15.227-9.37 28.37-28.24 28.37H26.645v29.8H5.563zm41.774-58.3c0-6.377-3.904-10.15-9.5-10.15H26.645v20.3h11.192c5.596 0 9.5-3.773 9.5-10.15z" fill="url(#a)"/><radialGradient id="b" cx="136.735" cy="1247.657" r="377.156" gradientTransform="matrix(.733 0 0 -.733 116 910.37)" gradientUnits="userSpaceOnUse"><stop offset="0" stop-color="#BCD9E7"/><stop offset=".011" stop-color="#B0D5E6"/><stop offset=".064" stop-color="#7BC4E1"/><stop offset=".116" stop-color="#4FB6DE"/><stop offset=".166" stop-color="#2DABDB"/><stop offset=".213" stop-color="#14A3D9"/><stop offset=".257" stop-color="#059FD7"/><stop offset=".292" stop-color="#009DD7"/><stop offset=".646" stop-color="#007299"/><stop offset=".896" stop-color="#1E426E"/><stop offset="1" stop-color="#2C2C5B"/></radialGradient><path d="M77.268 95.45V32.597h18.87v7.938c3.253-5.205 10.54-9.63 16.787-9.63v18.22c-1.04-.26-2.473-.522-4.034-.522-4.554 0-10.15 2.473-12.752 6.246V95.45h-18.87z" fill="url(#b)"/><radialGradient id="c" cx="136.735" cy="1247.657" r="377.156" gradientTransform="matrix(.733 0 0 -.733 116 910.37)" gradientUnits="userSpaceOnUse"><stop offset="0" stop-color="#BCD9E7"/><stop offset=".011" stop-color="#B0D5E6"/><stop offset=".064" stop-color="#7BC4E1"/><stop offset=".116" stop-color="#4FB6DE"/><stop offset=".166" stop-color="#2DABDB"/><stop offset=".213" stop-color="#14A3D9"/><stop offset=".257" stop-color="#059FD7"/><stop offset=".292" stop-color="#009DD7"/><stop offset=".646" stop-color="#007299"/><stop offset=".896" stop-color="#1E426E"/><stop offset="1" stop-color="#2C2C5B"/></radialGradient><path d="M117.61 63.958c0-17.568 10.28-32.924 29.8-32.924s29.932 15.356 29.932 32.924-10.41 33.054-29.93 33.054-29.802-15.486-29.802-33.054zm40.342 0c0-9.11-3.253-16.267-10.54-16.267C140.253 47.69 137 54.85 137 63.96c0 9.24 3.253 16.397 10.41 16.397 7.288 0 10.542-7.157 10.542-16.397z" fill="url(#c)"/><radialGradient id="d" cx="136.735" cy="1247.657" r="377.156" gradientTransform="matrix(.733 0 0 -.733 116 910.37)" gradientUnits="userSpaceOnUse"><stop offset="0" stop-color="#BCD9E7"/><stop offset=".011" stop-color="#B0D5E6"/><stop offset=".064" stop-color="#7BC4E1"/><stop offset=".116" stop-color="#4FB6DE"/><stop offset=".166" stop-color="#2DABDB"/><stop offset=".213" stop-color="#14A3D9"/><stop offset=".257" stop-color="#059FD7"/><stop offset=".292" stop-color="#009DD7"/><stop offset=".646" stop-color="#007299"/><stop offset=".896" stop-color="#1E426E"/><stop offset="1" stop-color="#2C2C5B"/></radialGradient><path d="M207.143 95.45l.455-2.08 1.985-9.078 16.69-75.64h33.184c14.445 0 24.075 10.67 24.075 24.074 0 14.835-9.63 32.924-35.137 32.924H234.73l-4.36 20.04-.975 4.523-1.14 5.238h-21.112zm42.684-48.15c7.027 0 11.842-5.855 11.842-12.362 0-4.945-3.124-7.938-7.81-7.938h-10.54l-4.425 20.3h10.932z" fill="url(#d)"/><radialGradient id="e" cx="136.735" cy="1247.657" r="377.156" gradientTransform="matrix(.733 0 0 -.733 116 910.37)" gradientUnits="userSpaceOnUse"><stop offset="0" stop-color="#BCD9E7"/><stop offset=".011" stop-color="#B0D5E6"/><stop offset=".064" stop-color="#7BC4E1"/><stop offset=".116" stop-color="#4FB6DE"/><stop offset=".166" stop-color="#2DABDB"/><stop offset=".213" stop-color="#14A3D9"/><stop offset=".257" stop-color="#059FD7"/><stop offset=".292" stop-color="#009DD7"/><stop offset=".646" stop-color="#007299"/><stop offset=".896" stop-color="#1E426E"/><stop offset="1" stop-color="#2C2C5B"/></radialGradient><path d="M279.498 95.45l19.13-86.8h33.184c14.445 0 24.075 10.672 24.075 24.076 0 14.835-9.63 32.924-35.137 32.924h-13.664l-6.507 29.8h-21.082zm42.684-48.15c7.027 0 11.842-5.855 11.842-12.362 0-4.945-3.123-7.938-7.808-7.938h-10.54l-4.426 20.3h10.932z" fill="url(#e)"/><radialGradient id="f" cx="136.735" cy="1247.657" r="377.156" gradientTransform="matrix(.733 0 0 -.733 116 910.37)" gradientUnits="userSpaceOnUse"><stop offset="0" stop-color="#BCD9E7"/><stop offset=".011" stop-color="#B0D5E6"/><stop offset=".064" stop-color="#7BC4E1"/><stop offset=".116" stop-color="#4FB6DE"/><stop offset=".166" stop-color="#2DABDB"/><stop offset=".213" stop-color="#14A3D9"/><stop offset=".257" stop-color="#059FD7"/><stop offset=".292" stop-color="#009DD7"/><stop offset=".646" stop-color="#007299"/><stop offset=".896" stop-color="#1E426E"/><stop offset="1" stop-color="#2C2C5B"/></radialGradient><path d="M416.14 95.45l11.582-52.444-29.15 52.445h-8.2l-5.855-52.444-11.582 52.445h-21.082l19.13-86.8h27.328l4.816 44.247L427.982 8.65h28.24l-19.13 86.8H416.14z" fill="url(#f)"/><g fill="none" stroke="#333479" stroke-width="2"><path d="M5.89 95.776v-86.8h34.875c18.87 0 28.24 13.274 28.24 28.63 0 15.226-9.37 28.37-28.24 28.37H26.97v29.8H5.89zm41.772-58.3c0-6.377-3.904-10.15-9.5-10.15h-11.19v20.3h11.19c5.596 0 9.5-3.774 9.5-10.15zM77.593 95.776V32.92h18.87v7.94c3.253-5.206 10.54-9.63 16.787-9.63v18.218c-1.04-.26-2.473-.52-4.034-.52-4.555 0-10.15 2.472-12.753 6.245v40.602h-18.87zM117.935 64.283c0-17.568 10.28-32.924 29.8-32.924s29.932 15.355 29.932 32.923-10.41 33.054-29.93 33.054-29.802-15.485-29.802-33.054zm40.342 0c0-9.11-3.253-16.267-10.54-16.267-7.158 0-10.412 7.157-10.412 16.267 0 9.24 3.253 16.397 10.41 16.397 7.29 0 10.542-7.157 10.542-16.397zM207.468 95.776l.455-2.082 1.985-9.077 16.69-75.64h33.184c14.445 0 24.075 10.67 24.075 24.074 0 14.836-9.63 32.925-35.137 32.925h-13.664l-4.36 20.04-.976 4.523-1.14 5.238H207.47zm42.684-48.15c7.027 0 11.842-5.856 11.842-12.363 0-4.945-3.123-7.938-7.808-7.938h-10.54l-4.426 20.3h10.932zM279.823 95.776l19.13-86.8h33.185c14.445 0 24.075 10.67 24.075 24.075 0 14.836-9.63 32.925-35.137 32.925h-13.664l-6.507 29.8h-21.082zm42.685-48.15c7.027 0 11.842-5.856 11.842-12.363 0-4.945-3.123-7.938-7.808-7.938h-10.54l-4.426 20.3h10.932zM416.465 95.776l11.582-52.444-29.15 52.444H390.7l-5.857-52.444-11.583 52.444h-21.082l19.13-86.8h27.328l4.815 44.246 24.857-44.246h28.24l-19.13 86.8h-20.952z"/></g><g fill="none" stroke="#BBCCE0" stroke-width="2"><path d="M5.238 95.126v-86.8h34.876c18.87 0 28.24 13.274 28.24 28.63 0 15.226-9.37 28.37-28.24 28.37H26.32v29.8H5.238zm41.773-58.3c0-6.378-3.903-10.152-9.5-10.152H26.32v20.3h11.192c5.595.002 9.5-3.772 9.5-10.15zM76.942 95.126V32.27h18.87v7.938c3.253-5.205 10.54-9.63 16.787-9.63v18.22c-1.042-.26-2.474-.522-4.035-.522-4.555 0-10.15 2.473-12.753 6.246v40.602h-18.87zM117.284 63.633c0-17.568 10.28-32.924 29.8-32.924s29.932 15.355 29.932 32.923-10.41 33.054-29.93 33.054-29.802-15.486-29.802-33.054zm40.342 0c0-9.11-3.253-16.267-10.54-16.267-7.158 0-10.412 7.157-10.412 16.267 0 9.24 3.253 16.397 10.41 16.397 7.29 0 10.542-7.158 10.542-16.397zM206.817 95.126l.455-2.082 1.985-9.077 16.69-75.64h33.184c14.446 0 24.076 10.67 24.076 24.074 0 14.836-9.63 32.925-35.137 32.925h-13.665l-4.36 20.04-.976 4.523-1.14 5.238H206.817zm42.685-48.15c7.027 0 11.842-5.856 11.842-12.363 0-4.945-3.123-7.938-7.808-7.938h-10.54l-4.426 20.3h10.932zM279.173 95.126l19.13-86.8h33.184c14.445 0 24.075 10.67 24.075 24.075 0 14.836-9.63 32.925-35.137 32.925H306.76l-6.506 29.8h-21.08zm42.684-48.15c7.027 0 11.842-5.856 11.842-12.363 0-4.945-3.124-7.938-7.81-7.938h-10.54l-4.425 20.3h10.932zM415.815 95.126l11.582-52.445-29.15 52.446h-8.2l-5.855-52.445-11.582 52.446h-21.082l19.13-86.8h27.328l4.815 44.246 24.857-44.246h28.24l-19.13 86.8h-20.952z"/></g><g fill="none" stroke="#7EA6CF" stroke-width="2"><path d="M5.563 95.45V8.65H40.44c18.87 0 28.24 13.275 28.24 28.63 0 15.227-9.37 28.37-28.24 28.37H26.645v29.8H5.563zm41.774-58.3c0-6.377-3.904-10.15-9.5-10.15H26.645v20.3h11.192c5.596 0 9.5-3.773 9.5-10.15zM77.268 95.45V32.597h18.87v7.938c3.253-5.205 10.54-9.63 16.787-9.63v18.22c-1.04-.26-2.473-.522-4.034-.522-4.554 0-10.15 2.473-12.752 6.246V95.45h-18.87zM117.61 63.958c0-17.568 10.28-32.924 29.8-32.924s29.932 15.356 29.932 32.924-10.41 33.054-29.93 33.054-29.802-15.486-29.802-33.054zm40.342 0c0-9.11-3.253-16.267-10.54-16.267C140.253 47.69 137 54.85 137 63.96c0 9.24 3.253 16.397 10.41 16.397 7.288 0 10.542-7.157 10.542-16.397zM207.143 95.45l.455-2.08 1.985-9.078 16.69-75.64h33.184c14.445 0 24.075 10.67 24.075 24.074 0 14.835-9.63 32.924-35.137 32.924H234.73l-4.36 20.04-.975 4.523-1.14 5.238h-21.112zm42.684-48.15c7.027 0 11.842-5.855 11.842-12.362 0-4.945-3.124-7.938-7.81-7.938h-10.54l-4.425 20.3h10.932zM279.498 95.45l19.13-86.8h33.184c14.445 0 24.075 10.672 24.075 24.076 0 14.835-9.63 32.924-35.137 32.924h-13.664l-6.507 29.8h-21.082zm42.684-48.15c7.027 0 11.842-5.855 11.842-12.362 0-4.945-3.123-7.938-7.808-7.938h-10.54l-4.426 20.3h10.932zM416.14 95.45l11.582-52.444-29.15 52.445h-8.2l-5.855-52.444-11.582 52.445h-21.082l19.13-86.8h27.328l4.816 44.247L427.982 8.65h28.24l-19.13 86.8H416.14z"/></g></svg>