<?xml version="1.0" encoding="iso-8859-1"?>
<!-- Generator: Adobe Illustrator 18.1.1, SVG Export Plug-In . SVG Version: 6.00 Build 0)  -->
<svg version="1.1" id="Layer_1" xmlns="http://www.w3.org/2000/svg" xmlns:xlink="http://www.w3.org/1999/xlink" x="0px" y="0px"
	 viewBox="0 0 500 500" style="enable-background:new 0 0 500 500;" xml:space="preserve">
<rect x="-19" y="-31" style="fill:#ECF0F1;" width="542" height="573.8"/>
<path style="fill:#646464;" d="M303.5,261.7h-43.8c-1.9,0-3.5-1.6-3.5-3.5l0,0c0-1.9,1.6-3.5,3.5-3.5h43.8c1.9,0,3.5,1.6,3.5,3.5
	l0,0C307,260.2,305.4,261.7,303.5,261.7z"/>
<path style="fill:#646464;" d="M370.4,478h-70.5c-3.1,0-5.6-2.5-5.6-5.6l0,0c0-3.1,2.5-5.6,5.6-5.6h70.5c3.1,0,5.6,2.5,5.6,5.6l0,0
	C376,475.5,373.5,478,370.4,478z"/>
<rect x="296.3" y="260.9" style="fill:#646464;" width="10.8" height="214.6"/>
<rect x="237" y="152" style="fill:#646464;" width="11" height="129.2"/>
<rect x="157.5" y="151.7" style="fill:#646464;" width="81.8" height="11.3"/>
<g>
	<defs>
		<rect id="SVGID_1_" x="-90.2" y="-87.7" width="1150.2" height="383.4"/>
	</defs>
	<clipPath id="SVGID_2_">
		<use xlink:href="#SVGID_1_"  style="overflow:visible;"/>
	</clipPath>
	<rect x="-214.6" y="103" style="clip-path:url(#SVGID_2_);fill:#ED1C25;" width="374.7" height="105"/>
	
		<rect x="136.3" y="430.4" transform="matrix(0.7071 -0.7071 0.7071 0.7071 -275.727 249.7773)" style="clip-path:url(#SVGID_2_);fill:#8B9698;" width="54.6" height="54.6"/>
	<rect x="-121.6" y="459.9" style="clip-path:url(#SVGID_2_);fill:#33414F;" width="520.9" height="67.2"/>
	<line style="clip-path:url(#SVGID_2_);fill:none;stroke:#333479;stroke-width:2;" x1="1460.2" y1="582" x2="1493.9" y2="582"/>
	
		<line style="clip-path:url(#SVGID_2_);fill:none;stroke:#333479;stroke-width:2;" x1="2262.8" y1="-335.2" x2="2301.9" y2="-335.2"/>
	<g style="clip-path:url(#SVGID_2_);">
		<defs>
			<path id="SVGID_3_" d="M60,39.4h23.6c11.8,0,20.1,8,20.1,21.4c0,13.5-8.3,21.4-20.1,21.4H60V39.4z M15.5,0.6V184H60v-63h29.1
				c39.9,0,59.7-27.8,59.7-59.9c0-32.4-19.8-60.5-59.7-60.5H15.5z"/>
		</defs>
		<clipPath id="SVGID_4_">
			<use xlink:href="#SVGID_3_"  style="overflow:visible;"/>
		</clipPath>
		
			<radialGradient id="SVGID_5_" cx="2.0891" cy="0.3814" r="3.8339" gradientTransform="matrix(152.2888 0 0 152.2888 142.319 -83.8397)" gradientUnits="userSpaceOnUse">
			<stop  offset="0" style="stop-color:#BCD9E7"/>
			<stop  offset="1.101340e-02" style="stop-color:#B0D5E6"/>
			<stop  offset="6.426680e-02" style="stop-color:#7BC4E1"/>
			<stop  offset="0.1164" style="stop-color:#4FB6DE"/>
			<stop  offset="0.1663" style="stop-color:#2DABDB"/>
			<stop  offset="0.2134" style="stop-color:#14A3D9"/>
			<stop  offset="0.2566" style="stop-color:#059FD7"/>
			<stop  offset="0.2921" style="stop-color:#009DD7"/>
			<stop  offset="0.6461" style="stop-color:#007299"/>
			<stop  offset="0.8959" style="stop-color:#1E426E"/>
			<stop  offset="1" style="stop-color:#2C2C5B"/>
		</radialGradient>
		<rect x="15.5" y="0.6" style="clip-path:url(#SVGID_4_);fill:url(#SVGID_5_);" width="133.3" height="183.4"/>
	</g>
	<g style="clip-path:url(#SVGID_2_);">
		<defs>
			<path id="SVGID_6_" d="M206.8,68V51.2H167V184h39.9V98.2c5.5-8,17.3-13.2,26.9-13.2c3.3,0,6.3,0.6,8.5,1.1V47.6
				C229.1,47.6,213.7,57,206.8,68"/>
		</defs>
		<clipPath id="SVGID_7_">
			<use xlink:href="#SVGID_6_"  style="overflow:visible;"/>
		</clipPath>
		
			<radialGradient id="SVGID_8_" cx="2.0891" cy="0.3814" r="3.8339" gradientTransform="matrix(152.2888 0 0 152.2888 142.319 -83.8397)" gradientUnits="userSpaceOnUse">
			<stop  offset="0" style="stop-color:#BCD9E7"/>
			<stop  offset="1.101340e-02" style="stop-color:#B0D5E6"/>
			<stop  offset="6.426680e-02" style="stop-color:#7BC4E1"/>
			<stop  offset="0.1164" style="stop-color:#4FB6DE"/>
			<stop  offset="0.1663" style="stop-color:#2DABDB"/>
			<stop  offset="0.2134" style="stop-color:#14A3D9"/>
			<stop  offset="0.2566" style="stop-color:#059FD7"/>
			<stop  offset="0.2921" style="stop-color:#009DD7"/>
			<stop  offset="0.6461" style="stop-color:#007299"/>
			<stop  offset="0.8959" style="stop-color:#1E426E"/>
			<stop  offset="1" style="stop-color:#2C2C5B"/>
		</radialGradient>
		<rect x="167" y="47.6" style="clip-path:url(#SVGID_7_);fill:url(#SVGID_8_);" width="75.3" height="136.4"/>
	</g>
	<g style="clip-path:url(#SVGID_2_);">
		<defs>
			<path id="SVGID_9_" d="M293.2,117.5c0-19.3,6.9-34.4,22-34.4c15.4,0,22.3,15.1,22.3,34.4c0,19.5-6.9,34.6-22.3,34.6
				C300,152.1,293.2,137,293.2,117.5 M252.2,117.5c0,37.1,21.7,69.8,63,69.8c41.2,0,63.2-32.7,63.2-69.8c0-37.1-22-69.6-63.2-69.6
				C273.9,47.9,252.2,80.4,252.2,117.5"/>
		</defs>
		<clipPath id="SVGID_10_">
			<use xlink:href="#SVGID_9_"  style="overflow:visible;"/>
		</clipPath>
		
			<radialGradient id="SVGID_11_" cx="2.0891" cy="0.3814" r="3.8339" gradientTransform="matrix(152.2888 0 0 152.2888 142.319 -83.8397)" gradientUnits="userSpaceOnUse">
			<stop  offset="0" style="stop-color:#BCD9E7"/>
			<stop  offset="1.101340e-02" style="stop-color:#B0D5E6"/>
			<stop  offset="6.426680e-02" style="stop-color:#7BC4E1"/>
			<stop  offset="0.1164" style="stop-color:#4FB6DE"/>
			<stop  offset="0.1663" style="stop-color:#2DABDB"/>
			<stop  offset="0.2134" style="stop-color:#14A3D9"/>
			<stop  offset="0.2566" style="stop-color:#059FD7"/>
			<stop  offset="0.2921" style="stop-color:#009DD7"/>
			<stop  offset="0.6461" style="stop-color:#007299"/>
			<stop  offset="0.8959" style="stop-color:#1E426E"/>
			<stop  offset="1" style="stop-color:#2C2C5B"/>
		</radialGradient>
		<rect x="252.2" y="47.9" style="clip-path:url(#SVGID_10_);fill:url(#SVGID_11_);" width="126.2" height="139.4"/>
	</g>
</g>
<g>
	<defs>
		<rect id="SVGID_12_" x="201.7" y="351.1" width="1412.5" height="383.4"/>
	</defs>
	<clipPath id="SVGID_13_">
		<use xlink:href="#SVGID_12_"  style="overflow:visible;"/>
	</clipPath>
	<rect x="326.9" y="441.6" style="clip-path:url(#SVGID_13_);fill:#2C3E50;" width="460.1" height="67.2"/>
	<polygon style="clip-path:url(#SVGID_13_);fill:#8B9698;" points="554.7,896.6 507.3,935.2 459.8,896.6 507.3,857.9 	"/>
	<rect x="157" y="898.7" style="clip-path:url(#SVGID_13_);fill:#33414F;" width="639.7" height="67.2"/>
	
		<line style="clip-path:url(#SVGID_13_);fill:none;stroke:#333479;stroke-width:2;" x1="2099.5" y1="1020.9" x2="2140.8" y2="1020.9"/>
	
		<line style="clip-path:url(#SVGID_13_);fill:none;stroke:#333479;stroke-width:2;" x1="3085.1" y1="103.6" x2="3133.2" y2="103.6"/>
</g>
<g>
	<defs>
		<rect id="SVGID_14_" x="-443" y="240.7" width="1015.8" height="323.1"/>
	</defs>
	<clipPath id="SVGID_15_">
		<use xlink:href="#SVGID_14_"  style="overflow:visible;"/>
	</clipPath>
	<g style="clip-path:url(#SVGID_15_);">
		<defs>
			<path id="SVGID_16_" d="M89.5,347.8h19.7c8.7,0,14.6,5.3,14.6,14.1c0,11.6-9,22-22.1,22H81.3L89.5,347.8z M57.7,315.1L26.6,449.8
				L22.9,466l-0.8,3.7h36.1h3.3l2.1-9.3l1.8-8.1l8.1-35.7H99c47.6,0,65.6-32.2,65.6-58.6c0-23.9-18-42.9-44.9-42.9H57.7z"/>
		</defs>
		<clipPath id="SVGID_17_">
			<use xlink:href="#SVGID_16_"  style="overflow:visible;"/>
		</clipPath>
		
			<radialGradient id="SVGID_18_" cx="-0.8183" cy="1.7807" r="2.1818" gradientTransform="matrix(236.3475 0 0 225.5489 232.3054 -108.7301)" gradientUnits="userSpaceOnUse">
			<stop  offset="0" style="stop-color:#BCD9E7"/>
			<stop  offset="1.101340e-02" style="stop-color:#B0D5E6"/>
			<stop  offset="6.426680e-02" style="stop-color:#7BC4E1"/>
			<stop  offset="0.1164" style="stop-color:#4FB6DE"/>
			<stop  offset="0.1663" style="stop-color:#2DABDB"/>
			<stop  offset="0.2134" style="stop-color:#14A3D9"/>
			<stop  offset="0.2566" style="stop-color:#059FD7"/>
			<stop  offset="0.2921" style="stop-color:#009DD7"/>
			<stop  offset="0.6461" style="stop-color:#007299"/>
			<stop  offset="0.8959" style="stop-color:#1E426E"/>
			<stop  offset="1" style="stop-color:#2C2C5B"/>
		</radialGradient>
		<rect x="22" y="315.1" style="clip-path:url(#SVGID_17_);fill:url(#SVGID_18_);" width="142.5" height="154.6"/>
	</g>
	<g style="clip-path:url(#SVGID_15_);">
		<defs>
			<path id="SVGID_19_" d="M224.5,347.8h19.7c8.7,0,14.6,5.3,14.6,14.1c0,11.6-9,22-22.1,22h-20.4L224.5,347.8z M192.7,315.1
				L157,469.7h39.3l12.1-53.1H234c47.6,0,65.6-32.2,65.6-58.6c0-23.9-18-42.9-44.9-42.9H192.7z"/>
		</defs>
		<clipPath id="SVGID_20_">
			<use xlink:href="#SVGID_19_"  style="overflow:visible;"/>
		</clipPath>
		
			<radialGradient id="SVGID_21_" cx="-0.8183" cy="1.7807" r="2.1818" gradientTransform="matrix(236.3475 0 0 225.5489 232.3054 -108.7301)" gradientUnits="userSpaceOnUse">
			<stop  offset="0" style="stop-color:#BCD9E7"/>
			<stop  offset="1.101340e-02" style="stop-color:#B0D5E6"/>
			<stop  offset="6.426680e-02" style="stop-color:#7BC4E1"/>
			<stop  offset="0.1164" style="stop-color:#4FB6DE"/>
			<stop  offset="0.1663" style="stop-color:#2DABDB"/>
			<stop  offset="0.2134" style="stop-color:#14A3D9"/>
			<stop  offset="0.2566" style="stop-color:#059FD7"/>
			<stop  offset="0.2921" style="stop-color:#009DD7"/>
			<stop  offset="0.6461" style="stop-color:#007299"/>
			<stop  offset="0.8959" style="stop-color:#1E426E"/>
			<stop  offset="1" style="stop-color:#2C2C5B"/>
		</radialGradient>
		<rect x="157" y="315.1" style="clip-path:url(#SVGID_20_);fill:url(#SVGID_21_);" width="142.5" height="154.6"/>
	</g>
	<g style="clip-path:url(#SVGID_15_);">
		<defs>
			<polygon id="SVGID_22_" points="434.1,315.1 387.7,393.9 378.7,315.1 327.7,315.1 292,469.7 331.4,469.7 353,376.3 363.9,469.7 
				379.2,469.7 433.6,376.3 412,469.7 451.1,469.7 486.8,315.1 			"/>
		</defs>
		<clipPath id="SVGID_23_">
			<use xlink:href="#SVGID_22_"  style="overflow:visible;"/>
		</clipPath>
		
			<radialGradient id="SVGID_24_" cx="-0.8183" cy="1.7807" r="2.1818" gradientTransform="matrix(236.3475 0 0 225.5489 232.3054 -108.7301)" gradientUnits="userSpaceOnUse">
			<stop  offset="0" style="stop-color:#BCD9E7"/>
			<stop  offset="1.101340e-02" style="stop-color:#B0D5E6"/>
			<stop  offset="6.426680e-02" style="stop-color:#7BC4E1"/>
			<stop  offset="0.1164" style="stop-color:#4FB6DE"/>
			<stop  offset="0.1663" style="stop-color:#2DABDB"/>
			<stop  offset="0.2134" style="stop-color:#14A3D9"/>
			<stop  offset="0.2566" style="stop-color:#059FD7"/>
			<stop  offset="0.2921" style="stop-color:#009DD7"/>
			<stop  offset="0.6461" style="stop-color:#007299"/>
			<stop  offset="0.8959" style="stop-color:#1E426E"/>
			<stop  offset="1" style="stop-color:#2C2C5B"/>
		</radialGradient>
		<rect x="292" y="315.1" style="clip-path:url(#SVGID_23_);fill:url(#SVGID_24_);" width="194.7" height="154.6"/>
	</g>
</g>
<g>
	
		<rect x="215" y="227.2" transform="matrix(0.7071 -0.7071 0.7071 0.7071 -110.6306 249.8103)" style="fill:#8B9698;" width="62.6" height="62.6"/>
</g>
</svg>
